<svg width="37" height="23" viewBox="0 0 37 23" xmlns="http://www.w3.org/2000/svg"><g fill-rule="nonzero" fill="#0067FF"><path d="M15.5 9.49c.635-.988.997-2.165.976-3.428C16.42 2.684 13.61 0 10.23 0H.8C.358 0 0 .358 0 .8v20.743c0 .442.358.8.8.8h10.535c3.91 0 7.15-3.134 7.165-7.045.01-2.397-1.18-4.522-3-5.81zM4.138 4.137h6.175c1.118 0 2.027.91 2.027 2.028 0 1.118-.91 2.028-2.028 2.028H4.137V4.138zm7.29 14.067h-7.29v-5.873h7.29c1.618 0 2.936 1.318 2.936 2.937 0 1.618-1.317 2.935-2.936 2.935zM37 14.13c0-4.893-3.853-8.873-8.59-8.873-4.735 0-8.59 3.98-8.59 8.872 0 4.89 3.855 8.87 8.59 8.87 2.875 0 5.545-1.474 7.144-3.943.2-.308.38-.63.54-.962.118-.24-.06-.52-.327-.52l-4.222-.01c-.093-.002-.182.036-.25.102-.796.775-1.773 1.142-2.884 1.142-2.098 0-3.857-1.57-4.294-3.665H36.16c.464 0 .84-.376.84-.84v-.176zm-8.59-4.682c1.538 0 2.892.843 3.68 2.116H24.73c.787-1.273 2.142-2.116 3.68-2.116zM31.754 4.6h-7.348c-.342 0-.62-.296-.62-.66V1.974c0-.365.278-.66.62-.66h7.348c.343 0 .62.295.62.66V3.94c0 .364-.277.66-.62.66z"/></g></svg>