<svg width="30" height="30" viewBox="0 0 30 30" xmlns="http://www.w3.org/2000/svg"><path d="M15 0C6.716 0 0 6.716 0 15c0 8.284 6.716 15 15 15 8.284 0 15-6.716 15-15 0-8.284-6.716-15-15-15zm12.13 13.92c-1.592-.063-4.604-.064-8.028.534-.31-.74-.625-1.452-.943-2.13.198-.093.394-.187.587-.285 2.352-1.186 4.305-2.72 5.826-4.57 1.468 1.86 2.35 4.085 2.558 6.45zm-4.56-8.46c-1.42 1.81-3.313 3.262-5.666 4.348-.264-.5-.525-.973-.778-1.418-1.295-2.277-2.53-4.09-3.454-5.347.76-.146 1.538-.22 2.328-.22 2.784 0 5.425.927 7.57 2.637zm-16.18.93C7.404 5.372 8.57 4.56 9.83 3.965 10.72 5.118 12.18 7.15 13.71 9.85c.175.31.354.633.535.97-1.176.362-2.438.655-3.788.875-3.028.493-5.757.478-7.29.408.52-2.145 1.62-4.114 3.222-5.714zM2.82 15v-.086c.52.027 1.183.05 1.956.05 1.63 0 3.752-.102 6.06-.472 1.664-.268 3.233-.645 4.693-1.128.26.547.517 1.116.77 1.708-1.87.503-3.587 1.16-5.127 1.968-2.5 1.308-4.535 3.008-6.067 5.063C3.622 20.047 2.822 17.585 2.822 15zm4.23 9.23c2.144-3.14 5.6-5.325 10.294-6.518.94 2.59 1.747 5.484 2.212 8.588-1.43.576-2.97.878-4.558.878-2.95 0-5.737-1.04-7.947-2.95zm16.56-.62c-.45.45-.93.86-1.432 1.23-.482-2.758-1.207-5.343-2.04-7.697 2.957-.464 5.56-.453 6.914-.4-.37 2.592-1.56 4.985-3.443 6.868z" fill-rule="nonzero" fill="#F60F6B"/></svg>