<svg width="28" height="27" viewBox="0 0 28 27" xmlns="http://www.w3.org/2000/svg"><defs><linearGradient x1="50%" y1="99.709%" x2="50%" y2=".777%" id="a"><stop stop-color="#E09B3D" offset="0%"/><stop stop-color="#C74C4D" offset="30%"/><stop stop-color="#C21975" offset="60%"/><stop stop-color="#7024C4" offset="100%"/></linearGradient><linearGradient x1="50%" y1="146.099%" x2="50%" y2="-45.16%" id="b"><stop stop-color="#E09B3D" offset="0%"/><stop stop-color="#C74C4D" offset="30%"/><stop stop-color="#C21975" offset="60%"/><stop stop-color="#7024C4" offset="100%"/></linearGradient><linearGradient x1="50%" y1="658.141%" x2="50%" y2="-140.029%" id="c"><stop stop-color="#E09B3D" offset="0%"/><stop stop-color="#C74C4D" offset="30%"/><stop stop-color="#C21975" offset="60%"/><stop stop-color="#7024C4" offset="100%"/></linearGradient></defs><g fill-rule="nonzero" fill="none"><path d="M19.66 0H8.34C3.743 0 0 3.608 0 8.043v10.914C0 23.392 3.742 27 8.34 27h11.32c4.598 0 8.34-3.608 8.34-8.043V8.043C28 3.608 24.258 0 19.66 0zm5.523 18.957c0 2.942-2.473 5.327-5.524 5.327H8.34c-3.05 0-5.523-2.385-5.523-5.327V8.043c0-2.942 2.473-5.327 5.524-5.327h11.32c3.05 0 5.523 2.385 5.523 5.327v10.914z" fill="url(#a)"/><path d="M13.702 6.32c-3.942 0-7.15 3.092-7.15 6.893 0 3.8 3.208 6.893 7.15 6.893s7.15-3.092 7.15-6.893c0-3.8-3.208-6.894-7.15-6.894zm0 11.105c-2.412 0-4.368-1.886-4.368-4.212C9.334 10.886 11.29 9 13.702 9c2.413 0 4.368 1.886 4.368 4.213 0 2.326-1.955 4.212-4.368 4.212z" fill="url(#b)"/><ellipse fill="url(#c)" cx="21.447" cy="6.894" rx="1.787" ry="1.723"/></g></svg>