<svg width="72" height="45" xmlns="http://www.w3.org/2000/svg"><g fill="#FFF" fill-rule="nonzero"><path d="M30.033 18.385a11.875 11.875 0 0 0 1.89-6.64C31.812 5.202 26.367 0 19.822 0H1.55A1.55 1.55 0 0 0 0 1.55v40.19c0 .855.694 1.55 1.55 1.55H21.96c7.576 0 13.852-6.073 13.883-13.65.019-4.644-2.284-8.76-5.81-11.255zM8.016 8.017H19.98a3.934 3.934 0 0 1 3.929 3.93 3.934 3.934 0 0 1-3.93 3.93H8.017v-7.86zM22.14 35.272H8.016V23.894H22.14a5.695 5.695 0 0 1 5.688 5.689 5.695 5.695 0 0 1-5.688 5.689zM71.688 27.374c0-9.478-7.466-17.188-16.642-17.188-9.177 0-16.642 7.71-16.642 17.188 0 9.478 7.466 17.189 16.642 17.189 5.568 0 10.742-2.857 13.84-7.641.386-.596.737-1.22 1.048-1.862a.705.705 0 0 0-.635-1.01l-8.18-.02a.69.69 0 0 0-.482.2c-1.545 1.502-3.439 2.212-5.591 2.212-4.066 0-7.474-3.042-8.322-7.098h23.335c.9 0 1.629-.73 1.629-1.63v-.34zm-16.642-9.068c2.977 0 5.602 1.632 7.127 4.099H47.918c1.526-2.467 4.15-4.1 7.128-4.1zM61.524 8.912H47.288c-.665 0-1.203-.573-1.203-1.28V3.826c0-.707.538-1.28 1.203-1.28h14.236c.664 0 1.203.573 1.203 1.28v3.804c0 .708-.539 1.281-1.203 1.281z"/></g></svg>