<svg width="59" height="59" xmlns="http://www.w3.org/2000/svg"><path d="M29.5.438C13.45.438.437 13.448.437 29.5c0 16.05 13.012 29.063 29.063 29.063 16.05 0 29.063-13.012 29.063-29.063C58.563 13.45 45.55.437 29.5.437zM53.003 27.41c-3.085-.124-8.922-.127-15.555 1.033-.6-1.437-1.212-2.814-1.827-4.129.385-.18.766-.362 1.14-.55 4.555-2.296 8.339-5.266 11.287-8.852a23.365 23.365 0 0 1 4.955 12.498zm-8.835-16.394c-2.752 3.506-6.42 6.32-10.978 8.424a108.146 108.146 0 0 0-1.509-2.747 106.456 106.456 0 0 0-6.692-10.36c1.47-.282 2.98-.428 4.511-.428 5.394 0 10.51 1.799 14.668 5.11zm-31.353 1.8a23.61 23.61 0 0 1 6.672-4.695c1.719 2.232 4.549 6.169 7.514 11.4.339.599.686 1.227 1.037 1.878a54.518 54.518 0 0 1-7.34 1.697c-5.867.956-11.155.927-14.124.791a23.446 23.446 0 0 1 6.241-11.072zM5.905 29.5l.002-.167a71.54 71.54 0 0 0 3.787.097c3.16 0 7.27-.197 11.741-.915 3.225-.518 6.265-1.249 9.094-2.185.5 1.06.999 2.163 1.49 3.31-3.624.974-6.95 2.25-9.935 3.812-4.841 2.535-8.785 5.83-11.755 9.81C7.456 39.279 5.905 34.51 5.905 29.5zm8.199 17.882c4.151-6.08 10.844-10.317 19.94-12.628 1.825 5.017 3.386 10.626 4.286 16.639a23.568 23.568 0 0 1-8.83 1.702c-5.713 0-11.116-2.016-15.396-5.713zm32.08-1.198c-.87.871-1.798 1.664-2.773 2.38-.933-5.342-2.338-10.352-3.955-14.913 5.731-.899 10.774-.876 13.4-.771-.716 5.02-3.022 9.655-6.672 13.304z" fill="#FFF" fill-rule="nonzero"/></svg>