<svg width="31" height="62" xmlns="http://www.w3.org/2000/svg"><path d="M.99 33.021h6.727V61c0 .552.443 1 .99 1h11.405c.547 0 .99-.448.99-1V33.153h7.733a.994.994 0 0 0 .984-.886l1.174-10.3a1.007 1.007 0 0 0-.244-.78.986.986 0 0 0-.739-.335h-8.907v-6.456c0-1.947 1.037-2.934 3.083-2.934h5.824c.547 0 .99-.448.99-1V1.007c0-.552-.443-1-.99-1h-8.026A7.814 7.814 0 0 0 21.616 0c-1.392 0-6.233.276-10.057 3.83-4.237 3.939-3.648 8.654-3.507 9.472v7.55H.99a.995.995 0 0 0-.99 1v10.17c0 .551.443 1 .99 1z" fill="#FFF" fill-rule="nonzero"/></svg>