<svg width="55" height="53" xmlns="http://www.w3.org/2000/svg"><g fill="#FFF" fill-rule="nonzero"><path d="M38.089 0H16.16C7.25 0 0 6.991 0 15.584v21.144c0 8.593 7.25 15.584 16.161 15.584H38.09c8.911 0 16.161-6.99 16.161-15.584V15.584C54.25 6.991 47 0 38.089 0zm10.703 36.728c0 5.7-4.792 10.322-10.703 10.322H16.16c-5.911 0-10.703-4.621-10.703-10.322V15.584c0-5.7 4.792-10.321 10.703-10.321H38.09c5.911 0 10.703 4.62 10.703 10.321v21.144z"/><path d="M26.548 12.243c-7.638 0-13.851 5.992-13.851 13.357 0 7.364 6.213 13.356 13.85 13.356 7.638 0 13.852-5.992 13.852-13.356 0-7.365-6.214-13.357-13.851-13.357zm0 21.518c-4.674 0-8.464-3.654-8.464-8.161 0-4.508 3.79-8.161 8.464-8.161s8.463 3.653 8.463 8.16c0 4.508-3.789 8.162-8.463 8.162z"/><ellipse cx="41.553" cy="13.356" rx="3.463" ry="3.339"/></g></svg>