<svg width="149" height="240" xmlns="http://www.w3.org/2000/svg" xmlns:xlink="http://www.w3.org/1999/xlink"><defs><path d="M4.037 100.143c1.329 0 5.29 22.737 9.409 46.764 1.184 6.91-.796 3.154-1.008 38.54-.211 35.387 77.984 58.749 80.686 39.02 1.694-12.368 6.297-7.948 7.629-20.08 1.332-12.131 4.599-7.65 7.599-7.606 14.329.209 4.602 3.002 10.688-3.43 1.755-1.853 11.438-5.698 10.326-13.29-.977-6.668-1.439-3.54-1.245-8.825.082-2.226-8.497-10.19-2.36-18.82.894-1.258 1.377-2.369 1.377-3.419 0-1.05-1.444-1.906-1.193-2.09.251-.185 2.451-1.14 2.451-4.797 0-1.619-.596-4.758-1.457-5.902-1.678-2.229-.534-8.825 0-8.764 1.273.143 4.1-.044 6.507-2.217 6.19-5.589 5.046-8.576 1.85-14.19-2.336-4.103-7.924-12.698-7.906-15.055.018-2.357 2.43-2.744 3.677-7.645.487-1.911-.858-3.243 0-5.057 1.334-2.82 2.938-5.707 3.642-8.622 1.284-5.319-1.341-9.72-2.823-13.349-2.55-6.247-4.06-7.08-8.462-18.748-2.126-5.635-11.512-15.596-15.072-19.89C105.081 18.724 84.251 3.148 63.776.606c-19.913-2.472-36.04 11.884-37.769 11.884-8.9 0-20.412 30.753-20.412 41.556 0 10.803-10.46 46.096-1.558 46.096z" id="a"/><path d="M11.94 9.228c4.625 0 4.458-.844 4.458-3.33 0-2.484.319-6.057-4.458-5.084C8.756 1.464 5.085 3.158.928 5.9c4.259 2.22 7.93 3.33 11.012 3.33z" id="c"/><path d="M7.351 7.667c3.524-.095 3.74-.377 3.985-2.497.098-.851-.165-1.603-.245-2.435C10.945 1.22 9.576.588 6.586 1.197 3.5 1.827 1.546 2.818.724 4.173c.364 1.408.834 2.275 1.411 2.602 1.215.687 3.473.938 5.216.892z" id="e"/></defs><g fill="none" fill-rule="evenodd"><g transform="rotate(1 -348.18 750.63)"><mask id="b" fill="#fff"><use xlink:href="#a"/></mask><use fill="#00EDC8" xlink:href="#a"/><path d="M127.156 141.788c-7.593 1.585-6.976-.837-11.174.78-1.351.52-3.326 1.936-5.921 2.901-3.9 1.451-8.847 2.468-8.664 2.555 2.885 1.371 17.76-1.308 19.817-1.085 1.891.205-.378.135 4.125 0 4.273-.129 3.55-5.513 1.817-5.151z" fill="#0049C6" mask="url(#b)"/><path d="M133.557 150.032c0 7.034-6.388 0-13.93 2.051-2.6.708-5.163-1.361-7.943-1.775-4.138-.615-10.47-2.37-10.287-2.284 2.885 1.371 17.76-1.308 19.817-1.085 1.891.205-.378.135 4.125 0 4.273-.129 8.218 2.637 8.218 3.093z" fill="#0C66FF" mask="url(#b)"/><path d="M146.278 123.003c17.762 0 27.217-11.045 27.217-15.802 0-2.868-37.45 4.46-46.245-10.163-1.589-2.642-5.463-7.908-6.593-10.781-3.659-9.304-5.35-14.197-5.951-8.79-1.48 13.296 2.353 29.734-5.398 36.977-8.16 7.627-.027 13.852 2.484 14.134 3.567.401 10.913-1.688 13.142-1.251 8.646 1.694 10.463-4.324 21.344-4.324z" fill="red" mask="url(#b)"/></g><path d="M90.104 44.753c13.34-1.977 13.676-13.112 24.406-13.036 3.464.024 6.69 4.544 9.065 4.135 1.363-.235 3.771 3.793 4.653 3.38.283-.134-.413-3.051 1.907-3.266 1.203-.111 7.355 5.162 7.33 4.703-.064-1.12-.518-3.227-1.72-5.1-.455-.708-1.352-1.018-1.886-1.761-3.257-4.526-7.573-9.333-7.8-9.92-1.203-3.104-5.596-6.37-8.75-9.345-2.472-2.33-5.074-5.677-8.292-7.93-2.224-1.556-3.836-.823-7.5-1.888-.325-.094-6.038-3.408-6.37-3.497C90.99.117 85.2 2.234 81.253 2.053 73.195 1.683 66.413.121 62.847.059 57.85-.028 58.126.545 41.76 6.907c-1.695.659-15.418-.744-17.088.05-.423.202 7.86 3.391 6.98 4.162-.702.616-7.88-1.647-9.92-1.287-.957.169 5.33 4.035 4.716 4.372-2.163 1.19-9.532-.485-10.076-.176-.535.305 4.495 3.385 3.9 3.837-.988.75.354 6.17-2.068 6.354-2.346.179-6.438 3.443-7.238 4.055-2.85 2.182-1.392 4.402-3.378 6.393-3.395 3.402 1.44.461.597 2.788-1.761 4.858-5.802 13.22-5.84 15.432-.01.512 4.463-3.15 1.178 1.844C1.26 58.174.634 65.32 1.142 72.491c.204 2.889-.15 8.086-.235 13.437-.064 4.008 2.853 7.51 2.535 12.16-.324 4.742.946 4.275 1.875 8.33 1.759 7.678 3.463 13.256 4.022 15.099.953 3.14-.304 3.637 5.29 13.189 1.478 2.524 6.703 13.934 8.388 19.489 3.833 12.636 1.608-6.419-.59-13.572-1.034-3.367-4.56-7.884-4.897-13.642-.378-6.472-7.877-13.457-6.817-17.296 2.02-7.314 1.514-14.868 7.408-16.55 3.016-.861 7.763 1.804 10.526 1.852 11.597.203 11.16 18.763 13.32 13.565 1.81-4.35 9.851.169 9.76-1.323-.683-11.23-1.829-16.675-2.003-21.107-.09-2.284 1.007-4.981.612-6.632-1.199-5.018 1.915-8 4.676-11.28 2.63-3.127 4.835-6.611 6.802-9.015 4.033-4.926-3.606-3.361-2.937-8.736.447-3.588 5.965-3.61 12.855-4.389 1.3-.147 11.666-6.221 12.99-6.322 1.629-.124-7.745 6.524-6.19 6.441 1.055-.056 16.254-8.483 17.228-8.532.975-.049-7.192 7.323-5.656 7.096z" fill="#BC00FF"/><path d="M33.523 143.564c8.53-.26 11.122-9.047 8.016-12.073-3.106-3.027-10.831-13.056-9.277-18.391 1.87-6.42-5.744-14.606-9.62-18.304-2.317-2.21-4.435-2.502-6.976-2.546-3.942-.07-7.187 4.444-8.226 11.75-.541 3.806.67 7.771 2.01 13.813 1.266 5.715 3.661 10.931 6.758 14.434 2.462 2.783 5.487 4.193 7.88 5.998 4.127 3.111 6.699 5.402 9.435 5.319z" fill="#0C66FF"/><path d="M12.391 112.646c1.533 4.194 1.995 10.452 1.25 9.335-.921-1.385-3.366-11.18-4.036-15.794-1.212-8.342 2.334-10.002 4.486-9.964 2.152.037 9.04 3.411 9.751 9.533.04.339 1.772 2.059 1.687 2.19-.004.007 2.168 2.726 1.351 3.64-.113.127-.39 2.763-1.975 3.59-1.55.809-4.406-.187-4.669-.366-.77-.523 3.865-4.968 4.493-5.714.511-.609-1.174-2.495-1.267-2.497-1.002-.02-3.634-2.811-4.785-3.38-.59-.292-3.099-3.492-3.568-3.045-1.114 1.06-5.033 6.134-2.718 12.472zm18.34 9.953c.52 1.602 1.71 2.013 2.412 2.807 1.128 1.276 2.8 3.453 1.24 3.633-2.305.265-4.289 1.08-5.706-.548-.299-.343 1.289-1.43.834-1.946-4.989-5.657-4.726-9.26-3.735-10.092.567-.476 1.913-2.791 3-1.314.814 1.107 1.374 5.672 1.955 7.46zm-8.876.184c1.63 4.735-.76 2.256-2.33 1.736-3.206-1.061-4-6.46-1.702-6.702 2.299-.242 2.402.231 4.032 4.966z" fill="#0049C6"/><path d="M100.031 164.563c.124-1.255.426-2.57.88-3.987 1.024-3.197 3.486-6.051 4.61-8.452.222-.476 3.74-4.664 6.912-7.09 1.14-.87 2.363-1.998 3.245-2.16 1.458-.267 3.234.31 4.478.078 1-.187 1.533-1.119 2.41-1.331 3.45-.834 6.56-1.008 10.24-.944 1.316.023 2.666-1.478 3.873-1.32 1.757.229 2.995 1.124 4.211 2.038.59.442 1.83.055 2.233.585.706.925 1.24 2.622 1.223 3.612-.005.295.902 1.146.917 2.38.014 1.179.245 2.714-.073 4.166-.364 1.663-1.286 3.236-1.287 4.394 0 .665-.31 1.54-.328 2.198-.06 2.113-.133 4.03-.444 5.236.175.778.228 1.93.138 3.49-.068 1.172 1.386 3.919.733 7.189-.653 3.27 2.09 5.052 1.68 6.466-.386 1.329 1.64 2.856-.1 5.698-1.738 2.843 1.046 2.464.543 3.395-1.276 2.361 1.047 5.023 1.566 7.208.248 1.047-.904 2.318-1.749 3.262-.617.69-.954 1.916-1.605 2.55a34.46 34.46 0 0 1-2.703 2.374c-1.228.967-3.597 1.085-4.913 1.809-2.687 1.478-4.45 3.14-7.415 3.319-15.214.913-25.312-.306-34.277-1.405-2.82-.346-5.626-2.183-8.12-2.784-9.826-2.368-17.666-6.823-27.802-14.187-.141-.103-.576-.785-3.158-3.147-.889-.813-4.199-1.13-5.1-1.955-.434-.398-.28-2.678-.693-3.057-2.225-2.035-4.019-3.675-4.135-3.765-5.477-4.238-6.777-7.291-6.29-11.815.511-4.733-3.552-8.941-1.901-15.403.388-1.52 2.108-4.085 2.27-5.71.12-1.208.119-2.65.069-3.922-.06-1.493-1.164-3.071-1.213-4.592-.103-3.164 2.609-6.406 2.532-9.492-.035-1.399-.977-2.314-1.01-3.656-.022-.926.864-2.296.842-3.185-.146-5.741-.298-10.627-.55-13.549-1.062-12.34 11.264-5.82 11.51-3.829.377 3.042.516 7.549.996 12.517.143 1.477 2.582 3.586 2.8 5.119.555 3.891 2.313 7.324 4.415 10.538 1.352 2.065 4.072 4.061 5.479 6.008 7.353 10.178 10.18 4.836 16.852 8.79 2.917 1.728 6.101 6.383 10.654 7.548 4.751 1.216 3.997 4.907 6.555 8.77zm9.402 3.474l.169-.012c1.702-.13 4.707 8.067 6.67 7.765 1.945-.299 1.013-.802 3.057-1.576.474-.18 2.105-1.494 1.917-4.18-.168-2.412.603-4.544 1.033-4.746 1.437-.676.5-1.324 1.56-1.707 3.61-1.306 6.053-1.055 8.4-.591.364.072.694 6.724 1.875 2.504.151-.54.35-.95.585-1.257a.845.845 0 0 1-.005-.003c-.495-.296 2.473-4.143 2.704-4.94.728-2.523-.672-3.102-1.01-3.231-.372-.143 2.368-.868 2.455-4.036.087-3.167-2.61.838-3.468-.899-.338-.685-2.43-.512-2.743-.517-.494-.009-1.711.548-3.232.413-.562-.05-1.095-.844-1.75-.864a27.016 27.016 0 0 0-1.755 0c-.489.016-.794.73-1.306.78-.466.045-1.137-.577-1.616-.498-.786.13-1.704 1.872-2.494 2.076-.678.175-1.302-.298-1.965-.034-.333.132-.421 1.08-.747 1.238-.264.129-.766-.538-1.025-.392-.35.198-.523 1.75-.86 1.975-.374.249-.653-.82-1.007-.527-1.343 1.11-2.515 1.537-3.44 3.391-.435.869-.51 3.02-.817 4.062-.145.492-.557 1.038-.67 1.57a25.542 25.542 0 0 0-.515 4.236z" fill="#C10757"/><path d="M106.997 80.733c-2.952-.052-7.204-1.144-11.961-.869-7.781.45-18.912 6.755-17.15 3.592 1.276-2.291 6.631-6.616 10.59-8.785 3.96-2.168 5.275-5.062 9.065-4.996 2.863.05 5.734 2.127 9.595 3.084 6.632 1.644 15.654 3.031 15.604 5.93-.026 1.45-2.083 1.789-3.289 2.261-2.61 1.023-7.131-.124-12.454-.217zm38.512-4.196c2.418-1.424 3.312 7.034.573 8.527-1.515.826-2.396-.525-4.015-1.015-2.06-.624-4.987-.12-4.274-1.642 1.958-4.171 5.787-4.734 7.716-5.87z" fill="#A900F5"/><path d="M132.813 134.194c1.2.021 2.857-.392 4.021-.151 1.167.242 1.723.342 1.95.034.501-.682-2.555-3.001-6.265-2.752-3.71.248-5.66 1.283-5.693 3.134-.032 1.852 3.799-.303 5.987-.265z" fill="#A90000"/><path d="M103.578 88.992c6.44-.616 5.91 4.945 5.99 2.765.08-2.18-2.823-7.976-8.412-6.846-5.59 1.13-12.458 6.588-15.256 8.238-2.798 1.65 11.238-3.54 17.678-4.157z" fill="#0C66FF"/><g transform="rotate(1 -5028.52 5236.382)"><mask id="d" fill="#fff"><use xlink:href="#c"/></mask><use fill="#FFF" xlink:href="#c"/><ellipse fill="#121212" mask="url(#d)" cx="11.5" cy="4.5" rx="3.5" ry="4.5"/></g><path d="M139.301 90.636c3.537-.456 3.212 3.287 3.262 1.74.05-1.546-2.344-5.704-5.416-4.887-3.07.817-3.608 2.903-5.149 4.08-.423.325-.727 1.93-.03 1.682 1.84-.651 4.77-2.286 7.333-2.615z" fill="#0C66FF"/><g transform="rotate(1 -5106.315 7584.95)"><mask id="f" fill="#fff"><use xlink:href="#e"/></mask><use fill="#FFF" xlink:href="#e"/><ellipse fill="#121212" mask="url(#f)" cx="6.5" cy="3" rx="2.5" ry="4"/></g><path d="M138.584 105.435c-1.542-2.67-5.323-8.002-6.403-10.895-3.496-9.366-5.102-14.288-5.798-8.892-1.71 13.268 1.834 29.77-6.041 36.877-8.293 7.484 26.78-2.316 18.242-17.09z" fill="red"/></g></svg>