<svg width="168" height="258" xmlns="http://www.w3.org/2000/svg" xmlns:xlink="http://www.w3.org/1999/xlink"><defs><path d="M12.438 100.538c1.32 0-7.352 22.453 4.973 45.102 2.873 5.28 2.156 27.265-1.889 35.46-4.044 8.194-9.17 15.156-12.768 17.552-7.57 5.04 5.608 11.537 15.8 19.487 13.39 10.444 68.737 48.77 68.737 21.066 0-12.634 4.346-10.549 5.487-24.76 1.14-14.211 9.486-15.837 12.464-15.793 14.225.207 19.893-.592 25.936-6.968 1.741-1.837 11.354-5.648 10.25-13.175-.97-6.61-1.428-3.51-1.235-8.75.107-2.92.734-6.65 1.235-10.034.273-1.84-.469-11.695 0-11.614.868.148 5.375-2.077 4.051-6.234-.451-1.418-1.506-6.143-2.361-7.277-1.666-2.21-8.119-4.905-7.589-4.845 1.264.142 7.56-3.472 9.95-5.626 6.145-5.54-5.1-12.822-7.988-18.802-1.02-2.112 1.263-7.861 0-10.211-1.088-2.024 11.327-11.435 11.61-12.75 1.477-6.833-3.588-10.736-7.673-20.727-2.532-6.193-.325-5.667-4.696-17.235-2.11-5.587-9.191-13.856-12.726-18.113C120.76 22.379 96.64 3.12 76.314.6c-19.768-2.45-35.779 11.783-37.495 11.783-8.837 0-20.264 30.487-20.264 41.197 0 10.71-14.953 46.957-6.117 46.957z" id="a"/></defs><g fill="none" fill-rule="evenodd"><g transform="translate(8 8)"><mask id="b" fill="#fff"><use xlink:href="#a"/></mask><use fill="#E9034E" xlink:href="#a"/><path d="M139.607 99.929c5.523 0 10-2.416 10-5.978 0-3.563-4.477-4.957-10-4.957-3.682 0-7.583 2.094-11.705 6.283 4.122 3.101 8.023 4.652 11.705 4.652z" fill="#FFF" mask="url(#b)" transform="rotate(7 138.755 94.461)"/><path d="M91.587 149.075c.05-.139.109-.281.175-.427.458-1.019 8.052-13.718 13.295-14.766 11.374-2.273 18.006-4.663 27.12-4.663 9.112 0 17.468 7.675 17.468 13.197 0 2.852.769 7.476-1.844 8.41a76.175 76.175 0 0 1 4.157-.074c18.855.278 3.78 44.832-19.43 46.618-38.718 2.98-56.858 2.747-77.958-11.913-.343-.239-12.443-11.575-12.76-11.81-13.708-10.152-1.099-19.874-2.074-36.845-.754-13.101-4.725-32.823-4.166-38.927.275-3.01 9.707-1.967 9.988 0 1.087 7.625 8.48 23.764 15.992 33.711 7.512 9.948 15.736 13.72 22.46 17.518 1.94 1.097 4.63.733 7.577-.03zm17.453-.185c.056.07.111.141.166.214 2.841 3.812 15.218 3.247 26.787 2.464-1.28-2.776-2.664-6.81-3.817-6.81-2.98 0-17.016-.288-23.136 4.132z" fill="#2300FF" mask="url(#b)"/><path d="M135.12 148.15c-7.538 1.57-9.362-2.36-13.53-.758-3.358 1.293-13.222.68-13.586 2.328-.235 1.065 10.632 2.964 12.89 3.208 1.878.204 8.066 1.878 12.536 1.744 4.243-.127 3.41-6.881 1.69-6.523z" fill="red" mask="url(#b)"/><path d="M135.12 148.15c-7.538 1.57-9.362-2.36-13.53-.758-3.358 1.293-13.222.68-13.586 2.328-.235 1.065 12.971-7.097 17.04-7.097 4.069 0 5.315 2.84 10.076.511 1.955-.956 1.72 4.657 0 5.015z" fill="#A00025" mask="url(#b)"/><path d="M158.98 134.933c17.633 0 27.02-10.95 27.02-15.666 0-2.843-34.227 3.069-45.91-10.076-2.083-2.343-2.81-6.57-4.358-9.29-4.326-7.6-7.623-13.147-7.465-7.767.37 12.568-7.315 20.224-12.335 25.758-1.422 1.567-1.692 5.234 0 7.274 1.691 2.04 3.132 3.71 5.417 4.518 1.607.569 8.248-1.286 10.462-.853 8.583 1.68 16.367 6.102 27.169 6.102z" fill="#B200FE" mask="url(#b)"/></g><path d="M92.951 21.594c13.24-2.191 14.428 7.678 25.106 7.567 3.447-.036 9.153 6.09 11.51 5.642 1.352-.256 5.298 4.132 6.169 3.706 1.728-.846-1.924-13.952-2.425-15.178-1.25-3.057-6.131-5.084-9.322-7.98-2.499-2.267-5.622-2.878-8.863-5.056-2.24-1.506-4.06-4.754-7.725-5.747-.324-.088-5.304-2.318-5.634-2.4C89.124-.986 76.633.696 71.344.696c-4.973 0-11.281-.792-27.455 5.8-1.675.683-8.109 1.984-9.756 2.801-1.46.724-6.72 6.318-8.136 7.156-2.255 1.332-5.205 4.357-7.289 6.005C2.973 34.904 2.154 51.521 2.154 55.756c0 .857-2.478 3.84-.937 21.244.253 2.861 2.4 5.182 2.408 10.489.006 3.976 1.542 6.231 1.306 10.849-.24 4.708 1.512 6.402 2.507 10.407 1.883 7.583 3.892 16.165 4.48 17.983 1.003 3.097-.287 2.738 5.445 12.113 1.515 2.478 5.44 8.962 6.505 14.683 2.406 12.93 4.382 13.43 4.178 6.87-.384-12.38-3.878-11.511-6.19-18.567-2.31-7.055-8.11-24.9-6.242-32.128 2.846-11.017 7.517-13.46 15.642-13.46 11.543 0 11.688 16.216 13.749 11.025 1.724-4.346 8.42.046 8.42-1.439 0-15.505 7.33-16.04 6.044-33.637-.74-10.1 4.313-13.133 8.24-18.088 3.927-4.954-10.019-10.686-1.779-24.94 5.36-9.271 19.987-6.402 27.021-7.566z" fill="#00EDC8"/><path d="M117.99 88.428c-7.732 0-26.99 2.34-26.99-2.078 0-2.266 4.895-3.34 9.293-5.141C104.47 79.498 105.48 77 109.246 77c7.731 0 23.598 3.717 23.598 8.135 0 1.396-.02 2.818-1.21 3.293-2.576 1.028-8.355 0-13.644 0zm37.638-6.977c2.377-1.412 2.695 8.875 0 10.358-3.388 1.865-9.474-.005-9.474-2.465 0-4.419 7.577-6.767 9.474-7.893z" fill="#A900F5"/><path d="M108.404 106c5.852 0 10.596-2.43 10.596-6.014 0-3.583-4.744-4.986-10.596-4.986-3.902 0-8.036 2.107-12.404 6.32 4.368 3.12 8.502 4.68 12.404 4.68z" fill="#FFF"/><path d="M119.19 126.772c3.3 0 12.633-6.593 13.869-13.114.056-.295 2.522-5.984 2.522-6.26 0-.61-1.062-9.125.805-8.328.711.303 10.644-2.915 8.623 3.048-1.618 4.773-.116 11.596 1.718 13.811 9.253 11.176 8.402 12.391 8.502 13.866.05.72 8.241-3.103 11.222-15.636s-.615-15.43-2.69-18.62c-1.325-2.038-4.367-2.926-8.216-2.273-4.35.738-5.932 3.014-6.949 4.985-.823 1.595-4.736-1.63-6.019-1.83-4.281-.67-7.43.307-7.61 0-2.532-4.357-1.049-7.283-10.222-8.684-3.156-.482-8.74 1.317-12.707 4.477-.012.01-2.18 2.674-3.553 2.604-12.38-.628-73.49-6.452-73.617-6.356-.646.484-14.09 9.885-12.853 10.19.195.048 1.496-.066 3.584-1.485 3.473-2.36 8.604-6.58 10.63-6.844 6.2-.806 71.149 7.979 71.094 8.747-.3 4.17-1.517 10.82-1.517 15.089 0 5.881 9.437 12.613 13.384 12.613z" fill="#121212"/><path d="M146.727 103.963c-1.618 4.7-1.834 9.98 0 12.162 7.605 9.049 8.385 11.469 8.477 12.85.02.3.72-.59.739-.33.049.709 5.196-2.074 8.177-14.42 2.98-12.345.606-12.866-1.469-16.01-1.325-2.007-2.859-3.27-6.708-2.626-4.35.727-4.7 2.897-5.652 3.978-.952 1.082-1.542-1.478-3.564 4.396zM120.06 124.42c2.826 0 10.82-5.8 11.878-11.537.048-.26 2.16-5.264 2.16-5.507 0-.537-.371-9.386-.525-9.657-2.17-3.833-.899-6.406-8.755-7.639-2.703-.424-7.487 1.159-10.884 3.939-.01.008-2.411.954-3.043 2.29-1.059 2.242-.948 3.065-.995 3.74-.256 3.67-1.3 9.52-1.3 13.275 0 5.174 8.083 11.096 11.464 11.096z" fill="#FFF200"/><path d="M36.678 142.815c8.503-.406 9.938-6.71 6.788-9.668-3.15-2.96-7.539-11.258-6.082-16.596 1.753-6.424-3.795-1.544-3.795-9.558 0-13.849-8.448-13.409-14.428-13.409-3.933 0-8.087 3.623-8.996 10.915-.473 3.797 1.831 7.713 3.272 13.704 4.312 17.936 16.944 24.913 23.241 24.612z" fill="#BC00FF"/><path d="M19.609 114.705c-.588 10.461-4.084 2.793-5.455-5.444-1.372-8.237 2.181-9.941 4.356-9.941s13.68 5.911 10.916 9.941c-2.764 4.03-9.23-5.017-9.817 5.444zm10.13 5.29c-3.51 4.031-.046 6.149-4.583 4.76-5.004-1.532-3.703.51-3.91-3.404-.396-7.466 4.977-10.031 7.738-10.031 2.762 0 4.263 4.646.754 8.676zm7.566 8.583c4.52 5.634.431 3.335-1.624 3.306-4.195-.06-8.157-6.936-5.719-8.232 2.439-1.297 2.824-.708 7.343 4.926z" fill="#9700C1"/><path d="M136.617 135.414c2.148 0 4.412-.885 4.892-1.496.481-.612-2.621-.813-5.749-.813-3.127 0-4.76.669-4.76 2.309 0 1.64 3.47 0 5.617 0z" fill="#7800A3"/></g></svg>