<svg width="214" height="245" xmlns="http://www.w3.org/2000/svg" xmlns:xlink="http://www.w3.org/1999/xlink"><defs><path d="M8.526 88.483c1.187 0-6.66 12.257 4.435 32.646 2.586 4.753 2.498 16.683-.306 24.569-2.805 7.885-17.265 31.795-10.136 42.4 17.422 25.914 62.263 35.37 69.623 28.198 4.848-4.724 10.68-11.17 16.279-22.02 5.6-10.852 20.673-14.95 23.354-14.91 12.805.186 25.525-4.135 27.613-10.929 1.683-5.476.024-9.968 0-14.963-.024-4.995 6.06-3.99 6.419-8.607.358-4.616-2.461-4.85-1.945-5.44.516-.588 7.348-2.125 6.157-5.868-.388-1.218-1.576-2.753-1.52-8.877.005-.496 1.167-.34 1.54-.33 8.23.22 11.522-.94 12.466-6.173.945-5.232-5.717-12.953-8.53-22.27-5.886-19.504 2.557-24.223 2.813-25.407 1.328-6.15-.206-8.12-1.93-18.611-1.505-9.164-3.008-16.193-9.839-27.205-6.83-11.01-35.008-22.162-53.306-24.43C73.918-1.952 59.505 10.861 57.96 10.861c-7.955 0-29.367 23.127-29.367 32.768 0 9.641-28.022 44.853-20.067 44.853z" id="a"/><path d="M12.53 7.948c5.724 0 10.364-1.945 10.364-4.813 0-2.867-4.64-1.677-10.364-1.677-3.816 0-7.86.915-12.132 2.745C4.67 6.7 8.714 7.948 12.53 7.948z" id="c"/><path d="M108.122 42.33c1.661-1.399 5.866-6.847 7.137-17.62.021-.179.95-10.241 1.071-10.19.184.078 1.577-1.23 3.844-.992 1.493.157 1.42.007 1.712 3.04.29 3.034 2.977 15.481 6.76 21.133.129.193.236 1.168.483.996 3.674-2.548 4.144-16.99 4.652-22.023.204-2.026-1.682-13.22-5.447-12.58-4.255.721-4.844 4.747-5.839 6.674-.805 1.56-.959 1.29-2.146 1.097-1.542-.251-3.895.671-4.07.37-2.477-4.26-.444-5.65-4.02-9.269-.949-.962-3.94-.292-7.82 2.8-.011.008-2.168 5.88-2.779 5.816C90.12 10.369 12.754.45 12.63.543 11.997 1.017-1.05 9.24.16 9.538c.191.047 1.464-.065 3.506-1.452 3.397-2.308 8.313-5.464 10.294-5.722a6.84 6.84 0 0 1 1-.024c11.07.326 86.455 11.349 86.403 12.072-.292 4.08-1.537 14.623-.935 21.269.521 5.75 5.916 8.148 7.694 6.65z" id="e"/></defs><g transform="rotate(-6 86.786 52.382)" fill="none" fill-rule="evenodd"><g transform="translate(42.058 28.365)"><mask id="b" fill="#fff"><use xlink:href="#a"/></mask><use fill="#CF0" xlink:href="#a"/><path d="M152.7 137.447c-7.374 1.537-6.931.978-11.813 1.59-5.698.716-15.39-1.299-17.088-1.088-1.462.182-1.352.216 1.97.703.246.036 6.902 2.532 8.534 3.439 3.573 1.987 5.726 4.156 8.387 4.268 13.344.558 3.498-11.445 8.398-14.165 1.71-.949 3.293 4.903 1.611 5.253z" fill="red" mask="url(#b)"/><path d="M152.526 140.045c-7.372 1.536-7.179-1.477-12.06-.864-5.698.716-14.969-1.443-16.667-1.232-1.462.182-.761-1.161 1.482-1.903.217-.072.886.159 1.284.135 3.115-.188 5.828-.216 9.653-1.106 3.824-.889 6.846-3.06 8.14-3.06 3.98 0 1.83 2.9 6.73.18 1.71-.95 3.12 7.5 1.438 7.85z" fill="#DC0000" mask="url(#b)"/><path d="M180.182 127.096c17.247 0 26.428-10.71 26.428-15.323 0-2.78-33.478 3.002-44.904-9.855-2.037-2.292-8.28-7.861-8.868-10.712-3.97-19.276-7.831-24.323-7.61-9.53.183 12.298-2.376 23.396-7.151 28.753-2.629 2.948-2.764 8.822-1.694 10.326 2.081 2.929 6.966 3.776 12.184 3.572 8.654-.338 21.05 2.769 31.615 2.769z" fill="#FF7E0B" mask="url(#b)"/><path d="M133.8 171.064c.916 0 4.055-1.584 4.055-3.951s-1.363-7.527-1.7-5.278c-.34 2.248-.28 2.314-.691 5.09-.41 2.776-2.58 4.139-1.664 4.139z" fill="#A07A00" opacity=".699" mask="url(#b)"/></g><path d="M38.938 86.414c13.215 0 23.928-10.945 23.928-24.447 0-8.546 21.225-28.277-3.214-38.213-4.96-2.017-2.317-9.73-13.93-10.509-6.412-.43-12.823 9.41-20.073 18.102-4.205 5.04-15.747 9.794-16.998 12.413C4.555 52.335-1.619 53.002.54 57.832c3.527 7.894 9.345 18.66 17.737 30.617 4.355 6.207 11.528 6.355 14.894 4.165 3.12-2.03 2.46-6.2 5.768-6.2z" fill="#DF024A"/><path d="M5.706 76.73a9.017 9.017 0 1 1-.467 7.823 8.053 8.053 0 0 1-.455-1.16 7.976 7.976 0 0 1 .922-6.663zm35.469 55.115a9.017 9.017 0 0 1 6.462 15.107 7.907 7.907 0 0 1 7.408 12.555c-.197.3-.419.59-.667.866a6.994 6.994 0 0 1-5.424 2.316 7.907 7.907 0 0 1-6.328-12.961 9.018 9.018 0 0 1-8.578-14.622 7.976 7.976 0 0 1 7.127-3.26zm68.807-129.55a5.93 5.93 0 1 1-4.609 2.306 5.245 5.245 0 0 1 4.609-2.306zm-84.048 37.91a7.906 7.906 0 1 1-.549-6.85 6.994 6.994 0 0 1 .549 6.85zm20.89-32.428a16.797 16.797 0 0 1 10.315-7.2c9.069-2.093 18.118 3.561 20.212 12.63 2.094 9.07-3.56 18.12-12.63 20.213-8.554 1.975-17.09-2.943-19.79-11.117-.284-.71-.519-1.453-.696-2.222a14.908 14.908 0 0 1 2.588-12.304zm0 0a16.804 16.804 0 0 0-2.315 13.013c.119.516.26 1.02.423 1.513 2.695 6.714 9.95 10.652 17.22 8.974 8.04-1.856 13.053-9.878 11.197-17.918C71.493 5.319 63.471.306 55.431 2.162a14.88 14.88 0 0 0-8.608 5.615zm-20.89 32.428a7.883 7.883 0 0 0-.549-6.85 7.01 7.01 0 0 0-12.167 6.876 7.009 7.009 0 0 0 12.716-.026zm84.048-37.91a5.912 5.912 0 0 0-4.61 2.307 5.258 5.258 0 0 0 8.2 6.528 5.256 5.256 0 0 0-3.59-8.835zM48.954 162.69a7.883 7.883 0 0 0 6.09-3.182 7.01 7.01 0 0 0-11.083-8.514 7.009 7.009 0 0 0 4.993 11.696zm-7.78-30.844a8.99 8.99 0 0 0-7.126 3.26 7.993 7.993 0 1 0 7.127-3.26zM5.707 76.73a8.99 8.99 0 0 0-.467 7.823 7.993 7.993 0 1 0 .467-7.823z" fill="#DF024A"/><ellipse fill="#0C66FF" transform="rotate(22 52.648 60.288)" cx="52.648" cy="60.288" rx="15.731" ry="35.304"/><g transform="translate(158.45 110.524)"><mask id="d" fill="#fff"><use xlink:href="#c"/></mask><path stroke="#121212" d="M12.53 8.448c-3.912 0-8.04-1.274-12.385-3.813l-.856-.5.912-.391C4.532 1.888 8.642.958 12.53.958c1.087 0 2.061-.036 3.659-.122 3.048-.163 3.88-.177 4.913-.003 1.483.25 2.292.978 2.292 2.302 0 3.18-4.735 5.313-10.864 5.313z"/><ellipse fill="#121212" mask="url(#d)" transform="rotate(8 13.704 2.73)" cx="13.704" cy="2.73" rx="2.934" ry="4.89"/></g><path d="M143.941 52.451c12.95-2.143 3.487-4.15 13.93-4.258 3.373-.035 14.865-.464 17.17-.901 1.322-.25 12.837 8.558 13.688 8.142.787-.386 5.54.686 1.856-9.677-3.683-10.364-8.737-12.858-9-13.499-1.222-2.99-8.253-7.588-11.374-10.42-2.444-2.218-17.103-7.727-20.688-8.697-.317-.086-9.605-1.676-9.929-1.756-12.365-3.066-21.01-2.04-26.183-2.04-4.864 0-12.585-2.91-28.404 3.538-1.639.667-9.882 4.45-11.494 5.249-1.427.707-7.262 5.61-8.648 6.43-2.205 1.302-3.167 7.29-5.205 8.902C44.269 45.637 36.52 68.547 38.028 85.57c.248 2.798-1.127 5.468-1.12 10.659.005 3.889-.841 5.68-1.072 10.197-.018.35 2.868 5.59 2.763 5.937-1.266 4.206-.96 4.488-.864 8.223.247 9.702 6.94 21.977 12.545 31.147 1.482 2.424 3.812 3.704 6.587 9.619 5.413 11.54 14.136-6.678 12.087-18.489-2.05-11.811-7.35-18.512-7.426-25.858-.166-16.153 11.974-21.82 17.248-15.392 23.868 29.09 37.565 27.88 36.306 10.668-.722-9.878 17.524-23.718 22.337-27.197 4.813-3.478 8.691-12.502 6.157-15.363-5.147-5.811-6.515-16.131.365-17.27zM181.352 100.536c-4.217-1.476-30.815-2.088-19.192-3.28 10.03-1.03 14.43-2.237 18.391-2.31 3.961-.073 8.018 3.785 6.854 4.25-2.519 1.005-1.199 3.039-6.053 1.34zm18.804-4.373c1.43-.849.267 3.863-1.354 4.756-2.04 1.122-4.49 1.46-4.49-.021 0-2.659 4.703-4.057 5.844-4.735z" fill="#DF024A"/><g transform="translate(71.4 95.853)"><mask id="f" fill="#fff"><use xlink:href="#e"/></mask><use fill="#2300FF" xlink:href="#e"/><path d="M122.175 17.728c-.272-2.839-.095-4.81.659-6.27.93-1.803 1.482-5.57 5.464-6.245 3.523-.598 5.287 9.876 5.096 11.772-.475 4.71-1.384 18.43-4.822 20.814-.231.16-.524-.235-.695-.412-2.097-2.159-5.43-16.82-5.702-19.66zm-13.664 23.915c-1.585 1.425-6.394-.855-6.859-6.321-.537-6.318.573-16.34.833-20.219.047-.687.063-.635.266-2.69.137-1.396 2.467-5.52 2.477-5.53 3.459-2.938 6.125-3.574 6.972-2.66 3.187 3.44 1.375 4.76 3.583 8.811.156.286.21 2.246.046 2.172-.108-.049-.936 9.517-.955 9.686-1.133 10.241-4.882 15.421-6.363 16.751z" fill="#42FFE2" mask="url(#f)"/></g><path d="M88.294 148.97c8.723 2.373 12.472-5.826 6.51-10.977-1.362-1.178.044-6.002-1.467-8.205-1.63-2.376-4.29-2.736-3.55-5.446 1.714-6.283-3.06-4.51-3.06-12.348 0-13.546-9.42-13.205-15.27-13.205-3.845 0-7.909 3.543-8.798 10.675-.463 3.714 1.311 9.822 2.72 15.682 4.218 17.543 16.86 22.177 22.915 23.824z" fill="#00CDAD"/><circle fill="#FFF" cx="90.957" cy="143.882" r="1.956"/><path d="M81.038 118.57c-.164-1.52.19-2.985 1.069-3.452 2.036-1.083 4.336-.778 5.245 3.656.906 4.418-1.26 3.944-2.974 3.916-.12.8-.497 1.676-1.226 2.585-2.904 3.626.455 7.301-3.3 6.052-4.142-1.378-4.879-3.484-5.05-7.006-.325-6.67 3.939-5.764 6.236-5.751zm-10.07-.346c-.575 10.232-2.624 3.578-3.966-4.478-1.34-8.057 4.876-10.068 7.003-10.068s11.067 3.596 8.364 7.538c-2.704 3.942-10.826-3.223-11.4 7.008zm19.016 12.998c-.448 4.26.947 4.279-.448 4.259-2.847-.041-4.518-6.077-2.863-6.957 1.655-.88 3.759-1.564 3.31 2.698z" fill="#009B83"/><path d="M191.208 150.838c1.787.188 3.756-.426 4.215-.947.46-.52-2.386.844-4.989-.651-2.603-1.495-3.742-.4-3.9 1.107-.16 1.507 2.886.304 4.674.491z" fill="#BB5800"/></g></svg>