<svg width="244" height="258" xmlns="http://www.w3.org/2000/svg" xmlns:xlink="http://www.w3.org/1999/xlink"><defs><path d="M17.833 11.49c3.104 0 3.473-2.196 3.473-3.146 0-1.823.404-3.256-4.026-2.541-2.954.476-6.174 1.557-9.662 3.245 3.95 1.628 7.355 2.442 10.215 2.442z" id="a"/><path d="M19.121 12.32c3.328 0 3.725-2.354 3.725-3.373 0-1.955.433-3.491-4.318-2.725-3.167.51-6.62 1.67-10.36 3.48 4.236 1.745 7.887 2.618 10.953 2.618z" id="c"/></defs><g fill="none" fill-rule="evenodd"><g transform="translate(208.145 82.52)"><path d="M18.063 4.363c4.045-1.088 4.38 2.647 4.411 1.048.031-1.6.089-6.466-5.896-5.205C10.592 1.468 2.222 7.281.193 8.526c-1.465.9 5.702-.804 11.764-2.643 2.335-.708 2.335-.505 6.106-1.52z" fill="#B200FE"/><path d="M18.063 4.363c1.43-.384 2.368.582 3.97.677 3.965.237.898-3.228.578-2.818-.154.196 1.825 2.409.692 3.28-.34.26-1.338.621-2.238.669-1.468.076-3.769-.441-6.555 0-3.973.628-8.45 1.971-9.465 1.973-1.08.002 5.52-1.84 6.912-2.261 2.335-.708 2.335-.505 6.106-1.52z" fill="#222935"/><mask id="b" fill="#fff"><use xlink:href="#a"/></mask><use fill="#FFF" xlink:href="#a"/><ellipse stroke="#00EDC8" stroke-width=".972" fill="#121212" mask="url(#b)" cx="19" cy="7.968" rx="1.199" ry="2.283"/></g><path d="M181.606 159.834c-4.129 9.77-9.699 19.628-17.354 28.698-22.555 26.725 6.65 27.085 30.37 10.68 6.937-4.796 9.658-17.331 9.837-31.288.005-.36.373 1.869 1.372 5.756.509 1.98 5.844 8.477 3.675 15.315-4.166 13.132-16.757 18.745-11.511 16.266 5.246-2.48 10.26-5.235 14.288-13.56 5.298-10.946.146-25.472.112-25.757-1.765-14.722-22.62-25.445-30.79-6.11z" fill="#FC0"/><path d="M175.476 188.133c2.074-4.816 5.009-9 6.505-11.952 2.3-4.54 4.735-4.255 4.735-8.85 0-16.156-4.175-45.423-20.946-45.423-7.224 0-34.537-11.97-42.263-2.907-10.21 11.978-14.85 43.75-14.85 52.947 0 5.962-17.027 23.512-13.847 28.137 3.413 4.962 19.791 19.02 56.472 13.418 14.488-2.212 22.58-21.621 24.194-25.37z" fill="#B200FE"/><path d="M215.28 54.304c12.735 0 7.61-14.982 7.61-21.803 0-4.215-3.943-7.937-9.96-10.165-1.783-.66-3.491-3.334-7.706-5.77-4.583-2.65-12.7-6.672-15.235-6.672-5.215 0-17.716-7.354-19.826-4.08-3.041 4.72 6.608 22.66 6.608 26.687 0 6.821 25.773 21.803 38.508 21.803z" fill="#FFF635"/><path d="M172.322 167.12c12.461 6.052 26.854 8.54 35.887 9.809.945.132 13.525.715 19.152-4.761 1.52-1.48 2.56-2.76 3.176-5.049.918-3.415.316-8.023.55-10.924.251-3.095.836-5.316 1.197-5.232 1.542.358 2.993-.911 3.81-3.014.22-.566.443-2.747-.332-4.274-.921-1.816-2.667-2.382-2.216-2.291.437.087 2.674-1.227 3.446-3.084.903-2.171.903-4.168.745-4.8-.158-.631-1.395-1.754-2.287-3.768-1.158-2.614-1.675-5.602-1.488-5.554.648.166-9.927-35.07-9.72-36.417.431-2.809 2.206-1.859 3.12-3.661.533-1.054.31-4.851.573-6.123.598-2.892 3.094-3.8 1.82-7.24-.799-2.156-2.898-8.942-3.032-10.27-.901-8.922-4.716-15.972-9.956-21.293-4.196-4.261-10.041-11.443-15.714-11.443-13.812 0-72.855 10.432-72.855 28.92 0 7.298-8.64 22.073-5.542 40.814 1.031 6.232-2.181 14.62 2.152 21.589 1.722 2.769 13.547 5.012 13.721 7.267.405 5.253.357 13.1 3.827 18.156 8.578 12.497 25.73 20.585 29.966 22.642z" fill="#DC3FFF"/><path d="M205.933 74.229c-6.227 0-22.73 8.116-22.73 4.554 0-1.826 7.254-4.06 10.796-5.513 3.365-1.379 4.178-3.392 7.211-3.392 1.325 0 3.033-1.13 4.723-1.068 1.738.063 3.465 1.32 5.256 1.52 1.245.14 2.521.104 3.631.42 3.039.868 5.417 2.997 5.417 4.48 0 1.125-.837 2.673-2.046 2.99-4.82 1.262-4.543-3.991-12.258-3.991zm24.633-2.42c.93-.552 1.544 2.721.831 5.163-.338 1.161-1.61 2.145-2.11 2.42-.738.407-.202-2.026-.884-2.42-1.126-.65-3.304.28-3.304-.605 0-2.551 4.373-3.907 5.467-4.558z" fill="#B7003C"/><path d="M232.284 150.963c1.542.358 2.993-.911 3.81-3.014.22-.566.443-2.747-.332-4.274-.921-1.816-2.667-2.382-2.216-2.291.203.04-5.521.37-9.78 1.21-4.232.836-6.16 2.988-8.964 3.98-.452.159-.747 1.68 1.378 2.302 2.556.748 7.27.196 10.709.528 3.233.313 5.273 1.53 5.395 1.56z" fill="red"/><path d="M233.546 141.384c.437.087 2.674-1.227 3.446-3.084.903-2.171.903-4.168.745-4.8-.03-.118-.397.309-1.3 1.06-.406.34-.957-.654-1.756-.436-2.894.79-4.51 2.14-8.43 4.176-1.37.712-4.822 1.64-7.386 3.444-1.13.795-2.592 2.336-4.385 4.623-1.033 1.002 1.312.008 7.034-2.98 1.848-.965 6.552-1.48 7.91-1.643 2.513-.3 3.83-.42 4.122-.36z" fill="#BF002D"/><path d="M233.962 124.178c.648.166 6.698-3.36 8.946-6.985 2.073-3.34.421-6.74-.427-7.967-1.04-1.506-2.827-3.197-4.248-4.783-2.926-3.263-5.606-6.2-6.165-6.978-1.055-1.47-4.013-3.429-5.802-5.304-.504-.529-1.696-2.643-2.799-2.785-.83-.107-1.93.292-1.14 4.633 1.087 5.959 8.994 14.825 0 17.86-1.668.563-4.63 3.537-3.724 7.348.907 3.811 4.687 4.385 5.934 4.42.853.023 2.304-.665 3.199-.609 3.007.188 6.208 1.145 6.226 1.15z" fill="#0C66FF"/><path d="M233.59 120.905c4.005-.389 3.734-.582 3.734-1.3 0-.718-1.672-1.3-3.735-1.3-2.063 0-7.452 2.613-7.452 3.33 0 .719 3.446-.341 7.452-.73z" fill="#160680"/><ellipse fill="#B200FE" cx="179.369" cy="104.004" rx="2.598" ry="3.25"/><path d="M115 95.416c3.868 0 12.473-3.12 32.711-8.035 8.46-2.054 11.199-20.758 16.932-19.668 1.78.338 5.651-7.136 7.468-7.181 1.88-.047 4.962-9.027 6.824-9.31 2.233-.338 6.774-8.282 8.846-8.755 2.016-.46 3.002-3.08 4.825-3.63.736-.222 4.38-.64 4.38-2.772 0-2.132 5.006-1.483 6.366-2.096 1.332-.6 4.605 1.234 5.472.555 1.26-.987 4.423 1.937 4.423.65 0-4.316-13.175-17.66-24.637-23.942-8.083-4.43-15.332-5.07-23.967-7.878C150.393-1.28 140.191.325 134.225.325c-7.119 0-12.81 3.008-19.224 6.599-6.84 3.828-13.705 9.875-17 15.827-1.017 1.835-7.82 9.258-14.865 25.094-5.789 13.011-10.202 25.843-16.685 42.27-3.998 10.133-11.27 25.452-17.792 44.98-2.603 7.797-3.976 17.237-6.41 25.949-1.583 5.669-4.009 10.746-6.17 15.83-3.22 7.571-8.497 12.965-11.79 19.892-13.431 28.261-23.364 53.951-21.694 54.79 2.39 1.202 15.674-18.775 35.945-30.773 31.034-18.367 73.84-35.773 88.052-46.843 14.968-11.658-3.8-38.266-11.591-56.299-6.3-14.58-.918-22.225 0-22.225z" fill="#FC0"/><path d="M109.448 95.52c1.59 0-3.128-4.188-5.114 7.607-2.84 16.874.79 51.091-24.873 76.717-26.931 26.894-24.96 18.577-47.662 32.975-26.127 16.569-35.94 57.84-29.194 41.236 6.746-16.604 17.662-25.268 30.965-31.561 18.707-8.85 60.855-12.633 70.764-20.351 14.968-11.658 12.905-64.168 5.114-82.2-6.3-14.58-.918-24.423 0-24.423zM191.103 33.158c8.211-4.099 26.15 6.383 24.08 1.969-2.07-4.414-14.748-12.115-24.08-9.09-14.056 4.556-23.396 21.472-33.953 31.07-12.604 11.457-43.297 21.102-48.226 22.364-4.93 1.261 42.63-11.513 59.751-23.877 9.314-6.726 17.215-19.834 22.428-22.436z" fill="#FFF635"/><path d="M148.348 107.487c8.182-4.12 10.2-32.509 13.237-38.358 3.038-5.85-8.905 15.621-18.237 18.646-14.057 4.557-19.072-10.83-29.63-1.233-7.194 6.54-7.62 14.16-6.843 15.35.586.895 3.022-5.51 10.37-10.816 9.312-6.726 13.564 25.24 31.103 16.41z" fill="#FFF635"/><g transform="translate(104.851 87.308)"><path d="M30.467 40.48c2.062-2.432.05-5.094-1.096-8.39-.245-.706.083-2.77-.54-3.743-.803-1.251-2.34-1.099-2.906-2.64-.958-2.606-.214-4.663 0-5.271.804-2.287-1.872-.771-2.46-2.059-.634-1.387.734-1.402.734-4.528C24.2 3.432 15.65 0 10.36 0 5.07 0-2.526 6.563.825 19.97c3.663 14.66 10.37 17.192 17.588 20.51 3.383 1.554 9.602 2.89 12.054 0z" fill="#0C66FF"/><path d="M4.624 20.196c.788 1.795 4.505 7.274 7.3 10.66.435.528 2.77-.466 3.085 0 .439.651 2.027 1.945 1.633 2.615-.427.727-.427.864-2.892.864-.596 0-5.334-4.13-8.61-9.579-2.005-3.335-3.03-7.18-3.136-9.156-.37-6.84 1.531-11.16 7.71-12.418C15.895 1.925 21 5.855 17.718 9.548c-1.124 1.265 2.462 1.624-2.708 3.384-1.582.539 0-7.982-3.727-6.699-1.01.348-5.102 0-6.142 1.626-2.164 3.383-1.493 10.109-.516 12.337zm20.56 10.824c-.95-.184-2.856-.518-4.307-1.244-1.347-.674-2.221-1.76-3.587-1.499-1.556.299-3.058.34-4.001.057-2.937-.88-3.923-2.725-4.045-4.976-.126-2.33 2.228-5.214 3.34-6.061.935-.714 5.604-3.407 6.207-4.279.772-1.115.177 1.728.108 4.802-.049 2.182-6.265 5.047-6.315 6.43-.016.44.948 1.529 3.574.45 1.865-.766 4.847-3.206 7.66-5.142 1.61-1.108-2.112 2.1-2.442 5.507-.122 1.262 4.766 2.18 5.708 3.212.602.66.702 3.249-1.9 2.743z" fill="#1A02B2" opacity=".6"/><ellipse fill="red" cx="25.968" cy="37.768" rx="3.43" ry="3.433"/><ellipse fill="red" cx="6.369" cy="25.996" rx="2.45" ry="2.452"/></g><g transform="translate(187.428 82.105)"><path d="M19.368 4.678c4.337-1.166 4.697 2.839 4.73 1.123.033-1.715.095-6.932-6.323-5.58C11.358 1.574 2.383 7.807.207 9.143c-1.57.964 6.114-.863 12.614-2.835 2.504-.76 2.504-.542 6.547-1.63z" fill="#9500D4"/><path d="M19.368 4.678c1.534-.412 2.539.624 4.257.727 4.25.253 1.12-2.735.777-2.296-.214.274 2.457 2.98-1.738 3.199-1.574.082-4.118-.164-7.106.308-4.26.674-9.06 2.115-10.149 2.117-1.157.002 5.92-1.973 7.412-2.425 2.504-.76 2.504-.542 6.547-1.63z" fill="#222935"/><mask id="d" fill="#fff"><use xlink:href="#c"/></mask><use fill="#FFF" xlink:href="#c"/><ellipse stroke="#00EDC8" stroke-width=".972" fill="#121212" mask="url(#d)" cx="20.373" cy="8.543" rx="1.321" ry="2.483"/></g></g></svg>