<svg width="168" height="257" xmlns="http://www.w3.org/2000/svg" xmlns:xlink="http://www.w3.org/1999/xlink"><defs><path d="M1.271 97.322c1.32 0 4.402 5.335 14.654 28.984 4.365 10.07 1.436 31.095-.668 40.17-3.074 13.26-12.131 18.743-12.278 23.946-.203 7.184 9.546 13.493 17.311 19.271 13.39 9.964 71.491 14.772 69.974 2.868-.505-3.965-1.071-7.565.66-12.998 1.3-4.078 5.696-9.929 6.96-13.656.886-2.613-.22-5.106.241-7.1.637-2.75 1.737-4.57 2.456-4.628 14.84-1.188 30.93-1.473 35.697-11.443 2.53-5.292.7-13.225.892-18.224.107-2.786.349-3.613 1.608-5.235 1.26-1.622.958-4.745 0-5.61-.619-.558-2.378.16-.889-.91 1.07-.77 2.923-2.657 3.555-4.48 2.083-6.012-.53-12.237 0-12.18 1.264.136 8.934-3.811 10.047-4.293 9.907-4.295-.488-19.212-8.48-32.248-.297-.485 1.682 2.601 1.397 2.096-1.088-1.93 2.437-8.632 3.319-8.986 2.39-.96 4.463-5.634 3.764-12.514-.698-6.873-2.712-9.968-7.083-21.003-2.11-5.33-6.505-20.22-10.04-24.281-6.405-7.361-18.894-14.46-21.826-13.83C101.283 3.458 56.3 3.274 52.82 3.274c-8.837 0-20.264 29.085-20.264 39.302 0 10.217-40.12 54.746-31.284 54.746z" id="a"/><path d="M15.007 6.866c5.523 0 6.918-1.293 6.918-3.778 0-2.485.785-4.02-6.09-2.455C8.961 2.198 0 .603 0 3.088s9.484 3.778 15.007 3.778z" id="c"/><path d="M15.007 6.866c5.523 0 6.918-1.293 6.918-3.778 0-2.485.785-4.02-6.09-2.455C8.961 2.198 0 .603 0 3.088s9.484 3.778 15.007 3.778z" id="d"/></defs><g fill="none" fill-rule="evenodd"><g transform="translate(11 37)"><mask id="b" fill="#fff"><use xlink:href="#a"/></mask><use fill="#FFA726" xlink:href="#a"/><path d="M96.382 108.397c-2.912 0-1.86-3.496 1.211-3.73 1.532-.118 1.692-.189 3.885.609.518.188 2.022 2.843 2.578 3.121 1.815.909 4.559.037 6.803 2.248 1.095 1.078 4.097 5.017 2.813 8.703-.079.225-.043-3.006-1.472-4.86-.43-.558-2.264-.36-2.715-.909-1.2-1.46-1.59-2.728-2.295-2.934-4.094-1.198-9.177-2.248-10.808-2.248zm10.903 30.452c-6.558.575-1.969-1.122-1.38-3.556.587-2.434.507-4.698 1.405-4.698s1.503 1.847 1.503 3.943 5.03 3.737-1.528 4.311z" fill="#F27300" mask="url(#b)"/><path d="M136.66 146.939a70.428 70.428 0 0 1-2.672 1.732c-5.531 3.423-8.578-2.925-12.498-8.378s4.425 1.88 13.538 1.88 11.014-12.856 11.014-7.333c0 3.55-2.696 6.838-6.091 9.643 6.694 8.418 8.392 28.228-9.151 28.48-19.012.274-25.355-2.552-33.453-12.282-2.757-3.312 7.148-9.217 8.463-12.582 2.626-6.722 1.705-11.317 4.036-10 5.104 2.883 1.35 2.384 4.764 7.006.664.9 4.368 3.794 5.281 5.02 4.323 5.797 2.42 3.178 14.463 3.355 1.62.024 2.035-3.448 2.306-6.541zm-3.46-20.669c-13.21-2.27-15.876 3.613-21.725 6.424-1.638.787 1.31-8.82 2.651-9.706 8.912-5.882 7.928-6.629 17.041-6.629S148.043 115.954 147 124c-.587 4.525-1.313 2.857-4.109 2.27-2.176-.456-5.943.645-9.69 0z" fill="#B916FF" mask="url(#b)"/><path d="M145.948 76.666c4.51.538 1.733 4.268 1.791-.765.06-5.032.252-3.34-1.351-3.782-1.604-.44-3.298.394-4.8 1.628-1.503 1.234-.15 2.382 4.36 2.92z" fill="#F27300" mask="url(#b)"/><path d="M146.902 132.658c10.177 1.907 22.418 2.902 13.668-.745-29.294-12.207-8.526-4.03-22.187-3.506-1.958.075-3.483-.87-5.085-1.04-2.318-.245-1.998.708-6.166 2.311-3.358 1.293-11.832.994-12.196 2.642-.235 1.064 4.682.626 7.713.338 3.031-.288 9.982.17 13.096.577 3.467.452 4.035-1.912 11.157-.577z" fill="#BF002D" mask="url(#b)"/><path d="M146.902 132.658c10.177 1.907 22.418 2.902 13.668-.745-29.294-12.207-6.095 6.798-19.755 7.322-1.959.076-5.267-.203-6.683-.472-3.129-.595-4.331-3.116-9.22-3.637-5.33-.568-9.504-1.492-9.976-2.806-.38-1.063 4.682.626 7.713.338 3.031-.288 9.852.177 12.966.583 3.467.453 4.165-1.918 11.287-.583z" fill="red" mask="url(#b)"/><g mask="url(#b)"><use fill="#FFF" xlink:href="#c" transform="translate(135 75)"/></g><path d="M180.538 120.434c23.748 0 36.39-14.747 36.39-21.099 0-3.829-56.468.35-72.202-17.353-3.933-4.426-6.508-17.889-8.803-18.177-2.295-.288-1.488 7.257-1.41 11.012.18 8.566-1.52 14.465-4.044 19.654-2.981 6.13-6.812 7.062-7.218 11.91-.361 4.311 2.641 6.47 5.719 7.558 2.164.765 8.616.36 11.597.944 11.56 2.261 25.423 5.551 39.971 5.551z" fill="#E9034E" mask="url(#b)"/><path d="M139.096 110.76c2.761 0 10.816.893 7.687 0-3.128-.892-4.775-2.942-7.687-2.747-2.912.195-4.775 2.008-6.712 2.747-1.938.74 3.95 0 6.712 0z" fill="#950023" mask="url(#b)"/></g><path d="M92.484 69.462c-.644.425-1.305.842-1.981 1.248-1.87 1.123-3.577 2.116-5.178 2.974-.172.234-.364.485-.578.755-3.927 4.955 12.212 8.341-1.362 13.2-13.574 4.857-11.695 14.717-11.255 22.795.201 3.696-3.112 8.398-3.112 13.265 0 1.485-10.242 8.78-11.435-2.29-1.193-11.069-12.742-19.043-19.43-19.043-8.126 0-10.693 8.814-13.54 19.832-1.867 7.228 3.598 12.588 3.024 20.107-.516 6.759 1.88 14.816 1.387 20.003-.669 7.038 1.74 16.09 0 16.802-2.877 1.178-2.966-15.118-13.2-31.758-1.092-1.777-2.747-9.464-5.913-17.383-1.245-3.114-4.148-5.149-5.192-8.56-2.79-9.117-3.7-18.952-4.131-23.824-1.541-17.404 4.13-23.691 4.13-24.549 0-2.05.59-3.463 3.795-12.07C11.93 51.79 9.91 46.908 23.067 46.908c1.23 0 2.138-3.113 3.003-6.473-6.117-6.142-4.146-12.779-7.327-22.628-3.255-10.08 4.551 5.208 13.053 13.18 1.832-.988 4.015-2.62 5.304-5.749 1.101-2.673 3.29-2.743 5.223-2.437v-.15c0-11.598 7.03-14.285 15-21 6.74-5.68.929 4.306-1.022 14.539.181-.042.357-.084.529-.13C58.232 10.588 61.876 6.872 71 1.886c6.415-3.505 13.832-1.672 6.196 1.8-2.351 1.068-4.14 4.222-5.591 7.906l.026.008c2.78-2.556 7.285-4.169 15.328-5.613 7.323-1.316 13.102 1.78 4.493 5.062-2.197.837-3.868 2.077-5.14 3.587 7.761-.465 19.799-1.054 29.275 1.512 15.74 4.262 19.234 11.865 26.558 14.04 6.285 1.868 25.285 17.912 25.052 27.124-.232 9.212-14.107 5.7-17.416 8.257-3.308 2.558-11.096-6.427-19.38 0-18.905 14.668-16.141-6.65-26.731 2.375-9.125 7.776-9.758 3.896-11.186 1.518z" fill="#0C66FF"/><path d="M130.314 99.21c-1.77-.482-8.452-3.595-10.862-2.895-14.865 4.314-25.658 9.049-21.104 5.971 5.825-3.936 15.818-11.902 23.55-11.902 3.559 0 7.69 1.886 12.013 3.128 5.068 1.457 8.564 2.092 8.564 4.477 0 4.418-4.041 3.43-12.161 1.22zm32.97.285c1.28 1.109 1.295 5.83-1.907 5.377-2.91-.412-8.398 4.061-7.909 2.657 1.189-3.411 6.93-10.538 9.817-8.034z" fill="#B200FE"/><path d="M41.576 147.08c18.052 1.043 7.635-13.69 9.081-17.87 2.017-5.827-1.896-6.279-1.896-13.672C48.76 102.76 38.308 99 31.919 99c-6.388 0-14.83 8.253-9.288 23.863s12.22 23.83 18.945 24.218z" fill="#E9034E"/><path d="M26.198 120.805c-.746 10.46-2.19-.078-2.585-7.544-.395-7.465 6.068-11.633 8.83-11.633 2.761 0 15.083 7.603 11.574 11.633-1.202 1.38-3.273-.938-5.915-.993-1.75-.036-2.223-7.853-3.984-7.31-1.083.334-5.454-.001-6.566 1.773-2.313 3.693-1.137 11.033-1.354 14.074zm22.993 15.833c-.355 4.975-3.05-2.75-7.586-4.138-5.004-1.532-7.38.067-7.588-3.848-.214-4.053-.43-6.785 1.463-8.258 1.594-1.24 5.221-1.363 6.249-2.878 1.315-1.94.117 2.181 0 7.528-.083 3.795-.822 2.225-.908 4.632-.165 4.653 2.47-4.913 5.66-5.543 2.242-.442.367 1.179.33 6.221-.007.952 1.74 1.907 1.809 3.087.243 4.115.69 1.539.571 3.197z" fill="#950023"/><path d="M127.133 108.944c9.93-1.489 7.467 3.722 7.508 1.535.04-2.187-2.284-7.771-9.159-6.206-6.874 1.565-14.015 4.504-17.007 5.247-2.991.744 8.728.913 18.658-.576z" fill="#F27300"/><g transform="translate(112 110)"><mask id="e" fill="#fff"><use xlink:href="#d"/></mask><use fill="#FFF" xlink:href="#d"/><ellipse fill="#121212" mask="url(#e)" cx="14.5" cy="3" rx="2.5" ry="4"/></g><path d="M128.078 108.879c6.014 0 6.043 3.229 9.664-.88 3.621-4.11-.996.735-8.483 2.44-7.486 1.704-17.423-1.038-17.423 1.669 0 2.706 10.228-3.229 16.242-3.229zM156.11 112.342c2.1 0 6.2-2.83 3.884-.271-2.316 2.558-1.27-.15-3.884 1.335-2.614 1.484-3.491-3.646-3.491-1.29 0 2.357 1.391.226 3.49.226z" fill="#0C66FF"/></g></svg>