<svg width="174" height="247" xmlns="http://www.w3.org/2000/svg" xmlns:xlink="http://www.w3.org/1999/xlink"><defs><path d="M1.398 96.663c1.319 0 8.6 21.972 20.924 43.58 2.873 5.037 2.571 16.966 0 25.8-8.81 30.268-3.03 22.897 10.359 32.86 13.39 9.964 68.737 46.525 68.737 20.097 0-12.053 9.862-11.599 8.345-23.503-1.516-11.905 2.346-16.787 5.325-16.746 14.224.198 25.438.022 31.48-6.06 1.742-1.753 5.153-7.047 4.049-14.228-.97-6.305-2.956-5.36-2.764-10.36.107-2.786 3.263-8.146 3.764-11.374.272-1.755-1.44-3.162-3.764-4.632-.667-.422 1.516-.997 3.006-2.066 1.07-.769 1.393-2.198 1.862-2.122.868.142 2.331-4.731 1.008-8.697-.452-1.352-.153-3.447-1.008-4.529-1.666-2.108-4.585-2.683-4.055-2.626 1.264.135.635-1.842 1.794-1.788 6.992.322 11.036.2 12.768-2.954 5.3-9.652-5.567-15.92-13.49-29.98-1.089-1.93-.16-6.5.722-6.855 2.391-.96 3.967-5.026 3.269-11.906-.698-6.873-7.006-13.074-11.376-24.11-2.111-5.329-8.587-16.033-12.121-20.094C123.826 7.009 115.6-.25 112.668.379c-11.259 2.42-56.241 2.236-59.723 2.236-8.836 0-20.264 29.084-20.264 39.302 0 10.217-40.12 54.746-31.283 54.746z" id="a"/></defs><g fill="none" fill-rule="evenodd"><g transform="translate(9 18)"><mask id="b" fill="#fff"><use xlink:href="#a"/></mask><use fill="#FFF300" xlink:href="#a"/><path d="M119.912 142.719c2.877 1.831 6.642 3.59 10.728 5.048A6.417 6.417 0 0 1 130 145c0-5.523 7.387-10 16.5-10s16.5 4.477 16.5 10c0 3.463-2.904 6.514-7.316 8.309 8.644 6.099-2.275 25.656-21.831 25.938-39.64.57-57.84-12.163-78.94-26.823-15.162-10.534-2.654-18.594-3.652-35.958-.753-13.1-4.142-20.554-3.583-26.658.275-3.01 6.955-4.236 7.235-2.27 1.087 7.626 12.455 22.874 21.1 26.342 8.032 3.22 16.3 4.725 23.023 8.523 5.03 2.842 9.065 7.07 13.471 12.685 1.246-2.067 3.101-3.87 4.686-7.39.459-1.02 4.852-5.05 6.194-5.935 8.911-5.882 10-9.751 19.113-9.751S159 117.477 159 123s-8.356 2.341-17.469 2.341c-4.174 0-26.353 4.587-21.619 17.378z" fill="#00DDED" mask="url(#b)"/><path d="M147.849 130.913c10.177 1.908 30.953 5.616 30.137 1.757-2.811-13.3-14.633-5.731-27.407-7.086-2.318-.246-3.756-2.584-5.919-2.584-7.798 0-8.277 3.219-12.444 4.822-3.359 1.292-10.829.856-11.193 2.504-.235 1.065 1.355 1.62 3.613 1.865 1.878.204 6.067-1.865 8.986-1.865 4.269 0 7.104-.747 14.227.587z" fill="#BF002D" mask="url(#b)"/><path d="M185.61 117.599c23.748 0 36.39-14.748 36.39-21.099 0-3.829-50.044 5.422-65.778-12.282-10.638-11.97-17.665-25.503-17.376-15.662.638 21.719-11.81 27.798-9.485 36.978.529 2.089 2.49 3.908 5.568 4.997 2.163.765 7.677-1.743 10.658-1.16 11.56 2.262 25.474 8.228 40.022 8.228z" fill="#D100FF" mask="url(#b)"/><path d="M147.849 130.913c10.177 1.908 30.953 5.616 30.137 1.757-2.811-13.3-11.907 5.79-24.68 4.436-2.319-.246-7.034 0-9.198 0-7.798 0-6.645-3.3-11.292-3.362-8.62-.115-11.855-1.78-11.793-3.418.094-2.485 1.355 1.62 3.613 1.865 1.878.204 6.067-1.865 8.986-1.865 4.269 0 7.104-.747 14.227.587z" fill="red" mask="url(#b)"/></g><path d="M92.268 28.86c13.239-2.191 23.977-.736 34.655-.847 3.448-.036 10.518 5.211 12.875 4.764 1.351-.256 2.485-.59 3.355-1.017 1.729-.846-.475-8.351-.976-9.577-2.907-7.107-10.17-14.52-25.91-18.783C103.56-.04 85.428 1 80 1c-4.973 0-21.793.62-37.967 7.212-1.675.682-2.367 3.768-4.014 4.585-1.46.724-3.878-.837-5.295 0a58.477 58.477 0 0 0-6.527 4.463c-15.735 12.446-23.8 38.897-23.8 43.132 0 .858-2.581 22.193-1.04 39.598 1.003 11.327 8.052 25.234 9.663 30.211 1.003 3.098 7.728 15.834 13.46 25.21 3.48 5.69 6.812 19.28 9.69 18.102 1.739-.712.024-5.748.693-12.785.493-5.188-5.16-12.615-4.644-19.373.574-7.52-7.607-25.576-5.74-32.804 2.847-11.017 14.406-16.459 22.532-16.459 6.688 0 8.874 25.312 10.935 20.12 1.725-4.345 7.198-3.13 7.198-4.615 0-15.505 1.387-21.408 5.167-36.85 2.377-9.711 15.738-11.184 19.665-16.14 3.928-4.954-27.4-13.35-24.832-15.037 8.171-5.365 20.089-9.546 27.124-10.71z" fill="red"/><path d="M132.536 79.453c7.732 0 13.463 1.315 13.463-3.103S135.432 66 127.7 66C119.969 66 107 71.932 107 76.35c0 4.418 17.804 3.103 25.536 3.103zM162.823 73.694c-4.836-4.195-10.53 1.262-10.53 5.68 0 2.461 5.708 5.507 9.096 3.642 2.695-1.483 3.576-7.464 1.434-9.322z" fill="red"/><path d="M129.5 108c3.45 0 9.223.474 11.933-1.298 4.884-3.193 6.992-14.74 6.992-21.133 0-.61-.023-1.193-.067-1.749-.03-.363-.465-1.234 1.402-.438.71.303 5.04 5.377 9.02 11.655 4.116 6.493 8.074 14.05 10.926 15.385 2.57 1.201 3.534-17.595 3.523-17.653-.096-.483 1.046-7.01-1.03-10.2-1.324-2.038-2.493-3.154-6.858-3.154-1.421 0-5.216.52-8.017 1-1.671.286-2.59 1.355-3.872 1.155-4.282-.669-6.426-2.753-6.605-3.061-2.533-4.357-8.175-6.053-17.347-7.455-3.156-.482-10.687-1.576-13.501-.285-.185.084-82.096 20.533-82.237 20.639-.916.686-7.266 4.135 3.722 2.706 6.201-.806 75.753-16.373 75.698-15.605-.3 4.17 1.23 7.223 1.23 11.491 0 5.881.467 11.375 4.018 14.66 2.452 2.267 7.123 3.34 11.07 3.34z" fill="#2B00FF"/><path d="M45.028 144.292c20.155-.832 7.1-12.039 8.726-16.736 2.266-6.548-7.34-9.333-7.34-17.642 0-14.36-9.87-19.252-17.05-19.252-7.18 0-15.13 9.272-8.901 26.815 6.228 17.543 17.005 27.127 24.565 26.815z" fill="#3A71FF"/><path d="M25.157 113.751c-.746 10.461-3.748-.156-4.143-7.621C20.618 98.665 28.91 96 31.672 96c2.761 0 10.854 5.231 7.345 9.261-3.509 4.03-13.113-1.97-13.86 8.49zm24.852 15.913c-.355 4.975-3.918-1.985-8.456-3.374-5.003-1.532-9.325-3.344-9.532-7.26-.396-7.465 4.977-10.03 7.739-10.03 2.761 0 7.882 7.736 4.373 11.766-3.51 4.03 6.622-1.563 5.876 8.898zm-18.863-4.612c1.346 7.097 14.298 18.589-3.164 2.48-3.39-3.128-3.946-9.954-1.185-9.954 2.762 0 3.004.378 4.35 7.474zM153.938 126.203c2.761 0 6.454.219 7.072-.568.618-.786-3.991-3.008-8.13-3.604-4.14-.596-6.12.86-6.12 2.969s4.416 1.203 7.178 1.203z" fill="#2300FF"/></g></svg>