<svg width="195" height="250" xmlns="http://www.w3.org/2000/svg"><g fill="none" fill-rule="evenodd"><path d="M135.484 247.55c8.04-3.19 8.328-28.446 6.965-41.74-.358-3.494 4.1-1.76 6.923-1.661 13.74.482 24.71-16.697 24.71-27.37 0-3.78-1.472-11.277 3.51-27.434.598-1.942 4.72-11.531 5.125-18.425.515-8.761-2.421-14.805-3.366-17.549-6.884-19.984-.952-24.53-.825-30.419.065-3.03 1.219-3.597 0-6.514-1.335-3.195-7.161-9.464-11.08-16.771-4.902-9.141-8.16-17.096-11.271-19.945-6-5.494-11.819-2.431-13.726-5.885-10.833-19.625-47.597 15.63-57.55 15.63-19.853 0-44.554 53.115-44.554 75.224 0 6.45 8.796 16.567 14.294 38.143 1.255 4.924 1.759 13.434 2.492 24.67.734 11.236-4.057 20.43 0 28.373 4.057 7.942 14.475 17.51 31.886 26.43 17.578 9.006 38.45 8.422 46.467 5.242z" fill="#F0FF35"/><path d="M34.471 102.231c1.143 0 79.614-25.303 79.614-26.301 0-.999 1.142-8.908 0-8.908-1.143 0-80.793 32.427-80.793 33.426 0 .998.037 1.783 1.18 1.783z" fill="#A30A4C"/><path d="M137.518 109.46c8.208 0 12.512-1.62 14.634-4.85 2.601-3.957 5.1-10.35 5.1-15.298 0-.064.48-1.182 1.961-1.092.37.022 1.301-.042 1.592 1.092.212.825.901 2.772 1.11 3.166.58 1.102.828 1.677 1.88 2.896 1.725 1.998 7.953 14.602 11.893 17.74 4.995 3.976 13.6 1.38 13.604.731 0-.144 1.923-3.321 2.944-7.867.927-4.129.95-9.538 1.153-11.97.102-1.223 1.046-1.75 1.07-2.995.042-2.274.711-4.282 0-6.25-1.705-4.706-10.17-6.294-11.753-6.85-4.526-1.593-13.74-1.593-18.912 3.51-2.31 2.281-7-2.02-7.22-2.208-3.043-2.592-9.129-8.9-19.056-11.221-9.867-2.308-17.171.051-19.61 0-2.356-.05-3.313-1.436-3.841-.743-.959 1.26-5.888 5.017-5.206 10.112.239 1.78 4.908 1.355 5.206 4.06.489 4.438 2.61 15.81 6.89 22.037 2.854 4.151 10.055 6 16.561 6z" fill="red"/><path d="M137.814 106.673c-3.921 0-9.58-1.316-13.019-4.937-1.562-1.646-3.79-7.365-4.789-13.373-1.047-6.296-.802-12.888.467-14.5 3.175-4.032 11.848-2.582 16.098-2.582 4.688 0 10.561 4.104 13.73 8.781 1.95 2.876 2.369 5.631 2.369 8.781 0 3.848-.69 10.64-3.139 13.953-2.815 3.81-7.669 3.877-11.717 3.877zm41.669 6.139c-3.49 0-8.858-7.129-11.283-14.697-2.14-6.684-1.629-13.824-.614-15.075 2.152-2.65 8.621-1.945 11.897-1.945 3.533 0 7.097 1.623 9.275 4.649 1.874 2.601 2.621 6.314 2.621 10.072 0 3.854-1.055 12.097-3.014 14.721-2.173 2.912-5.427 2.275-8.882 2.275z" fill="#A30A4C"/><path d="M82.949 184.038c1.498 0 7.32 3.696 16.089 7.972 1.365.666 2.471 2.461 4.129 2.878 1.402.352 3.348-.694 4.64 0 1.444.777 2.622 3.917 4.475 5.009 1.407.828 3.529-.45 4.567.516 2.044 1.904 2.388 4.145 4.626 5.367 2.446 1.337 4.652.71 7.098 1.275 1.838.425 2.05 2.045 3.79 2.523 2.162.594 5.79.007 7.35 0 1.273-.006 6.173.975 9.059 0 1.807-.61 1.34-3.248 3.297-3.474 2.313-.267 3.266 2.236 5.172 2.399 2.374.203 5.491-1.946 6.009-2.723.297-.445 1.983-1.001 3.428-2.784.447-.552.001-1.97.684-2.583.83-.744 2.405.233 3.857-.516.86-.444 1.437-2.553 1.888-3.1 1.056-1.278.761-3.178 2.195-4.787.999-1.12 3.855-1.992 4.313-2.87.558-1.068-.21-1.06-.219-1.776-.017-1.233.355-2.873.22-3.326-.247-.822.438-3.365 0-5.319-.497-2.21-2.169-3.817-3.41-4.147-2.047-.543-5.07-2.314-7.812-1.766-4.077.816-7.416 3.687-11.153 4.88-3.624 1.157-7.71.66-7.71 0 0-.479-3.764.325-6.772-1.033-1.425-.643-1.134-2.42-3.059-3.847-1.22-.905-4.24-3.092-6.203-3.385-2.27-.338-3.5 1.22-4.924 0-3.469-2.97-3.748-8.933-7.098-9.814-2.478-.65-3.292 4.974-6.8 6.715-1.27.63-5.07.854-6.572 1.83-1.678 1.09-1.072 2.9-2.75 2.82-2.97-.145-5.7-3.841-7.332-4.65-.997-.494-1.33-2.51-2.227-3.086-1.46-.936-3.402-.49-4.621-1.581-.698-.625-2.208.657-2.836 0-.674-.707-.461-3.355-1.061-4.082-.573-.693-1.673 2.732-2.184 2.034-1.09-1.484-1.489-7.083-2.347-8.478-.882-1.433-2.035 3.028-2.74 1.843-.55-.925-.68-7.56-1.16-8.25-3.013-4.345-2.71-17.7-5.405-21.94-.89-1.4.327-4.55-.509-5.86-.68-1.066-1.642-2.31-1.68-3.608-.029-.963.806-1.973.779-2.87-.035-1.145-.19-2.168-.78-2.9-3.695-4.593-6.906-1.11-8.664-1.11-1.67 0-1.296 4.311-1.315 8.036-.005.843-.652 2.443-.483 3.124.136.55 1.1.185 1.073.81-.04.91-.96 1.97-.59 3.497.628 2.601 1.409 5.408 2.267 8.291.447 1.501 2.233 2.809 2.718 4.328.473 1.481-1.074 1.481 0 4.709.39 1.174 1.153 2.528 1.237 3.895.062 1.014-.496 2.02-.554 3.054-.095 1.717.708 2.222 0 4.132-.681 1.84-2.882 5.097-2.53 6.257 1.234 4.067 8.522 3.994 8.522 5.623 0 8.558 3.019 21.848 10.018 21.848zm76.274-41.106c-.437 0-1.357.854-2.666 1.095-.766.14-1.675-.462-2.671-.155-.358.11-1.277.412-1.56 1.291-.324 1.01-.013 2.617-.483 2.813-.698.292-1.858-2.576-2.613-2.185-1.67.864-3.957 3.672-5.813 5.13-1.974 1.548-3.374 2.823-4.93 2.935-.42.03-2.337 1.826-2.7 1.305-.514-.735-1.164-2.664-1.704-2.039-.736.853.634 3.727 0 5.11-1.52 3.313-2.988 6.142-2.988 5.558 0-.517.27-5.374 0-7.79-.062-.546-2.904 5.594-3.164 5.315-.13-.139-.62-2.636 0-4.563.51-1.589 2.137-2.653 2.167-2.896.09-.716-.748-1.172-.48-1.876.335-.877 1.828-1.99 2.46-2.746 1.52-1.816 3.055-3.901 4.868-5.207 1.239-.892 2.678-.395 3.989-1.095 1.357-.725 1.167-2.852 2.482-3.759 2.035-1.403 5.524-1.66 7.274-3.042 3.11-2.458 5.759-8.93 6.41-8.93 1.693 0 4.407 2.351 6.125 4.869.972 1.423 5.883-3.65 5.883-2.434 0 .383.887 2.673 2.742 5.164 1.224 1.643 3.32 2.963 4.256 5.336.645 1.636 1.829 3.385 2.1 5.027.533 3.213-1.266 6.233-1.034 8.693.195 2.062 1.352 4.14 1.188 4.376-.073.106-.655 1.227-1.188 3.083-.367 1.28.198 6.16-.261 6.04-.429-.112-.805-2.809-2.073-3.565-.407-.243-1.796-.866-1.927-2.116-.073-.704 1.1-2.086.993-2.537-.296-1.243-1.552-1.121-1.652-1.307-.529-.987.404-1.89 0-2.999-.154-.423.712-1.758.66-2.349-.054-.594.268-3.268 0-3.814-.473-.961.129-1.612 0-2.683-.095-.776.566-1.47 0-1.958-.476-.408-1.609.113-2.76 0-1.151-.113-2.321-.86-3.163-1.095-1.192-.333-.766-1.474-1.742-1.43-1.498.068-1.7 1.26-2.93 1.43-1.625.224-2.872 0-3.095 0zm5.88 29.635c-1.504 0-2.118-2.194-3.135-3.146-1.11-1.036-4.727-1.462-4.727-3.099 0-1.378-5.389-4.181-4.571-5.165 1.043-1.256 9.533-1.033 11.296-1.033 2.118 0 6.484-.166 7.463 1.55.474.828-1.774 3.11-1.774 4.132 0 3.138-1.41 6.761-4.553 6.761z" fill="#0C66FF"/><path d="M56.763 189.537c1.938 7.619.59-20.004-2.516-28.894-3.714-10.631-5.244-15.968-6.85-18.066-1.179-1.541-18.496-33.622-11.608-42.991 2.16-2.937 7.086-.425 10.586.953 2.292.902 5.463 3.665 7.872 3.635.951-.012 2.691 1.936 3.651 1.787.767-.12 2.496 3.968 3.265 3.763 1.725-.462 3.031 1.658 4.743.756 1.029-.543 5.148.696 6.169 0 .772-.528-.763-2.95 0-3.569 1.268-1.029-1.237-13.697 0-14.923.623-.618 1.535-6.073.89-8.713-.35-1.436 1.382-2.926 5.866-6.84 3.128-2.73 7.649-8.368 13.518-8.699 10.732-.604 26.504-3.277 14.995 0-12.686 3.612-25.156 5.455-21.575 5.673 5.106.312 13.352-1.405 22.462-3.767 11.125-2.885-17.153 4.74-15.882 6.043.662.678 30.666-7.177 20.44-3.339-11.143 4.181-22.714 4.179-21.887 4.09 6.563-.709 13.035 3.93 21.887 2.89 8.109-.951 15.706-6.762 19.925-5.917 6.6 1.322 15.35-5.849 23.752-15.298.305-.343 8.665-5.457 4.928 4.693-1.706 4.633-18.24 11.477-17.368 11.662 1.344.286 16.793-2.12 22.098-11.662 5.304-9.541 3.834-9.955 4.531-8.94 2.768 4.027-2.601 16.484-1.585 15.778.616-.428 9.985-7.02 9.089-11.531-.32-1.61-3.135-5.847-1.784-6.987 2.065-1.743 8.577-.195 7.165-1.899-1.47-1.772-9.225-6.17-9.062-6.465 3.367-6.11-9.61-6.299-8.354-6.76 3.65-1.342-16.456-11.98-14.514-13.426 2.574-1.92-13.805-5.247-13-6.951 1.89-4.004-19.2-3.807-19.937-7.512-.598-3.01-5.999-1.153-10.079-3.217-1.159-.587-9.392-4.955-12.8-4.824-3.755.143-2.685 4.82-3.445 4.824-2.958.013-18.394.134-22.806 1.926-1.783.723 3.838-.369 5.401 1.291 1.48 1.571-7.2 2.296-9.038 3.253-3.913 2.036-9.043.762-12.725 2.878-2.21 1.27-11.644-.164-13.195 1.38-2.732 2.72 7.532 2.294 8.283 5.138.734 2.785-8.07 8.874-8.283 8.574-.263-.371-5.93-2.588-10.198 8.138-2.01 5.053-7.843 6.557-10.1 9.466-5.651 7.286-7.662 17.488-7.904 17.246-1.463-1.464-6.907 3.96-7.768 11.474-.307 2.684 2.738 3.25 3.31 5.945.88 4.132-.479 9.976-.704 10.385-.124.227-7.111 9.412-6.595 12.186.16.861 7.33-8.665 7.769-7.854.551 1.021-.881 4.343-.47 6.18.33 1.465 1.758-.971 2.293.542.143.403-.908 3.381-.778 3.87.457 1.714.14 1.18.778 2.812.294.75 1.899-.435 2.165.756.488 2.182-3.338 8.035-2.943 9.17.415 1.19 6.538-1.387 6.707 0 .123 1.006-1.713 4.176-1.374 5.1.697 1.892 2.425 3.318 3 5.217 1.072 3.534-.373 8.295.622 10.391 1.177 2.48 5.827-1.134 5.827-.85 0 2.262.064 5.557 1.301 7.525.123.196-2.613 3.154-2.457 3.336.105.123 6.114-5.581 6.224-5.454.105.121-3.036 3.652-2.923 3.772.108.116 1.103-.446 1.214-.327.115.124-.12.773 0 .899.232.242.175.19.418.44.113.118-.851 2.979-.418 2.426.433-.552 3.153-3.938 3.327-3.765.165.164-1.404 3.231-1.233 3.397 1.338 1.302 2.838 2.67 4.44 4.167.224.209 1.072.46 1.06 1.132-.011.717-1.909 2.869-1.434 2.76.69-.16 6.512-6.476 6.844-6.108.152.17-4.333 5.18-4.197 5.374.727 1.04 1.185 2.981 2.301 3.44.34.14 1.652-1.865 1.896-1.534.247.335-1.046 3.37-.743 3.645.274.248 1.784-2.787 2.187-2.685.809.203.604 3.435 1.121 3.963.253.258-1.384 2.311-1.121 2.548.173.156 5.115-6.655 5.297-6.511.395.312-4.142 8.158-3.775 8.521.411.407 5.636-7.189 6.111-6.839.267.197-2.94 5.148-2.688 5.38 1.958 1.812 2.893 3.796 4.469 5.815 3.243 4.154 4.644 9.698 5.92 14.712z" fill="#1E00DD"/><path d="M144.974 123.452c2.458 6.763 9.576.458 16.233 1.696 5.47 1.017 5.673 3.256 9.518 2.46 2.63-.545 3.117-3.487 5.48-8.34 1.424-2.922 2.97-5.06 3.174-7.69.313-4.017-3.828-5.73-4.577-6.375-1.761-1.52-3.533-2.561-4.077-3.533-3.652-6.522-11.097-15.297-14.238-15.297-2.267 0-1.49 5.332-2.148 10.422-.209 1.615-.62 7.6-2.787 11.932-1.251 2.501-2.87 3.33-5.173 7.001-2.364 3.771-2.082 5.86-1.405 7.724z" fill="#FE9802"/><path d="M159.73 123.428c-3.707.612-7.06 1.68-7.06.539 0-.547.913-1.754 2.436-2.838 1.655-1.18 3.955-2.219 4.624-2.219 1.286 0 7.421-.561 7.421.58 0 1.14-3.713 3.326-7.42 3.938zm14.074-2.052c.517.516-1.012 3.168-3.12 4.278-1.837.596-2.778.096-3.295-.42-.25-.249 1.3-1.073 3.041-2.246 1.876-1.263 3.105-1.88 3.374-1.612z" fill="#A8690C"/><path d="M34.471 102.231c.584 0 21.32-6.594 41.48-13.183 19.332-6.317 18.698-14.455-.671-6.516-20.716 8.49-41.988 17.4-41.988 17.916 0 .998.037 1.783 1.18 1.783z" fill="red"/><path d="M47.833 144.952c.892 0 3.86 3.2 7.356 3.68 2.424.333 5.773-1.788 6.082-2.454.63-1.362 1.767-3.413 1.315-5.773-.316-1.65-1.547-1.063-2.249-2.987-.688-1.886 2.441-4.048 1.69-6.22-.81-2.346-1.257-8.2-3.323-8.435-1.375-.157-.94-3.015-1.813-3.563-1.784-1.12-1.823.1-2.974-1.128-1.382-1.474-1.89-5.482-1.89-6.615 0-9.128-7.496-14.598-15.066-14.598s-11.992 7.4-11.992 16.529c0 5.635 5.16 19.648 11.402 27.017 3.87 4.568 8.565 4.547 11.462 4.547z" fill="#FE9802"/><path d="M43.983 138.865c1.92 0 2.873-2.694 3.33-6.303.084-.673-4.194 6.303-8.507 1.788-4.34-4.544-7.288-19.193-7.265-20.49.03-1.625 2.849-1.013 6.116.073 1.106.367-3.46-1.301-1.783 7.411 1.972 10.246 5.162 11.69 6.194 12.017.732.231 3.826-.893 5.924-4.101.194-.297 2.058 2.29 4.455 3.302 2.536 1.07 5.62.566 6.142 0 .243-.263-.216-2.157-1.75-3.302-1.005-.75-2.98-.62-3.747-1.45-1.521-1.648-1.085-3.27-1.085-3.561 0-4.157-2.066-.862-2.043-2.026.047-2.332-.245-4.9-.578-7.033-.024-.152-2.042-.345-3.417 2.766-1.264 2.86-1.839 8.998-3.02 9.853-2.76 2.001-4.092-5.307-4.143-5.586-.046-.255-2.558-2.62 0-5.064.808-.771 4.786-1.875 5.764-1.97 2.047-.196 4.292-2.948 4.266-3.08-.183-.917-.313-1.5-.313-1.572 0-6.133-6.849-9.219-11.562-9.219-4.714 0-9.712 3.624-9.712 9.757 0 2.587.599 7.855 3.424 13.174 1.845 3.472 3.894 8.77 6.288 11.462 2.635 2.964 5.594 3.154 7.022 3.154z" fill="#A8690C"/><path d="M155.773 152.144c.597 0 4.662.713 6.195 0 .198-.092 2.866-.436 4.71 0 1.142.27 1.321 1.493 2.352 1.288 1.253-.248 2.397-1.072 2.82-1.663 1.069-1.495.082-5.355-3.791-6.71-3.171-1.109-3.747 1.82-3.747 1.119 0-1.712-4.131-1.118-5.703-1.118-1.57 0-18.896 7.67-18.896 9.382 0 .63.894.395 3.252 0 1.607-.269 4.345-.503 6.174-1.01 2.78-.77 6.035-1.288 6.634-1.288z" fill="#8A09C2"/><path d="M155.804 152.082c.598 0 4.697.713 6.23 0 .198-.092 3.013-.436 4.856 0 1.143.27 1.064 1.494 2.095 1.29.468-.094 2.58.61 2.85 2.231.216 1.311-1.194 3.661-1.593 4.322-.429.71-1.791-.395-3.047-.834-3.172-1.11-3.434-2.345-5.16-.93-1.986 1.628-4.66.93-6.23.93-1.572 0-17.99-3.9-15.633-4.294 1.607-.269 7.138-.919 8.967-1.426 2.78-.77 6.066-1.29 6.665-1.29z" fill="#B200FE"/></g></svg>