<svg width="25" height="17" xmlns="http://www.w3.org/2000/svg" xmlns:xlink="http://www.w3.org/1999/xlink"><defs><path d="M3 0h19a3 3 0 0 1 3 3v6H0V3a3 3 0 0 1 3-3z" id="a"/></defs><g fill="none" fill-rule="evenodd"><path stroke="#515151" d="M.5.5h24v16H.5z"/><mask id="b" fill="#fff"><use xlink:href="#a"/></mask><path stroke="#515151" d="M.5 8.5h24V3A2.5 2.5 0 0 0 22 .5H3A2.5 2.5 0 0 0 .5 3v5.5z"/><g mask="url(#b)" stroke="#515151" stroke-linecap="square"><path d="M23.667-4.046L2.442 17.18M13.06-14.653L-8.163 6.572M34.274 6.56L13.049 27.787M25.789-1.925L4.564 19.3M15.182-12.531L-6.043 8.694M36.395 8.682L15.17 29.907M6.697-21.017L-14.528.208M27.91.197L6.685 21.422M17.303-10.41L-3.922 10.815M38.517 10.803L17.292 32.028M8.818-18.895L-12.407 2.33M30.031 2.318L8.806 23.543M19.425-8.289L-1.8 12.936M40.638 12.925L19.413 34.15M10.94-16.774L-10.287 4.451M32.153 4.44L10.928 25.663M21.546-6.167L.32 15.058M42.76 15.046L21.533 36.27"/></g></g></svg>