<svg width="25" height="17" viewBox="0 0 25 17" xmlns="http://www.w3.org/2000/svg" xmlns:xlink="http://www.w3.org/1999/xlink"><defs><path d="M3 0h19c1.657 0 3 1.343 3 3v6H0V3c0-1.657 1.343-3 3-3z" id="a"/></defs><g fill="none" fill-rule="evenodd"><path stroke="#515151" d="M.5.5h24v16H.5z"/><g><mask id="b" fill="#fff"><use xlink:href="#a"/></mask><path stroke="#515151" d="M.5 8.5h24V3c0-1.38-1.12-2.5-2.5-2.5H3C1.62.5.5 1.62.5 3v5.5z"/><g mask="url(#b)" stroke="#515151" stroke-linecap="square"><path d="M23.667-4.046L2.442 17.18M13.06-14.653L-8.163 6.572M34.274 6.56L13.05 27.787M25.79-1.925L4.563 19.3M15.182-12.53L-6.043 8.693M36.395 8.682L15.17 29.907M6.697-21.017L-14.528.208M27.91.197L6.685 21.422M17.303-10.41L-3.922 10.815M38.517 10.803L17.292 32.028M8.818-18.895L-12.407 2.33M30.03 2.318L8.807 23.543M19.425-8.29L-1.8 12.937M40.638 12.925L19.413 34.15M10.94-16.774L-10.287 4.45M32.153 4.44L10.928 25.663M21.546-6.167L.32 15.058M42.76 15.046L21.533 36.27"/></g></g><path d="M7.14 15H6.02v-.72H6c-.14.26-.348.468-.625.625-.277.157-.558.235-.845.235-.68 0-1.172-.168-1.475-.505-.303-.337-.455-.845-.455-1.525V9.83h1.14V13c0 .453.087.773.26.96.173.187.417.28.73.28.24 0 .44-.037.6-.11.16-.073.29-.172.39-.295.1-.123.172-.272.215-.445.043-.173.065-.36.065-.56v-3h1.14V15zm5.53-1.15c0 .14.018.24.055.3.037.06.108.09.215.09h.12c.047 0 .1-.007.16-.02v.79c-.04.013-.092.028-.155.045-.063.017-.128.032-.195.045-.067.013-.133.023-.2.03-.067.007-.123.01-.17.01-.233 0-.427-.047-.58-.14-.153-.093-.253-.257-.3-.49-.227.22-.505.38-.835.48-.33.1-.648.15-.955.15-.233 0-.457-.032-.67-.095-.213-.063-.402-.157-.565-.28-.163-.123-.293-.28-.39-.47-.097-.19-.145-.412-.145-.665 0-.32.058-.58.175-.78.117-.2.27-.357.46-.47.19-.113.403-.195.64-.245.237-.05.475-.088.715-.115.207-.04.403-.068.59-.085.187-.017.352-.045.495-.085.143-.04.257-.102.34-.185.083-.083.125-.208.125-.375 0-.147-.035-.267-.105-.36-.07-.093-.157-.165-.26-.215-.103-.05-.218-.083-.345-.1-.127-.017-.247-.025-.36-.025-.32 0-.583.067-.79.2-.207.133-.323.34-.35.62H8.25c.02-.333.1-.61.24-.83.14-.22.318-.397.535-.53.217-.133.462-.227.735-.28.273-.053.553-.08.84-.08.253 0 .503.027.75.08.247.053.468.14.665.26s.355.275.475.465.18.422.18.695v2.66zm-1.14-1.44c-.173.113-.387.182-.64.205-.253.023-.507.058-.76.105-.12.02-.237.048-.35.085-.113.037-.213.087-.3.15s-.155.147-.205.25c-.05.103-.075.228-.075.375 0 .127.037.233.11.32.073.087.162.155.265.205.103.05.217.085.34.105.123.02.235.03.335.03.127 0 .263-.017.41-.05.147-.033.285-.09.415-.17.13-.08.238-.182.325-.305.087-.123.13-.275.13-.455v-.85z" fill="#474747"/></g></svg>