<svg width="25" height="17" viewBox="0 0 26 18" xmlns="http://www.w3.org/2000/svg"><g fill="none" fill-rule="evenodd"><path stroke="#515151" d="M1.5.5h24v16h-24z"/><path fill="#515151" d="M1.8 1.308l.544-.839 23.03 14.956-.545.838z"/><path fill="#515151" d="M25.373 1.308L24.83.469 1.799 15.425l.545.838z"/><path d="M14.5.5h-2v7h-11v2h11v7h2v-7h11v-2h-11v-7z" stroke="#515151" fill="#FFF"/><path fill="#FFF" d="M1 10h11v7H1z"/><path d="M4.283 13.854a1.838 1.838 0 0 0-.115-.52 1.288 1.288 0 0 0-.66-.735 1.178 1.178 0 0 0-.525-.115c-.2 0-.382.035-.545.105-.164.07-.304.167-.42.29-.117.123-.21.268-.28.435-.07.167-.109.347-.115.54h2.66zm-2.66.75c0 .2.028.393.085.58.056.187.141.35.255.49.113.14.256.252.43.335.173.083.38.125.62.125.333 0 .601-.072.805-.215.203-.143.355-.358.455-.645h1.08a2.15 2.15 0 0 1-.84 1.305c-.207.15-.439.263-.695.34a2.798 2.798 0 0 1-.805.115c-.407 0-.767-.067-1.08-.2a2.233 2.233 0 0 1-.795-.56 2.376 2.376 0 0 1-.49-.86c-.11-.333-.165-.7-.165-1.1 0-.367.058-.715.175-1.045.116-.33.283-.62.5-.87.216-.25.478-.448.785-.595a2.38 2.38 0 0 1 1.04-.22c.406 0 .771.085 1.095.255.323.17.591.395.805.675.213.28.368.602.465.965.096.363.121.738.075 1.125h-3.8zm4.477-2.88h1.08v.76l.02.02c.173-.287.4-.512.68-.675.28-.163.59-.245.93-.245.567 0 1.013.147 1.34.44.327.293.49.733.49 1.32v3.55H9.5v-3.25c-.013-.407-.1-.702-.26-.885-.16-.183-.41-.275-.75-.275-.193 0-.367.035-.52.105-.153.07-.283.167-.39.29-.107.123-.19.268-.25.435-.06.167-.09.343-.09.53v3.05H6.1v-5.17z" fill="#474747"/></g></svg>