
<svg width="589px" height="113px" viewBox="0 0 589 113" version="1.1" xmlns="http://www.w3.org/2000/svg" xmlns:xlink="http://www.w3.org/1999/xlink">
    <defs>
        <path d="M543.762838,36.4215165 L543.762838,47.4131003 C531.624426,43.7549962 519.886713,45.2011966 511.824376,60.8077257 L511.824376,107.288791 L522.34963,107.474172 L522.34963,110.439113 L485.784709,110.439113 L485.784709,107.474172 L496.312265,107.288791 L496.312265,41.1136078 L485.784709,40.9282271 L485.784709,37.960983 L511.824376,37.960983 L511.824376,56.8686718 C513.502015,52.9825839 515.507812,49.4626518 517.833708,46.3123299 C519.900531,43.5811297 522.421018,41.1136078 525.396323,38.9063099 C528.368172,36.7001634 531.922647,35.5970902 536.060899,35.5970902 C537.481768,35.5970902 538.84046,35.6765391 540.133519,35.833134 C541.424276,35.989729 542.587224,36.1751097 543.622363,36.3858221 C543.675329,36.3996393 543.711023,36.4076993 543.762838,36.4215165 Z M154.960145,36.4215165 L154.960145,47.4131003 C142.820582,43.7549962 131.082869,45.2011966 123.020532,60.8077257 L123.020532,107.288791 L133.546937,107.474172 L133.546937,110.439113 L96.982016,110.439113 L96.982016,107.474172 L107.509572,107.288791 L107.509572,41.1136078 L96.982016,40.9282271 L96.982016,37.960983 L123.020532,37.960983 L123.020532,56.8686718 C124.698171,52.9825839 126.703968,49.4626518 129.029863,46.3123299 C131.097838,43.5811297 133.617174,41.1136078 136.592478,38.9063099 C139.564328,36.7001634 143.118803,35.5970902 147.257055,35.5970902 C148.677924,35.5970902 150.036615,35.6765391 151.329675,35.833134 C152.620432,35.989729 153.78338,36.1751097 154.818518,36.3858221 C154.871484,36.3996393 154.907179,36.4076993 154.960145,36.4215165 Z M0,110.438998 L0,107.474057 L15.9323847,107.288676 L15.9323847,3.29811513 L0,3.11503722 L0,0.145490332 L43.4147985,0.145490332 C49.4897614,0.145490332 54.7587209,0.698178391 59.2182226,1.80125164 C63.676573,2.90317346 67.3922487,4.42767136 70.3675528,6.3701396 C73.3394025,8.3149107 75.5685777,10.5717203 77.0562297,13.1463255 C78.5415789,15.7209307 79.2865563,18.4774624 79.2865563,21.417072 C79.2865563,23.7303018 78.8651317,25.7763991 78.0257367,27.5622724 C77.1828874,29.3504485 76.0867228,30.8979751 74.7291827,32.2106092 C73.3727941,33.5255462 71.8206618,34.6792825 70.0762401,35.6764239 C68.330667,36.6747167 66.5528538,37.4887802 64.7439518,38.1186143 C60.4778908,39.6926238 55.630356,40.6943709 50.2024987,41.1134927 C58.2153241,41.7421754 65.3254257,43.3726051 71.5305006,45.9955705 C74.2455807,47.1539126 76.8627889,48.5448442 79.3832768,50.1729711 C81.9037646,51.801098 84.1640285,53.7953808 86.1698255,56.1581222 C88.1721683,58.5220151 89.786478,61.2555181 91.0173604,64.3528741 C92.243637,67.4513816 92.8585025,70.9966452 92.8585025,74.9875135 C92.8585025,79.9248602 91.6955547,84.5467141 89.3685077,88.8530752 C87.0426121,93.1605878 83.7126665,96.9154123 79.3832768,100.1187 C75.0515841,103.324291 69.8482563,105.844779 63.7744448,107.682467 C57.697179,109.520154 50.9106303,110.438998 43.4147985,110.438998 L0,110.438998 Z M173.476692,74.2010845 C173.476692,80.9243044 174.088103,86.5444511 175.317834,91.0592217 C176.545262,95.5762952 178.160723,99.2286421 180.165369,102.008202 C182.168863,104.79352 184.43143,106.763623 186.951917,107.91851 C189.472405,109.07455 192.090765,109.650266 194.804694,109.650266 C198.164576,109.650266 201.331018,109.127516 204.306322,108.075105 C207.278172,107.026149 209.928772,105.609886 212.255819,103.82171 C214.582866,102.035837 216.488488,99.8826563 217.97614,97.3621685 C219.460338,94.8405292 220.463237,92.109329 220.981382,89.1674165 L223.888751,89.1674165 C223.371758,92.5307537 222.24105,95.6545926 220.496628,98.5435392 C218.752207,101.432486 216.52188,103.927642 213.8068,106.027857 C211.09172,108.130374 207.957518,109.783833 204.403043,110.989383 C200.846265,112.197237 197.000477,112.802891 192.86568,112.802891 C187.952513,112.802891 183.298419,111.93471 178.9057,110.202954 C174.509527,108.467744 170.598108,105.947256 167.174896,102.640339 C163.74823,99.3299682 161.03315,95.2895882 159.030807,90.5065337 C157.026162,85.7280848 156.025566,80.2933189 156.025566,74.2010845 C156.025566,67.8981377 156.995073,62.330957 158.934087,57.4972393 C160.873101,52.6681274 163.423526,48.6507761 166.592271,45.4451854 C169.758713,42.2418975 173.442149,39.7997071 177.644881,38.1186143 C181.844159,36.4386729 186.272572,35.596975 190.926666,35.596975 C195.58076,35.596975 200.00687,36.4386729 204.208451,38.1186143 C208.407728,39.7997071 212.091164,42.2418975 215.26106,45.4451854 C218.426351,48.6507761 220.981382,52.6681274 222.920396,57.4972393 C224.85941,62.330957 225.828917,67.8981377 225.828917,74.2010845 L173.476692,74.2010845 Z M240.369679,107.288676 L240.369679,41.1134927 L229.842123,40.9281119 L229.842123,37.9608679 L255.880639,37.9608679 L255.880639,47.4141366 C257.171396,45.3162248 258.915817,43.3726051 261.116207,41.584429 C262.925109,40.1140485 265.251004,38.7495998 268.096196,37.4887802 C270.937934,36.229112 274.301271,35.596975 278.178148,35.596975 C282.056176,35.596975 285.642891,36.1749946 288.940596,37.3321852 C292.235999,38.4882244 295.111128,40.0887169 297.568287,42.1359656 C300.021992,44.1843657 301.931069,46.6541905 303.288609,49.5419856 C304.646149,52.4320836 305.325494,55.6618544 305.325494,59.2324496 L305.325494,107.288676 L315.850748,107.474057 L315.850748,110.438998 L280.256485,110.438998 L280.256485,107.474057 L289.812231,107.288676 L289.812231,59.2324496 C289.812231,51.7757665 288.359122,46.4952927 285.450601,43.3967852 C282.540929,40.2994292 279.148806,38.7495998 275.270778,38.7495998 C272.037553,38.7495998 269.259144,39.4853658 266.933249,40.9534434 C264.606202,42.4261268 262.600405,44.0554052 260.921615,45.8389756 C258.983752,47.9414931 257.301508,50.3042345 255.880639,52.9295028 L255.880639,107.288676 L265.437537,107.474057 L265.437537,110.438998 L229.842123,110.438998 L229.842123,107.474057 L240.369679,107.288676 Z M389.669837,107.288791 L400.197393,107.474172 L400.197393,110.439113 L374.157726,110.439113 L374.157726,100.985845 C372.734554,103.189688 370.926804,105.188577 368.728717,106.972147 C366.916361,108.444831 364.623857,109.783948 361.845448,110.989499 C359.064736,112.197352 355.738245,112.803006 351.860217,112.803006 C347.720814,112.803006 343.619408,111.934825 339.547939,110.203069 C335.47647,108.467859 331.855212,105.947371 328.68877,102.640455 C325.520025,99.3300834 322.936209,95.2897034 320.933866,90.5066488 C318.926917,85.7282 317.927473,80.293434 317.927473,74.2011996 C317.927473,68.1089652 318.926917,62.6741993 320.933866,57.8922962 C322.936209,53.1149987 325.616746,49.0688616 328.980083,45.7596418 C332.339966,42.4527249 336.154665,39.9310857 340.419574,38.1970269 C344.686786,36.4641195 349.145137,35.5970902 353.799231,35.5970902 C357.417035,35.5970902 360.518997,36.0173634 363.106267,36.8579098 C365.690084,37.6996076 367.82369,38.5919686 369.504783,39.536144 C371.443797,40.6944861 372.995929,42.0059688 374.157726,43.4751979 L374.157726,3.29823028 L363.632473,3.11515236 L363.632473,0.145605476 L389.669837,0.145605476 L389.669837,107.288791 Z M410.068978,55.4038182 C410.024072,54.3905567 410.028678,53.979495 410.028678,52.9293877 C410.028678,50.7232412 410.674632,48.5953921 411.967692,46.5481435 C413.258449,44.4997433 415.166374,42.663207 417.689164,41.0327772 C420.208501,39.4058017 423.243679,38.094319 426.800457,37.0937234 C430.354932,36.096582 434.459793,35.5968599 439.112735,35.5968599 C448.419772,35.5968599 455.755555,37.7523433 461.120083,42.057553 C466.48346,46.3650655 469.167451,52.0899927 469.167451,59.2323344 L469.167451,107.288561 L479.693856,107.473942 L479.693856,110.438883 L453.656491,110.438883 L453.656491,100.985614 C452.232168,103.189458 450.422115,105.188347 448.226331,106.971917 C446.415126,108.4446 444.122622,109.783717 441.344213,110.989268 C438.563502,112.197122 435.235859,112.802776 431.357831,112.802776 C422.050794,112.802776 415.037413,111.0146 410.318839,107.446308 C405.600265,103.874561 403.24328,99.0949607 403.24328,93.1063553 C403.24328,90.1690485 404.242725,87.2248332 406.24737,84.2829207 C408.249713,81.3456139 411.289497,78.7180428 415.360966,76.4059644 C419.432435,74.0973403 424.634611,72.2308667 430.969798,70.8123007 C437.301531,69.3948861 444.862994,68.6856031 453.656491,68.6856031 L453.656491,59.2323344 C453.656491,51.3542267 452.201079,45.8388605 449.29371,42.6885385 C446.385189,39.5359137 442.990763,37.9607527 439.112735,37.9607527 C435.235859,37.9607527 432.002634,39.0384945 429.418817,41.191675 C426.830395,43.3448556 425.620238,46.209622 425.540789,49.7767629 C425.490126,52.0393296 425.570726,55.328975 425.570726,55.328975 L410.068978,55.4038182 Z M562.234133,107.288676 L562.234133,41.1134927 L551.706577,40.9281119 L551.706577,37.9608679 L577.746245,37.9608679 L577.746245,107.288676 L588.270346,107.474057 L588.270346,110.438998 L551.706577,110.438998 L551.706577,107.474057 L562.234133,107.288676 Z M577.949357,17.3705894 C577.949357,22.3021789 573.95158,26.2999559 569.019991,26.2999559 C564.088402,26.2999559 560.089473,22.3021789 560.089473,17.3705894 C560.089473,12.4389999 564.088402,8.44122295 569.019991,8.44122295 C573.95158,8.44122295 577.949357,12.4389999 577.949357,17.3705894 Z M32.4128518,42.6886537 L32.4128518,107.288676 L43.4147985,107.288676 C47.8086685,107.288676 51.8801372,106.605876 55.630356,105.240276 C59.3782719,103.874676 62.6414343,101.828579 65.4221461,99.0950758 C68.2017065,96.3650271 70.3974901,93.0051443 72.0152541,89.0108216 C73.6307152,85.0199532 74.4390215,80.343982 74.4390215,74.9875135 C74.4390215,69.6310451 73.6307152,64.9585281 72.0152541,60.9653569 C70.3974901,56.9744886 68.2017065,53.6146057 65.4221461,50.8811027 C62.6414343,48.151054 59.3782719,46.1015024 55.630356,44.7347509 C51.8801372,43.3726051 47.8086685,42.6886537 43.4147985,42.6886537 L32.4128518,42.6886537 Z M32.4128518,39.5360289 L43.4147985,39.5360289 C49.2318403,39.4335513 53.9158716,37.8825704 57.4726495,34.8899949 C61.0271246,31.893965 62.8060893,27.4056774 62.8060893,21.417072 C62.8060893,15.429618 61.0271246,10.9148474 57.4726495,7.86585165 C53.9158716,4.82261303 49.2318403,3.29811513 43.4147985,3.29811513 L32.4128518,3.29811513 L32.4128518,39.5360289 Z M190.926666,37.9608679 C188.987652,37.9608679 187.048638,38.46059 185.110775,39.4577314 C183.17061,40.4560242 181.359405,42.2142631 179.680615,44.7347509 C177.999522,47.2563902 176.608591,50.6450588 175.512426,54.8973026 C174.412807,59.1530006 173.733461,64.5382549 173.476692,71.0484597 L208.377791,71.0484597 C208.116416,64.5382549 207.438221,59.1530006 206.342057,54.8973026 C205.241286,50.6450588 203.851506,47.2563902 202.173868,44.7347509 C200.491623,42.2142631 198.682721,40.4560242 196.743707,39.4577314 C194.804694,38.46059 192.86568,37.9608679 190.926666,37.9608679 Z M356.707752,38.749715 C353.992672,38.749715 351.375463,39.355369 348.854976,40.5609198 C346.333336,41.7699249 344.069618,43.7388761 342.068427,46.4700763 C340.06263,49.2012764 338.44832,52.825989 337.219741,57.3407595 C335.991161,61.8601358 335.37975,67.4802825 335.37975,74.2011996 C335.37975,80.9244196 335.991161,86.5445663 337.219741,91.0593369 C338.44832,95.5764103 339.998149,99.2287572 341.873835,102.008318 C343.746065,104.793635 345.816343,106.763738 348.080061,107.918626 C350.339173,109.074665 352.5695,109.650381 354.767586,109.650381 C357.8707,109.650381 360.616868,108.916918 363.009547,107.446538 C365.399923,105.975006 367.435657,104.349182 369.11675,102.561006 C371.055764,100.567874 372.734554,98.20283 374.157726,95.469327 L374.157726,48.2018322 C372.863515,46.4171103 371.377014,44.8419494 369.698224,43.4751979 C368.275052,42.3203101 366.499542,41.2448713 364.365936,40.245427 C362.233481,39.2494371 359.679602,38.749715 356.707752,38.749715 Z M453.656491,71.8370765 C442.409289,71.8370765 434.102848,73.8612965 428.739471,77.9016765 C423.374943,81.9466622 420.693254,87.5414774 420.693254,94.6838191 C420.693254,99.4081506 422.114123,103.089283 424.959315,105.711097 C427.801053,108.338668 430.903015,109.650151 434.266352,109.650151 C437.368314,109.650151 440.113331,108.916688 442.507161,107.446308 C444.897537,105.974776 446.933271,104.348952 448.614364,102.561927 C450.55453,100.567644 452.232168,98.2025997 453.656491,95.4690967 L453.656491,71.8370765 Z" id="path-1"></path>
        <path d="M101.16734,190.100001 C102.167679,190.100001 107.689569,206.763584 117.036235,223.150312 C119.215159,226.970438 118.986208,236.017308 117.036235,242.71732 C110.355373,265.672433 114.737667,260.081864 124.892208,267.638172 C135.04675,275.19448 177.021429,302.922166 177.021429,282.879195 C177.021429,273.738462 184.501117,274.082632 183.350779,265.054505 C182.200441,256.026378 185.129857,252.323752 187.388548,252.355122 C198.176384,252.504949 206.680441,252.371751 211.263101,247.75879 C212.5839,246.429257 215.170917,242.414684 214.33372,236.96877 C213.598555,232.186568 212.091705,232.903115 212.237664,229.111702 C212.318993,226.999133 214.712284,222.933756 215.09211,220.485665 C215.298607,219.154723 213.999545,218.087865 212.237664,216.972881 C211.731803,216.652754 213.387003,216.217141 214.516886,215.405727 C215.328455,214.822906 215.573697,213.739002 215.929307,213.797102 C216.58753,213.904644 217.69726,210.208722 216.693473,207.201115 C216.351214,206.175616 216.577836,204.586899 215.929307,203.766317 C214.665753,202.167548 212.452159,201.731324 212.854227,201.774521 C213.812461,201.877472 213.33534,200.377989 214.214791,200.418562 C219.517104,200.66318 222.584552,200.570293 223.897766,198.178665 C227.917057,190.858727 219.675716,186.104405 213.666473,175.441464 C212.841492,173.977598 213.545991,170.511811 214.214791,170.243187 C216.028013,169.514908 217.223396,166.431668 216.693473,161.213848 C216.164081,156.00125 211.380623,151.298658 208.066165,142.929603 C206.465433,138.887729 201.554095,130.769791 198.873661,127.689748 C194.015526,122.107342 187.777244,116.601698 185.553941,117.079392 C177.015095,118.91403 142.900784,118.774983 140.260447,118.774983 C133.558898,118.774983 124.892208,140.832393 124.892208,148.58106 C124.892208,156.329726 94.4657904,190.100001 101.16734,190.100001 Z" id="path-3"></path>
        <path d="M151.12652,283.829862 C152.620854,283.829862 160.869603,308.709517 174.831906,333.175813 C178.086843,338.879473 177.744829,352.386952 174.831906,362.390443 C164.851854,396.663702 171.398243,388.316672 186.567373,399.59866 C201.736503,410.880647 264.439418,452.279623 264.439418,422.354353 C264.439418,408.706732 275.61278,409.220596 273.894373,395.741101 C272.175967,382.261606 276.552008,376.73338 279.926102,376.780217 C296.041265,377.003917 308.744857,376.805044 315.590558,369.917638 C317.563604,367.932572 321.42816,361.938591 320.177533,353.807539 C319.079323,346.667446 316.82835,347.73729 317.046387,342.0765 C317.167878,338.922316 320.743041,332.852483 321.310435,329.197347 C321.618907,327.210177 319.678333,325.617299 317.046387,323.952566 C316.290719,323.474598 318.763301,322.824204 320.451151,321.612717 C321.663495,320.742533 322.029843,319.124204 322.561063,319.210951 C323.544335,319.371517 325.20208,313.8533 323.702596,309.362776 C323.191319,307.831649 323.529854,305.459607 322.561063,304.234432 C320.673532,301.84738 317.366805,301.196075 317.967425,301.26057 C319.398862,301.414281 318.686126,299.175469 319.999873,299.236047 C327.920612,299.601275 332.502849,299.462591 334.464564,295.891757 C340.46869,284.962682 328.157551,277.864216 319.180781,261.943852 C317.948402,259.75822 319.000801,254.583606 319.999873,254.182537 C322.708513,253.095175 324.494209,248.491727 323.702596,240.701232 C322.911775,232.918533 315.766116,225.897301 310.814889,213.401838 C308.423671,207.367095 301.086981,195.246564 297.082876,190.647888 C289.825662,182.313046 280.506747,174.092813 277.185516,174.806037 C264.429956,177.545254 213.469072,177.337648 209.524866,177.337648 C199.51391,177.337648 186.567373,210.270587 186.567373,221.839777 C186.567373,233.408966 141.115563,283.829862 151.12652,283.829862 Z" id="path-5"></path>
        <path d="M200.326536,208.789575 C201.541763,208.789575 193.553052,229.483518 204.90752,250.358412 C207.554509,255.224834 206.894387,275.486447 203.167846,283.038972 C199.441304,290.591497 194.718812,297.008669 191.404578,299.216485 C184.430623,303.862267 196.571255,309.849846 205.961472,317.177196 C218.29736,326.803104 269.288822,362.125135 269.288822,336.592587 C269.288822,324.948297 273.292312,326.869945 274.343412,313.772306 C275.394512,300.674667 283.082831,299.176524 285.826722,299.216485 C298.931945,299.407348 304.154365,298.671374 309.721447,292.794968 C311.325974,291.101289 320.182279,287.588878 319.165239,280.651381 C318.27215,274.55938 317.849609,277.417592 318.026922,272.587748 C318.125721,269.896566 318.703821,266.457793 319.165239,263.339194 C319.416096,261.64372 318.733239,252.561159 319.165239,252.635173 C319.964859,252.772169 324.11667,250.720717 322.897256,246.889356 C322.481474,245.582983 321.509564,241.228094 320.72172,240.182762 C319.186736,238.146105 313.242129,235.662226 313.730567,235.717255 C314.894645,235.848402 320.695855,232.517503 322.897256,230.531921 C328.558684,225.425519 318.199183,218.714696 315.537649,213.202952 C314.597793,211.256614 316.7018,205.958275 315.537649,203.792124 C314.535449,201.92732 325.973047,193.253504 326.234891,192.040751 C327.594475,185.743709 322.928221,182.146644 319.165239,172.938418 C316.832448,167.229949 318.865311,167.714742 314.838859,157.053484 C312.894265,151.90458 306.370482,144.282835 303.114251,140.359197 C300.12227,136.75397 277.901841,119.005396 259.174891,116.682934 C240.962608,114.424299 226.212452,127.541819 224.631037,127.541819 C216.489896,127.541819 205.961472,155.640541 205.961472,165.511492 C205.961472,175.382443 192.185395,208.789575 200.326536,208.789575 Z" id="path-7"></path>
        <path d="M244.707821,254.842589 C246.192276,254.842589 236.433707,280.101025 250.303698,305.580325 C253.537114,311.52014 252.730745,336.250887 248.178608,345.469283 C243.626472,354.687679 237.857735,362.520296 233.80925,365.215093 C225.290253,370.885601 240.120578,378.193869 251.591148,387.137423 C266.659987,398.886531 328.948337,441.999593 328.948337,410.835295 C328.948337,396.622607 333.83878,398.968116 335.122745,382.981512 C336.406711,366.994908 345.798336,365.166317 349.150122,365.215093 C365.158738,365.448055 371.538157,364.549746 378.338597,357.377172 C380.298598,355.309916 391.11697,351.022768 389.874611,342.555057 C388.783663,335.119335 388.26751,338.607986 388.484106,332.712817 C388.604794,329.428037 389.310969,325.230769 389.874611,321.424296 C390.181044,319.354849 389.346904,308.268935 389.874611,308.359273 C390.851383,308.526488 395.923006,306.022543 394.433436,301.346094 C393.92554,299.751572 392.738309,294.436119 391.775922,293.160217 C389.900871,290.674332 382.639268,287.64258 383.235916,287.709747 C384.657889,287.869821 391.744327,283.804221 394.433436,281.380676 C401.349124,275.147947 388.69453,266.956909 385.443347,260.229432 C384.295271,257.853788 386.86541,251.386786 385.443347,248.742844 C384.219116,246.466717 398.190653,235.879705 398.510507,234.399453 C400.1713,226.713464 394.471262,222.32299 389.874611,211.083692 C387.025002,204.116098 389.508235,204.707822 384.589744,191.694995 C382.214336,185.41039 374.245243,176.107506 370.267612,171.318426 C366.612773,166.917989 339.469526,145.254586 316.593719,142.419855 C294.346601,139.66303 276.328625,155.6739 274.396856,155.6739 C264.452088,155.6739 251.591148,189.970398 251.591148,202.018599 C251.591148,214.066799 234.763053,254.842589 244.707821,254.842589 Z" id="path-9"></path>
    </defs>
    <g id="Page-1" stroke="none" stroke-width="1" fill="none" fill-rule="evenodd">
        <g id="-About" transform="translate(-1060.000000, -199.000000)">
            <g id="Mask-+-Group-8-Copy-3-Mask" transform="translate(1060.000000, 199.000000)">
                <mask id="mask-2" fill="white">
                    <use xlink:href="#path-1"></use>
                </mask>
                <use id="Mask" fill="#141414" xlink:href="#path-1"></use>
                <g id="Group-8-Copy-2" mask="url(#mask-2)">
                    <g transform="translate(31.093960, -72.805369)">
                        <g id="Oval-6-+-Oval-6-Copy-Mask" stroke-width="1" fill="none">
                            <mask id="mask-4" fill="white">
                                <use xlink:href="#path-3"></use>
                            </mask>
                            <use id="Mask" fill="#FFF300" xlink:href="#path-3"></use>
                            <path d="M191.047467,225.028387 C193.229228,226.417334 196.084841,227.751457 199.183217,228.856904 C198.867246,228.190469 198.697987,227.486409 198.697987,226.758389 C198.697987,222.569921 204.300437,219.174497 211.211409,219.174497 C218.122382,219.174497 223.724832,222.569921 223.724832,226.758389 C223.724832,229.384349 221.522699,231.698589 218.176597,233.0598 C224.732285,237.685084 216.45098,252.517379 201.619701,252.730974 C171.558031,253.163912 157.755033,243.506932 141.752828,232.388704 C130.254369,224.39965 139.740257,218.287324 138.983227,205.118727 C138.412047,195.183017 135.842115,189.530307 136.265631,184.901159 C136.474507,182.618096 141.540218,181.688568 141.752828,183.180043 C142.577178,188.962942 151.198377,200.527592 157.755033,203.15704 C163.846373,205.59988 170.116501,206.740626 175.21557,209.621282 C179.029917,211.77615 182.090283,214.983227 185.431782,219.241437 C186.37654,217.673572 187.78343,216.305711 188.985428,213.63626 C189.333321,212.863644 192.664917,209.807282 193.682637,209.135574 C200.440794,204.675109 201.26688,201.740499 208.177852,201.740499 C215.088825,201.740499 220.691275,205.885357 220.691275,210.073826 C220.691275,214.262294 214.354304,211.849223 207.443332,211.849223 C204.277121,211.849223 187.457031,215.328122 191.047467,225.028387 Z" id="Combined-Shape" fill="#00DDED" mask="url(#mask-4)"></path>
                            <path d="M240.871589,205.977758 C258.882002,205.977758 268.469799,194.793249 268.469799,189.97651 C268.469799,187.072732 230.516982,194.088586 218.584374,180.662295 C210.516373,171.584368 205.187721,161.321055 205.406944,168.783854 C205.890801,185.25529 196.449951,189.866106 198.213449,196.828114 C198.614589,198.411753 200.10201,199.791628 202.435929,200.617257 C204.07684,201.197733 208.258126,199.295455 210.519094,199.737808 C219.285991,201.453031 229.838328,205.977758 240.871589,205.977758 Z" id="Oval-2" fill="#D100FF" mask="url(#mask-4)"></path>
                        </g>
                        <path d="M163.256666,125.028099 C173.297243,123.366327 181.441017,124.469827 189.538934,124.385583 C192.153507,124.358383 197.515712,128.338004 199.302876,127.998987 C200.32812,127.804503 201.18764,127.550522 201.847504,127.22765 C203.15862,126.586119 201.487362,120.893808 201.107155,119.964225 C198.902752,114.574593 193.394783,108.952151 181.457917,105.719677 C171.819682,103.109667 158.069468,103.899329 153.95302,103.899329 C150.181789,103.899329 137.425415,104.369115 125.159414,109.368583 C123.888979,109.886396 123.364283,112.226791 122.114898,112.846299 C121.00844,113.394937 119.173888,112.211233 118.099509,112.846299 C116.389826,113.856895 114.730018,114.98089 113.149552,116.230911 C101.215827,125.66952 95.0993569,145.730119 95.0993569,148.941898 C95.0993569,149.592124 93.1421448,165.772802 94.310891,178.972238 C95.0715026,187.562336 100.417279,198.10915 101.639591,201.884123 C102.400195,204.233161 107.500161,213.892551 111.847159,221.002752 C114.485913,225.31885 117.013456,235.624405 119.19559,234.731362 C120.514655,234.191532 119.214189,230.372047 119.72137,225.03497 C120.095247,221.100657 115.808216,215.468305 116.199659,210.342738 C116.635155,204.640327 110.430798,190.946721 111.847159,185.464896 C114.005939,177.109643 122.771959,172.9827 128.934563,172.9827 C134.006639,172.9827 135.664793,192.179036 137.22733,188.241878 C138.535347,184.946036 142.686373,185.86737 142.686373,184.741537 C142.686373,172.9827 143.738379,168.505795 146.604765,156.795114 C148.40758,149.429676 158.540761,148.312597 161.51904,144.554948 C164.49732,140.797299 140.738874,134.429513 142.686373,133.150705 C148.883366,129.081505 157.921694,125.911066 163.256666,125.028099 Z" id="Oval-3" fill="#FF0000"></path>
                        <path d="M193.795391,163.396972 C199.659247,163.396972 204.006292,164.39469 204.006292,161.043916 C204.006292,157.693141 195.991882,153.194631 190.128027,153.194631 C184.264171,153.194631 174.42953,157.693141 174.42953,161.043916 C174.42953,164.39469 187.931536,163.396972 193.795391,163.396972 Z" id="Oval-10" fill="#FF0000"></path>
                        <path d="M216.765053,159.029408 C213.097689,155.848408 208.778993,159.986767 208.778993,163.337541 C208.778993,165.203857 213.10786,167.513737 215.677391,166.099527 C217.721184,164.974672 218.389767,160.438653 216.765053,159.029408 Z" id="Oval-10-Copy" fill="#FF0000"></path>
                        <path d="M191.493289,185.04698 C194.109095,185.04698 198.487546,185.406375 200.542864,184.062518 C204.246805,181.64072 205.845572,172.883999 205.845572,168.0353 C205.845572,167.572645 205.828707,167.131001 205.794765,166.709183 C205.772585,166.433533 205.442324,165.772941 206.858382,166.377051 C207.397365,166.606988 210.680996,170.454654 213.698838,175.215972 C216.820134,180.140511 219.822113,185.871896 221.984836,186.883477 C223.933631,187.794996 224.665562,173.540253 224.656768,173.495737 C224.584434,173.129561 225.44988,168.180275 223.876166,165.760132 C222.871382,164.214921 221.984836,163.368046 218.675027,163.368046 C217.597055,163.368046 214.718897,163.762798 212.594852,164.126435 C211.327427,164.343419 210.630664,165.154638 209.658176,165.002754 C206.411022,164.495613 204.784534,162.91459 204.648876,162.681266 C202.7279,159.377295 198.449603,158.090544 191.493289,157.027767 C189.099481,156.662044 183.388093,155.831936 181.254183,156.811212 C181.114296,156.875408 118.993715,172.383026 118.886518,172.463414 C118.191922,172.984293 113.375806,175.599476 121.709425,174.515953 C126.412443,173.904474 179.159484,162.098711 179.117737,162.681266 C178.891062,165.844436 180.051264,168.159073 180.051264,171.395973 C180.051264,175.856232 180.40491,180.022731 183.098196,182.513832 C184.957413,184.233478 188.499831,185.04698 191.493289,185.04698 Z" id="Oval-9" fill="#2B00FF"></path>
                        <path d="M127.430721,212.570215 C142.716037,211.939238 132.815292,203.440363 134.04823,199.877747 C135.766804,194.911868 128.48135,192.800126 128.48135,186.49835 C128.48135,175.608333 120.996088,171.897966 115.55108,171.897966 C110.106071,171.897966 104.077101,178.929631 108.800681,192.23409 C113.524261,205.53855 121.696914,212.806906 127.430721,212.570215 Z" id="Oval-4" fill="#3A71FF"></path>
                        <path d="M112.360805,189.408637 C111.794775,197.342054 109.518164,189.290309 109.218412,183.628721 C108.918661,177.967132 115.207386,175.946309 117.30162,175.946309 C119.395854,175.946309 125.533374,179.913517 122.872082,182.96998 C120.210791,186.026444 112.926835,181.475221 112.360805,189.408637 Z M131.208185,201.476864 C130.939002,205.249707 128.236434,199.971414 124.795506,198.917988 C121.000959,197.756302 117.723206,196.3817 117.566006,193.412556 C117.266254,187.750968 121.341078,185.805369 123.435312,185.805369 C125.529546,185.805369 129.413174,191.672001 126.751883,194.728464 C124.090591,197.784928 131.774215,193.543448 131.208185,201.476864 Z M116.902958,197.979323 C117.923111,203.361091 127.746473,212.076532 114.502949,199.859263 C111.932375,197.487885 111.510461,192.311027 113.604695,192.311027 C115.698929,192.311027 115.882804,192.597555 116.902958,197.979323 Z" id="Combined-Shape" fill="#2300FF"></path>
                    </g>
                </g>
                <g id="Group-8-Copy-4" mask="url(#mask-2)">
                    <g transform="translate(64.463087, -243.442953)">
                        <g id="Oval-6-+-Oval-6-Copy-Mask" stroke-width="1" fill="none">
                            <mask id="mask-6" fill="white">
                                <use xlink:href="#path-5"></use>
                            </mask>
                            <use id="Mask" fill="#FFF300" xlink:href="#path-5"></use>
                            <path d="M285.391895,335.979883 C288.651069,338.053658 292.916862,340.045577 297.545299,341.696072 C297.073294,340.701047 296.820449,339.649846 296.820449,338.562873 C296.820449,332.309257 305.189541,327.2397 315.51334,327.2397 C325.837139,327.2397 334.206231,332.309257 334.206231,338.562873 C334.206231,342.483576 330.916625,345.938866 325.918127,347.971229 C335.711191,354.877035 323.340353,377.022475 301.184985,377.341385 C256.278046,377.987786 235.658753,363.569378 211.754224,346.969246 C194.577514,335.041144 208.747792,325.915102 207.616919,306.253655 C206.763675,291.419089 202.924641,282.979278 203.557301,276.067703 C203.869325,272.658962 211.436623,271.271125 211.754224,273.497981 C212.98566,282.13217 225.864242,299.398836 235.658753,303.324747 C244.758162,306.972043 254.124649,308.67524 261.741777,312.976219 C267.439752,316.193558 272.01141,320.981901 277.003032,327.339646 C278.414338,324.998735 280.515989,322.956443 282.311566,318.970805 C282.831258,317.817246 287.808086,313.253928 289.328384,312.251031 C299.423902,305.591309 300.657931,301.209773 310.98173,301.209773 C321.305529,301.209773 329.674621,307.398276 329.674621,313.651892 C329.674621,319.905508 320.208282,316.30266 309.884483,316.30266 C305.154712,316.30266 280.028404,321.496849 285.391895,335.979883 Z" id="Combined-Shape" fill="#00DDED" mask="url(#mask-6)"></path>
                            <path d="M317.041417,322.612349 C328.571497,324.772152 352.107811,328.970655 351.183804,324.601473 C347.998802,309.541144 334.606607,318.111618 320.134526,316.577902 C317.508355,316.299587 315.879619,313.651892 313.42905,313.651892 C304.594166,313.651892 304.052328,317.296629 299.330746,319.112134 C295.525599,320.57526 287.06285,320.081725 286.65043,321.947407 C286.384007,323.152635 288.185664,323.782025 290.743893,324.059124 C292.870789,324.289503 297.617115,321.947407 300.923521,321.947407 C305.759862,321.947407 308.972464,321.10088 317.041417,322.612349 Z" id="Oval-6" fill="#BF002D" mask="url(#mask-6)"></path>
                            <path d="M359.820522,307.536236 C386.724967,307.536236 401.047477,290.837142 401.047477,283.645484 C401.047477,279.309981 344.352528,289.785042 326.527275,269.738843 C314.475075,256.184994 306.51499,240.861298 306.842472,252.003671 C307.565271,276.59644 293.462273,283.480644 296.096633,293.875309 C296.695868,296.23977 298.917817,298.3 302.404289,299.532711 C304.855527,300.399394 311.101645,297.559186 314.479141,298.219644 C327.57537,300.780567 343.338737,307.536236 359.820522,307.536236 Z" id="Oval-2" fill="#D100FF" mask="url(#mask-6)"></path>
                            <path d="M317.041417,322.612349 C328.571497,324.772152 352.107811,328.970655 351.183804,324.601473 C347.998802,309.541144 337.694945,331.158316 323.222863,329.6246 C320.596692,329.346285 315.254551,329.6246 312.803981,329.6246 C303.969098,329.6246 305.275802,325.887112 300.010404,325.817059 C290.245413,325.687143 286.580484,323.802865 286.65043,321.947407 C286.756501,319.133686 288.185664,323.782025 290.743893,324.059124 C292.870789,324.289503 297.617115,321.947407 300.923521,321.947407 C305.759862,321.947407 308.972464,321.10088 317.041417,322.612349 Z" id="Oval-6-Copy" fill="#FF0000" mask="url(#mask-6)"></path>
                        </g>
                        <path d="M244.081499,186.437706 C259.113761,183.955626 271.306223,185.603853 283.43003,185.478023 C287.344441,185.437396 295.372473,191.381498 298.048129,190.87513 C299.583075,190.584642 300.869906,190.205287 301.857822,189.723034 C303.820762,188.764821 301.318635,180.262585 300.749408,178.874128 C297.449083,170.823983 289.20282,162.426107 271.331526,157.59797 C256.901629,153.699567 236.315478,154.879034 230.152533,154.879034 C224.50643,154.879034 205.408207,155.580724 187.044149,163.048103 C185.142115,163.821528 184.356566,167.317224 182.486046,168.242543 C180.829512,169.062007 178.082909,167.293985 176.474401,168.242543 C173.914748,169.752004 171.429765,171.430843 169.063568,173.297918 C151.196976,187.395757 142.039694,217.358972 142.039694,222.156197 C142.039694,223.127397 139.109452,247.295427 140.859242,267.010567 C141.997992,279.841039 150.001428,295.594131 151.831414,301.232563 C152.970153,304.74117 160.605574,319.168774 167.113688,329.788819 C171.064302,336.235494 174.848416,351.628233 178.1154,350.294353 C180.090241,349.488044 178.143247,343.783127 178.902573,335.811481 C179.462323,329.935053 173.04399,321.522375 173.630039,313.866647 C174.282043,305.349326 164.993182,284.896076 167.113688,276.70823 C170.345708,264.22853 183.469766,258.064384 192.696117,258.064384 C200.289782,258.064384 202.77229,286.736705 205.111644,280.856027 C207.069944,275.933242 213.284658,277.309379 213.284658,275.627795 C213.284658,258.064384 214.859669,251.377521 219.151083,233.886037 C221.850171,222.884759 237.021075,221.216251 241.48001,215.603695 C245.938945,209.991138 210.368956,200.479989 213.284658,198.569916 C222.562494,192.492017 236.094238,187.756538 244.081499,186.437706 Z" id="Oval-3" fill="#FF0000"></path>
                        <path d="M289.686825,243.99748 C298.407554,243.99748 304.872483,245.460848 304.872483,240.546218 C304.872483,235.631587 292.953448,229.033557 284.232719,229.033557 C275.51199,229.033557 260.885906,235.631587 260.885906,240.546218 C260.885906,245.460848 280.966096,243.99748 289.686825,243.99748 Z" id="Oval-10" fill="#FF0000"></path>
                        <path d="M323.953735,237.558936 C318.325641,232.816321 311.697987,238.986281 311.697987,243.982016 C311.697987,246.764543 318.34125,250.208388 322.284562,248.099915 C325.421054,246.422846 326.447091,239.660007 323.953735,237.558936 Z" id="Oval-10-Copy" fill="#FF0000"></path>
                        <path d="M286.084232,276.291686 C289.998311,276.291686 296.549865,276.826557 299.625275,274.826559 C305.167548,271.222311 307.559813,258.190098 307.559813,250.97401 C307.559813,250.285462 307.534578,249.628184 307.48379,249.000413 C307.450602,248.590176 306.956425,247.607048 309.075299,248.506116 C309.881788,248.848321 314.795145,254.57462 319.310797,261.660664 C323.981248,268.989622 328.473164,277.51937 331.709285,279.024858 C334.625302,280.381429 335.720503,259.166771 335.707345,259.100519 C335.59911,258.555557 336.894093,251.189769 334.539317,247.587985 C333.035841,245.288321 331.709285,244.027957 326.756758,244.027957 C325.143769,244.027957 320.837129,244.615447 317.658883,245.156631 C315.762411,245.479558 314.719832,246.686856 313.264681,246.460815 C308.405906,245.706061 305.972163,243.353101 305.769175,243.005854 C302.894784,238.088712 296.493091,236.173701 286.084232,234.592021 C282.502335,234.047732 273.956281,232.812322 270.763272,234.269733 C270.553957,234.365272 177.60181,257.444524 177.441409,257.564161 C176.402072,258.339362 169.19563,262.231414 181.665376,260.618858 C188.702587,259.708824 267.628936,242.138866 267.56647,243.005854 C267.227292,247.713451 268.963323,251.158215 268.963323,255.97554 C268.963323,262.613531 269.49249,268.814334 273.522503,272.521723 C276.304483,275.080989 281.605068,276.291686 286.084232,276.291686 Z" id="Oval-9" fill="#2B00FF"></path>
                        <path d="M190.353221,316.998353 C213.154914,316.057249 198.385593,303.381151 200.224813,298.067499 C202.788476,290.660875 191.920483,287.511205 191.920483,278.112088 C191.920483,261.869594 180.754431,256.33557 172.631902,256.33557 C164.509373,256.33557 155.515726,266.82332 162.562073,286.666962 C169.608419,306.510603 181.799879,317.351378 190.353221,316.998353 Z" id="Oval-4" fill="#3A71FF"></path>
                        <path d="M167.720658,282.410787 C166.882772,294.20166 163.512742,282.234925 163.069025,273.820508 C162.625308,265.40609 171.934406,262.402685 175.034467,262.402685 C178.134528,262.402685 187.2198,268.298864 183.280333,272.841468 C179.340865,277.384073 168.558543,270.619913 167.720658,282.410787 Z M195.620131,300.346935 C195.221663,305.954244 191.221096,298.109491 186.127546,296.543859 C180.510539,294.817328 175.658534,292.774355 175.425833,288.361527 C174.982116,279.94711 181.014011,277.055506 184.114072,277.055506 C187.214133,277.055506 192.963006,285.774663 189.023539,290.317268 C185.084072,294.859873 196.458017,288.556062 195.620131,300.346935 Z M174.444334,295.148788 C175.95445,303.147327 190.495814,316.100468 170.89164,297.942809 C167.086461,294.418399 166.461907,286.724402 169.561968,286.724402 C172.662029,286.724402 172.934217,287.150249 174.444334,295.148788 Z" id="Combined-Shape" fill="#2300FF"></path>
                        <path d="M313.621731,297.060547 C316.695679,297.060547 320.806831,297.318323 321.494686,296.390577 C322.182541,295.462832 317.051474,292.841334 312.443908,292.138398 C307.836342,291.435462 305.630872,293.153704 305.630872,295.64124 C305.630872,298.128776 310.547784,297.060547 313.621731,297.060547 Z" id="Oval-11" fill="#2300FF"></path>
                    </g>
                </g>
                <g id="Group-8-Copy-3" mask="url(#mask-2)">
                    <g transform="translate(-190.355705, -139.543624)">
                        <g id="Oval-6-+-Oval-6-Copy-Mask" stroke-width="1" fill="none">
                            <mask id="mask-8" fill="white">
                                <use xlink:href="#path-7"></use>
                            </mask>
                            <use id="Mask" fill="#E9034E" xlink:href="#path-7"></use>
                            <path d="M317.487565,208.228102 C322.575778,208.228102 326.70059,206.001457 326.70059,202.718289 C326.70059,199.43512 322.575778,198.149995 317.487565,198.149995 C314.095423,198.149995 310.500674,200.080204 306.703318,203.940622 C310.500674,206.798942 314.095423,208.228102 317.487565,208.228102 Z" id="Oval-12-Copy" fill="#FFFFFF" mask="url(#mask-8)" transform="translate(316.701954, 203.189048) rotate(7.000000) translate(-316.701954, -203.189048) "></path>
                            <path d="M273.246371,253.523613 C273.293094,253.395792 273.346592,253.264699 273.407144,253.130172 C273.82977,252.191228 280.825973,240.486932 285.656538,239.521169 C296.134762,237.426283 302.245612,235.223703 310.641164,235.223703 C319.036716,235.223703 326.734962,242.296783 326.734962,247.386935 C326.734962,250.014799 327.443723,254.277185 325.036046,255.137158 C326.429332,255.080167 327.718371,255.052673 328.866048,255.069596 C346.237112,255.325751 332.348571,296.388738 310.964746,298.035257 C275.294506,300.781808 258.582149,300.567119 239.142433,287.055384 C238.82603,286.835465 227.678835,276.387478 227.386144,276.170623 C214.757202,266.813824 226.374272,257.853386 225.475451,242.212381 C224.781574,230.137734 221.123063,211.960521 221.637557,206.33482 C221.891302,203.560264 230.581085,204.522263 230.839366,206.33482 C231.840799,213.362648 238.652929,228.237533 245.573628,237.405462 C252.494328,246.57339 260.070948,250.050146 266.265373,253.550943 C268.053431,254.561469 270.531768,254.226448 273.246371,253.523613 Z M289.325406,253.352939 C289.377167,253.417338 289.42825,253.48333 289.478641,253.550943 C292.096543,257.06354 303.49908,256.543425 314.157337,255.821211 C312.979233,253.262581 311.703137,249.544537 310.641164,249.544537 C307.896293,249.544537 294.964434,249.279667 289.325406,253.352939 Z" id="Combined-Shape" fill="#2300FF" mask="url(#mask-8)"></path>
                            <path d="M313.353484,252.670652 C306.408795,254.118691 304.728248,250.495374 300.888548,251.973111 C297.794115,253.164027 288.706539,252.600113 288.371149,254.118691 C288.154488,255.099691 298.166985,256.849871 300.247397,257.075417 C301.977038,257.262934 307.678616,258.806154 311.796663,258.682441 C315.705403,258.565015 314.938092,252.340245 313.353484,252.670652 Z" id="Oval-6" fill="#FF0000" mask="url(#mask-8)"></path>
                            <path d="M313.353484,252.670652 C306.408795,254.118691 304.728248,250.495374 300.888548,251.973111 C297.794115,253.164027 288.706539,252.600113 288.371149,254.118691 C288.154488,255.099691 300.321646,247.577424 304.070214,247.577424 C307.818783,247.577424 308.966858,250.194717 313.353484,248.048298 C315.15449,247.167049 314.938092,252.340245 313.353484,252.670652 Z" id="Oval-6-Copy-2" fill="#A00025" mask="url(#mask-8)"></path>
                            <path d="M335.335554,240.489538 C351.58104,240.489538 360.229282,230.397208 360.229282,226.050829 C360.229282,223.430608 328.695435,228.87976 317.932161,216.76456 C316.013355,214.604741 315.344129,210.710022 313.917091,208.202159 C309.93186,201.198549 306.89454,196.085387 307.040143,201.043887 C307.380287,212.627445 300.300197,219.683241 295.675077,224.783854 C294.365658,226.227891 294.116594,229.608302 295.675077,231.488245 C297.23356,233.368189 298.561183,234.90749 300.66639,235.652496 C302.1465,236.176288 308.265061,234.466567 310.304466,234.865723 C318.212253,236.413453 325.383495,240.489538 335.335554,240.489538 Z" id="Oval-2" fill="#B200FE" mask="url(#mask-8)"></path>
                        </g>
                        <path d="M267.205959,128.918188 C279.433866,126.895196 280.531675,136.006941 290.393716,135.904385 C293.577872,135.871273 298.847729,141.526241 301.024226,141.113532 C302.272819,140.876772 305.918091,144.928253 306.721705,144.535198 C308.318447,143.754218 304.9451,131.6536 304.482065,130.521954 C303.327166,127.699405 298.819838,125.828372 295.872816,123.155117 C293.564654,121.061374 290.680522,120.497306 287.686864,118.486274 C285.617726,117.096301 283.937685,114.097464 280.552257,113.181059 C280.252908,113.100028 275.653468,111.040753 275.347883,110.965021 C263.671015,108.07118 252.13474,109.624321 247.249378,109.624321 C242.656588,109.624321 236.830229,108.893058 221.892091,114.979263 C220.344892,115.609633 214.402604,116.811221 212.88104,117.565392 C211.533542,118.233287 206.674885,123.398434 205.366454,124.171546 C203.284319,125.401815 200.559543,128.194381 198.634774,129.716119 C184.101297,141.206406 183.345574,156.548052 183.345574,160.457978 C183.345574,161.249543 181.056377,164.002856 182.479734,180.071461 C182.713723,182.713015 184.69705,184.85545 184.704001,189.755282 C184.709207,193.425856 186.128104,195.508281 185.910507,199.771384 C185.688645,204.118037 187.307073,205.681866 188.225892,209.379951 C189.965185,216.380297 191.819972,224.303629 192.363646,225.982046 C193.289947,228.841696 192.098258,228.509946 197.392247,237.165695 C198.791295,239.453159 202.417485,245.43985 203.400693,250.721913 C205.622692,262.659092 207.447284,263.120151 207.259449,257.06374 C206.904991,245.634894 203.677528,246.436549 201.542927,239.922741 C199.408325,233.408933 194.051939,216.93396 195.776853,210.260547 C198.405921,200.089107 202.719366,197.83357 210.224488,197.83357 C220.885525,197.83357 221.019319,212.805293 222.922253,208.012312 C224.515221,204.000051 230.700161,208.054433 230.700161,206.683876 C230.700161,192.369014 237.470012,191.875322 236.281234,175.62843 C235.598992,166.304305 240.264862,163.50402 243.891958,158.929568 C247.519053,154.355117 234.638672,149.063795 242.249396,135.904385 C247.200212,127.34412 260.708767,129.993087 267.205959,128.918188 Z" id="Oval-3" fill="#00EDC8"></path>
                        <path d="M290.356906,190.316577 C283.217854,190.316577 265.436242,192.482947 265.436242,188.393123 C265.436242,186.295515 269.955759,185.301805 274.016681,183.634189 C277.873567,182.050359 278.805036,179.738255 282.282578,179.738255 C289.42163,179.738255 304.070948,183.178656 304.070948,187.268479 C304.070948,188.56068 304.052051,189.876904 302.953636,190.316577 C300.575561,191.26847 295.240337,190.316577 290.356906,190.316577 Z M325.107984,183.858127 C327.302574,182.551606 327.596234,192.073855 325.107984,193.446809 C321.979663,195.172938 316.360657,193.442098 316.360657,191.164146 C316.360657,187.074322 323.356827,184.900656 325.107984,183.858127 Z" id="Combined-Shape" fill="#A900F5"></path>
                        <path d="M281.438259,206.281879 C286.841381,206.281879 291.221477,204.10363 291.221477,200.891821 C291.221477,197.680012 286.841381,196.422819 281.438259,196.422819 C277.836178,196.422819 274.018951,198.311075 269.986577,202.087587 C274.018951,204.883782 277.836178,206.281879 281.438259,206.281879 Z" id="Oval-12" fill="#FFFFFF"></path>
                        <path d="M291.363264,225.429804 C294.404451,225.429804 303.006173,219.38955 304.145171,213.415284 C304.196711,213.144949 306.469743,207.933528 306.469743,207.679965 C306.469743,207.121081 305.49103,199.320904 307.211863,200.050664 C307.86685,200.328427 317.021557,197.380635 315.158298,202.843294 C313.66703,207.215356 315.052012,213.46664 316.74215,215.496037 C325.269245,225.734769 324.485192,226.8478 324.577545,228.198494 C324.622668,228.858442 332.172692,225.356169 334.919914,213.874262 C337.667136,202.392355 334.352676,199.738912 332.440256,196.815397 C331.219215,194.948794 328.416135,194.134951 324.868393,194.733278 C320.85905,195.409455 319.401633,197.495123 318.464524,199.300174 C317.705799,200.761624 314.099185,197.806913 312.917391,197.623439 C308.971361,197.010816 306.069202,197.905293 305.904346,197.623439 C303.569924,193.632267 304.936858,190.952208 296.483354,189.668381 C293.574334,189.22659 288.427143,190.874898 284.771606,193.770193 C284.760569,193.778935 282.762559,196.219368 281.497706,196.155539 C270.087733,195.579753 213.76789,190.244753 213.650621,190.33217 C213.055619,190.775707 200.664989,199.388417 201.805683,199.668122 C201.98496,199.712082 203.184452,199.606984 205.108454,198.307725 C208.309405,196.146155 213.038134,192.279077 214.904721,192.037831 C220.619958,191.29917 280.476898,199.346942 280.426167,200.050664 C280.150704,203.87175 279.028662,209.964111 279.028662,213.874262 C279.028662,219.26222 287.725533,225.429804 291.363264,225.429804 Z" id="Oval-9" fill="#121212"></path>
                        <path d="M316.663655,204.324297 C315.197947,208.672438 315.002486,213.555574 316.663655,215.573867 C323.552118,223.943242 324.258226,226.181457 324.341663,227.459076 C324.359741,227.735889 324.994939,226.913875 325.011103,227.15309 C325.055453,227.809428 329.717973,225.23568 332.418108,213.816593 C335.118243,202.397507 332.967461,201.916004 331.08782,199.008485 C329.887707,197.152095 328.498037,195.983995 325.011103,196.579049 C321.070479,197.251526 320.75362,199.25889 319.891438,200.258892 C319.029255,201.258893 318.494978,198.891525 316.663655,204.324297 Z" id="Oval-9" fill="#FFF200"></path>
                        <path d="M291.930051,223.724832 C294.535579,223.724832 301.90508,218.355507 302.880913,213.04484 C302.92507,212.804533 304.872483,208.171978 304.872483,207.946579 C304.872483,207.449774 304.529321,199.257642 304.388081,199.007095 C302.388072,195.459248 303.559189,193.076879 296.316674,191.935655 C293.824379,191.542937 289.414538,193.008156 286.282667,195.581853 C286.273211,195.589624 284.059716,196.465585 283.477763,197.702244 C282.501117,199.77763 282.603188,200.539158 282.559724,201.164713 C282.323723,204.561367 281.362416,209.977011 281.362416,213.452837 C281.362416,218.242321 288.813435,223.724832 291.930051,223.724832 Z" id="Oval-9" fill="#FFF200"></path>
                        <path d="M215.371102,240.400798 C223.131195,240.025269 224.441031,234.200245 221.566146,231.466252 C218.69126,228.73226 214.685523,221.063305 216.015247,216.130441 C217.615433,210.194249 212.551251,214.704135 212.551251,207.298468 C212.551251,194.50083 204.840307,194.907492 199.381937,194.907492 C195.792733,194.907492 192.001153,198.255227 191.171562,204.993357 C190.739531,208.502402 192.842715,212.121293 194.157488,217.657535 C198.093649,234.231903 209.623225,240.67895 215.371102,240.400798 Z" id="Oval-4" fill="#BC00FF"></path>
                        <path d="M199.45873,214.335415 C198.916829,223.936331 195.694356,216.89891 194.429998,209.338982 C193.165641,201.779054 196.441273,200.214765 198.446232,200.214765 C200.45119,200.214765 211.057265,205.64009 208.509422,209.338982 C205.961579,213.037874 200.00063,204.7345 199.45873,214.335415 Z M208.797119,219.190994 C205.562064,222.889886 208.755273,224.833548 204.572495,223.558706 C199.959859,222.152849 201.158744,224.027613 200.967652,220.434394 C200.603276,213.582814 205.556614,211.228277 208.102356,211.228277 C210.648099,211.228277 212.032174,215.492102 208.797119,219.190994 Z M215.769472,227.062099 C219.922052,232.230498 216.160933,230.125828 214.268003,230.102058 C210.404913,230.053549 206.767625,223.744307 209.015382,222.549153 C211.26314,221.353999 211.616891,221.8937 215.769472,227.062099 Z" id="Combined-Shape" fill="#9700C1"></path>
                        <path d="M307.083838,233.614523 C309.089244,233.614523 311.20304,232.731383 311.651788,232.120681 C312.100536,231.509978 309.203652,231.308725 306.283667,231.308725 C303.363682,231.308725 301.838926,231.977065 301.838926,233.614523 C301.838926,235.251981 305.078432,233.614523 307.083838,233.614523 Z" id="Oval-11" fill="#7800A3"></path>
                    </g>
                </g>
                <g id="Group-8-Copy-5" mask="url(#mask-2)">
                    <g transform="translate(199.456376, -139.543624)">
                        <g id="Oval-6-+-Oval-6-Copy-Mask" stroke-width="1" fill="none">
                            <mask id="mask-10" fill="white">
                                <use xlink:href="#path-9"></use>
                            </mask>
                            <use id="Mask" fill="#E9034E" xlink:href="#path-9"></use>
                            <path d="M387.825258,254.157271 C394.040738,254.157271 399.07938,251.439493 399.07938,247.432151 C399.07938,243.42481 394.040738,241.856223 387.825258,241.856223 C383.681604,241.856223 379.290457,244.212181 374.651817,248.924096 C379.290457,252.41288 383.681604,254.157271 387.825258,254.157271 Z" id="Oval-12-Copy" fill="#FFFFFF" mask="url(#mask-10)" transform="translate(386.865598, 248.006747) rotate(7.000000) translate(-386.865598, -248.006747) "></path>
                            <path d="M333.78266,309.443679 C333.839735,309.287664 333.905085,309.127655 333.979052,308.963455 C334.495308,307.817407 343.041483,293.531479 348.942234,292.352696 C361.741854,289.795738 369.20653,287.107331 379.462072,287.107331 C389.717614,287.107331 399.121366,295.740531 399.121366,301.953425 C399.121366,305.16092 399.98715,310.363467 397.046064,311.413125 C398.748026,311.343563 400.322644,311.310005 401.724583,311.330662 C422.944114,311.643317 405.97864,361.763625 379.857343,363.77332 C336.284549,367.125681 315.869657,366.863638 292.123175,350.3716 C291.736674,350.103173 278.119878,337.350659 277.762343,337.085972 C262.335526,325.665331 276.526296,314.728476 275.428346,295.637512 C274.580744,280.899543 270.111709,258.712955 270.740186,251.846386 C271.050147,248.459842 281.665106,249.634031 281.980608,251.846386 C283.203903,260.424352 291.525224,278.580212 299.979168,289.770323 C308.433111,300.960435 317.688293,305.204064 325.255059,309.477036 C327.439252,310.710456 330.466652,310.301539 333.78266,309.443679 Z M353.423921,309.235359 C353.48715,309.313962 353.549549,309.39451 353.611105,309.477036 C356.808988,313.764413 370.737698,313.129575 383.757234,312.248061 C382.318129,309.125071 380.759319,304.586932 379.462072,304.586932 C376.10909,304.586932 360.312246,304.263639 353.423921,309.235359 Z" id="Combined-Shape" fill="#2300FF" mask="url(#mask-10)"></path>
                            <path d="M409.627374,293.534659 C429.471961,293.534659 440.036175,281.216249 440.036175,275.911184 C440.036175,272.713016 401.516172,279.364095 388.368351,264.576628 C386.024444,261.940416 385.206954,257.186633 383.463764,254.125607 C378.595626,245.5772 374.885404,239.336221 375.063265,245.388425 C375.478765,259.526984 366.830119,268.139087 361.180328,274.36475 C359.580813,276.1273 359.276571,280.253333 361.180328,282.547938 C363.084085,284.842543 364.705835,286.721371 367.27744,287.630704 C369.085461,288.270029 376.559557,286.183192 379.050781,286.670392 C388.710496,288.559506 397.470489,293.534659 409.627374,293.534659 Z" id="Oval-2" fill="#B200FE" mask="url(#mask-10)"></path>
                        </g>
                        <path d="M326.504371,157.522873 C341.474294,155.054823 342.818278,166.171153 354.891807,166.046034 C358.789985,166.005637 365.241568,172.904699 367.906128,172.401193 C369.434708,172.112347 373.897405,177.055153 374.881224,176.575626 C376.836023,175.62283 372.706228,160.860077 372.139361,159.479468 C370.725485,156.035958 365.207423,153.753299 361.599554,150.491927 C358.773803,147.93756 355.242927,147.249398 351.577964,144.795938 C349.044838,143.100171 346.988059,139.441591 342.843475,138.323577 C342.477,138.224719 336.846169,135.712403 336.472059,135.62001 C322.176742,132.089524 308.053545,133.984356 302.072678,133.984356 C296.449989,133.984356 289.317114,133.092216 271.029211,140.517385 C269.135065,141.286437 261.860263,142.752374 259.9975,143.672463 C258.347836,144.487295 252.399662,150.788774 250.797825,151.73197 C248.248787,153.232899 244.913001,156.639829 242.556617,158.49635 C224.764118,172.514499 223.83893,191.231308 223.83893,196.001417 C223.83893,196.967127 221.036398,200.326169 222.778931,219.929867 C223.06539,223.152563 225.493465,225.766333 225.501973,231.744128 C225.508347,236.222229 227.24542,238.762787 226.979029,243.963773 C226.707417,249.266689 228.688764,251.174561 229.813622,255.686224 C231.942938,264.226647 234.213648,273.893112 234.879237,275.94078 C236.013253,279.429554 234.554337,279.024818 241.035462,289.584832 C242.748236,292.375539 247.187572,299.679302 248.391258,306.123419 C251.111523,320.686777 253.345266,321.249268 253.11531,313.860447 C252.681367,299.917256 248.730171,300.895275 246.116901,292.948429 C243.503631,285.001583 236.946115,264.902116 239.057828,256.760552 C242.276445,244.351396 247.557148,241.59964 256.745237,241.59964 C269.79693,241.59964 269.960726,259.865142 272.290379,254.017705 C274.240558,249.122747 281.812424,254.069092 281.812424,252.397013 C281.812424,234.932881 290.100363,234.330577 288.64501,214.509369 C287.80978,203.133937 293.521937,199.717589 297.962381,194.136758 C302.402826,188.555927 286.634117,182.100514 295.951488,166.046034 C302.012487,155.602511 318.550233,158.83425 326.504371,157.522873 Z" id="Oval-3" fill="#00EDC8"></path>
                        <path d="M355.049194,231.979833 C346.323686,231.979833 324.590604,234.602281 324.590604,229.651442 C324.590604,227.112233 330.114458,225.90932 335.077807,223.890627 C339.79178,221.97336 340.930241,219.174497 345.180571,219.174497 C353.906078,219.174497 371.810801,223.339192 371.810801,228.290031 C371.810801,229.854274 371.787705,231.447598 370.445197,231.979833 C367.538661,233.132126 361.017832,231.979833 355.049194,231.979833 Z M397.522733,224.16171 C400.20501,222.580132 400.563928,234.107065 397.522733,235.769062 C393.699231,237.858586 386.831557,235.763359 386.831557,233.005838 C386.831557,228.054999 395.382431,225.423718 397.522733,224.16171 Z" id="Combined-Shape" fill="#A900F5"></path>
                        <path d="M343.804943,251.785235 C350.365876,251.785235 355.684564,249.104313 355.684564,245.151317 C355.684564,241.198321 350.365876,239.651007 343.804943,239.651007 C339.430987,239.651007 334.795783,241.975014 329.899329,246.623029 C334.795783,250.0645 339.430987,251.785235 343.804943,251.785235 Z" id="Oval-12" fill="#FFFFFF"></path>
                        <path d="M355.857593,274.869789 C359.568871,274.869789 370.065889,267.526736 371.455852,260.263902 C371.518748,259.935259 374.292618,253.599807 374.292618,253.291553 C374.292618,252.612126 373.098256,243.129558 375.198256,244.016717 C375.997561,244.354389 387.169408,240.770799 384.8956,247.411679 C383.075748,252.726735 384.765896,260.326336 386.828436,262.793446 C397.234383,275.240532 396.277573,276.593627 396.390274,278.235647 C396.44534,279.037938 405.658929,274.780272 409.011471,260.821875 C412.364013,246.863478 408.319248,243.637724 405.985448,240.083648 C404.495364,237.814444 401.074655,236.825066 396.745208,237.552445 C391.85245,238.374463 390.073907,240.909981 388.930317,243.104356 C388.004415,244.881022 383.603123,241.28902 382.160934,241.065973 C377.34544,240.321215 373.803822,241.40862 373.602642,241.065973 C370.753856,236.213961 372.421978,232.955849 362.105839,231.395118 C358.555848,230.858039 352.27453,232.861864 347.813535,236.381635 C347.800066,236.392262 345.361818,239.359063 343.818267,239.281467 C329.894233,238.581492 261.164932,232.095806 261.021825,232.202077 C260.295721,232.741279 245.174951,243.211633 246.566985,243.551666 C246.785764,243.605107 248.249551,243.477341 250.597486,241.89785 C254.503731,239.27006 260.274383,234.568905 262.552252,234.275626 C269.526778,233.377646 342.572536,243.161212 342.510626,244.016717 C342.174469,248.661959 340.805197,256.068358 340.805197,260.821875 C340.805197,267.371943 351.418328,274.869789 355.857593,274.869789 Z" id="Oval-9" fill="#121212"></path>
                        <path d="M386.679992,249.286956 C384.908929,254.589566 384.672747,260.54461 386.679992,263.005944 C395.003552,273.212499 395.856766,275.942029 395.957586,277.500101 C395.97943,277.837678 396.746961,276.835221 396.766492,277.126947 C396.820082,277.92736 402.45396,274.788642 405.716624,260.862927 C408.979287,246.937212 406.380425,246.350013 404.109192,242.804259 C402.659056,240.540367 400.979871,239.115856 396.766492,239.841532 C392.004905,240.661626 391.622033,243.109631 390.58023,244.329145 C389.538426,245.548658 388.892842,242.661624 386.679992,249.286956 Z" id="Oval-9" fill="#FFF200"></path>
                        <path d="M356.504211,273.020134 C359.698084,273.020134 368.731665,266.50024 369.927848,260.051572 C369.981975,259.759771 372.369128,254.134525 372.369128,253.860827 C372.369128,253.257563 371.948477,243.309975 371.775344,243.005739 C369.32372,238.697639 370.759282,235.804763 361.881361,234.418991 C358.82629,233.942119 353.420678,235.721314 349.581611,238.846517 C349.570019,238.855953 346.856703,239.919619 346.143341,241.421277 C344.946162,243.941389 345.071282,244.866101 345.018004,245.625703 C344.728712,249.750212 343.550336,256.326351 343.550336,260.546997 C343.550336,266.362799 352.683843,273.020134 356.504211,273.020134 Z" id="Oval-9" fill="#FFF200"></path>
                        <path d="M263.038832,293.486183 C272.461801,293.02929 274.052316,285.942177 270.561384,282.615819 C267.070452,279.289462 262.206342,269.9589 263.821007,263.957249 C265.76409,256.734882 259.614726,262.221911 259.614726,253.211682 C259.614726,237.641222 250.251437,238.135995 243.623417,238.135995 C239.265098,238.135995 234.661036,242.209073 233.653675,250.40713 C233.129067,254.676469 235.682933,259.079453 237.279443,265.815213 C242.059066,285.980694 256.059266,293.824602 263.038832,293.486183 Z" id="Oval-4" fill="#BC00FF"></path>
                        <path d="M243.889258,261.501659 C243.224679,273.264495 239.272692,264.642398 237.722105,255.380137 C236.171517,246.117875 240.188699,244.201342 242.647547,244.201342 C245.106395,244.201342 258.11351,250.848334 254.988878,255.380137 C251.864245,259.911939 244.553836,249.738824 243.889258,261.501659 Z M255.341704,267.450609 C251.374286,271.982412 255.290385,274.363746 250.160696,272.801836 C244.503835,271.079411 245.974128,273.376331 245.739775,268.973997 C245.29291,260.579589 251.367603,257.69486 254.489659,257.69486 C257.611715,257.69486 259.309122,262.918807 255.341704,267.450609 Z M263.891535,277.092647 C268.980506,283.424157 264.369982,280.84688 262.049039,280.818697 C257.31246,280.76118 252.855867,273.031374 255.612479,271.565657 C258.369091,270.099941 258.802563,270.761137 263.891535,277.092647 Z" id="Combined-Shape" fill="#9700C1"></path>
                    </g>
                </g>
            </g>
        </g>
    </g>
</svg>