<svg viewBox="0 0 906 174" xmlns="http://www.w3.org/2000/svg"><path d="M837.454 55.87v16.927c-18.695-5.634-36.772-3.406-49.19 20.63v71.585l16.21.286v4.566H748.16v-4.566l16.216-.286V63.095l-16.214-.285v-4.57h40.105v29.12c2.584-5.985 5.673-11.406 9.255-16.258 3.183-4.206 7.065-8.007 11.647-11.406 4.576-3.398 10.05-5.097 16.424-5.097 2.188 0 4.28.12 6.272.362 1.988.24 3.78.527 5.373.85l.216.056zm-598.8 0v16.927c-18.695-5.634-36.772-3.406-49.19 20.63v71.585l16.213.286v4.566h-56.314v-4.566l16.213-.286V63.095l-16.213-.285v-4.57h40.102v29.12c2.584-5.985 5.673-11.406 9.255-16.258 3.185-4.206 7.065-8.007 11.647-11.406 4.577-3.398 10.05-5.097 16.425-5.097 2.188 0 4.28.12 6.272.362 1.988.24 3.78.527 5.373.85l.218.056zM0 169.863v-4.566l24.538-.286V4.856L0 4.573V0h66.863c9.357 0 17.47.85 24.34 2.55 6.866 1.697 12.588 4.045 17.17 7.037 4.578 2.995 8.01 6.47 10.302 10.436 2.288 3.965 3.435 8.21 3.435 12.738 0 3.564-.65 6.715-1.942 9.466-1.298 2.754-2.986 5.137-5.077 7.16-2.087 2.024-4.477 3.8-7.164 5.336-2.688 1.54-5.426 2.793-8.212 3.763-6.57 2.424-14.036 3.967-22.396 4.612 12.34.968 23.29 3.48 32.848 7.52 4.18 1.783 8.212 3.925 12.094 6.433 3.88 2.507 7.362 5.58 10.45 9.218 3.085 3.64 5.57 7.85 7.467 12.62 1.888 4.772 2.835 10.232 2.835 16.38 0 7.603-1.79 14.72-5.375 21.353-3.582 6.634-8.71 12.417-15.378 17.35-6.673 4.938-14.687 8.82-24.04 11.65-9.36 2.83-19.813 4.245-31.358 4.245H0zm267.173-55.81c0 10.354.942 19.01 2.835 25.963 1.89 6.957 4.38 12.582 7.466 16.863 3.086 4.29 6.57 7.322 10.452 9.1 3.882 1.78 7.915 2.668 12.094 2.668 5.175 0 10.052-.806 14.634-2.427 4.577-1.614 8.66-3.795 12.243-6.55 3.584-2.75 6.52-6.066 8.81-9.95 2.286-3.88 3.83-8.09 4.628-12.62h4.478c-.796 5.18-2.538 9.99-5.224 14.44-2.69 4.45-6.124 8.294-10.305 11.528-4.182 3.238-9.01 5.785-14.483 7.642-5.478 1.86-11.4 2.793-17.77 2.793-7.566 0-14.734-1.338-21.5-4.005-6.77-2.672-12.793-6.554-18.066-11.647-5.277-5.097-9.46-11.32-12.542-18.686-3.088-7.36-4.63-15.73-4.63-25.112 0-9.708 1.494-18.282 4.48-25.726 2.987-7.437 6.915-13.625 11.795-18.562 4.876-4.933 10.55-8.694 17.02-11.283 6.47-2.587 13.29-3.883 20.457-3.883 7.168 0 13.984 1.295 20.455 3.883 6.467 2.59 12.14 6.35 17.022 11.283 4.875 4.937 8.81 11.125 11.797 18.562 2.987 7.444 4.48 16.018 4.48 25.726h-80.63zm103.022 50.958V63.096l-16.213-.285v-4.57h40.102V72.8c1.988-3.232 4.674-6.226 8.063-8.98 2.786-2.264 6.368-4.365 10.75-6.307 4.377-1.94 9.557-2.914 15.527-2.914 5.973 0 11.497.89 16.576 2.67 5.075 1.78 9.503 4.246 13.287 7.4 3.78 3.154 6.72 6.957 8.81 11.405 2.09 4.45 3.137 9.425 3.137 14.924v74.01l16.21.287v4.566h-54.82v-4.566l14.718-.286V91c0-11.484-2.238-19.616-6.717-24.388-4.48-4.77-9.706-7.157-15.678-7.157-4.98 0-9.26 1.133-12.84 3.394-3.585 2.266-6.674 4.775-9.26 7.522-2.984 3.238-5.575 6.877-7.763 10.92v83.72l14.72.285v4.566H353.98v-4.566l16.213-.286zm229.94 0l16.212.287v4.566h-40.104v-14.56c-2.19 3.395-4.976 6.474-8.36 9.22-2.792 2.27-6.323 4.33-10.602 6.188-4.28 1.86-9.404 2.794-15.376 2.794-6.375 0-12.692-1.337-18.962-4.004-6.27-2.672-11.847-6.554-16.724-11.647-4.88-5.098-8.86-11.32-11.943-18.687-3.09-7.36-4.63-15.73-4.63-25.112 0-9.383 1.54-17.753 4.63-25.118 3.084-7.357 7.212-13.59 12.392-18.685 5.175-5.09 11.05-8.975 17.618-11.646 6.572-2.668 13.438-4.004 20.606-4.004 5.57 0 10.35.647 14.334 1.94 3.98 1.297 7.265 2.672 9.854 4.126 2.987 1.784 5.377 3.804 7.166 6.066V4.856l-16.21-.282V0h40.1v165.012zm31.416-79.907c-.07-1.56-.06-2.194-.06-3.81 0-3.4.994-6.676 2.986-9.83 1.988-3.154 4.926-5.982 8.812-8.493 3.88-2.505 8.554-4.525 14.032-6.066 5.473-1.535 11.795-2.305 18.96-2.305 14.335 0 25.633 3.32 33.895 9.95C718.435 71.18 722.57 80 722.57 91v74.012l16.21.285v4.567h-40.1v-14.56c-2.194 3.395-4.98 6.473-8.363 9.22-2.79 2.268-6.32 4.33-10.6 6.187-4.282 1.863-9.407 2.795-15.38 2.795-14.333 0-25.134-2.754-32.402-8.25-7.267-5.5-10.897-12.86-10.897-22.084 0-4.523 1.54-9.057 4.627-13.59 3.084-4.522 7.765-8.57 14.036-12.13 6.27-3.555 14.284-6.43 24.04-8.614 9.753-2.183 21.398-3.276 34.94-3.276V91c0-12.133-2.24-20.627-6.72-25.48-4.477-4.854-9.705-7.28-15.68-7.28-5.97 0-10.95 1.66-14.93 4.976-3.984 3.316-5.85 7.728-5.97 13.222-.08 3.484.046 8.55.046 8.55l-23.874.116zM865.9 165.01V63.096l-16.21-.285v-4.57h40.103v106.772l16.208.286v4.566h-56.31v-4.566l16.212-.286zm24.206-138.48c0 7.594-6.157 13.75-13.753 13.75-7.595 0-13.754-6.156-13.754-13.75 0-7.597 6.16-13.754 13.753-13.754 7.596 0 13.753 6.157 13.753 13.753zM49.92 65.52v99.492h16.943c6.768 0 13.038-1.05 18.814-3.155 5.772-2.103 10.798-5.254 15.08-9.464 4.28-4.204 7.663-9.38 10.154-15.53 2.49-6.147 3.735-13.35 3.735-21.598 0-8.25-1.245-15.446-3.733-21.596-2.49-6.148-5.872-11.323-10.153-15.533-4.283-4.204-9.31-7.36-15.08-9.466-5.777-2.097-12.047-3.15-18.815-3.15H49.92zm0-4.854h16.943c8.96-.158 16.173-2.547 21.65-7.156 5.475-4.614 8.215-11.526 8.215-20.75 0-9.22-2.74-16.174-8.214-20.87-5.478-4.687-12.692-7.035-21.65-7.035H49.918v55.81zm244.128-2.426c-2.987 0-5.973.77-8.957 2.305-2.986 1.538-5.776 4.245-8.36 8.127-2.59 3.884-4.733 9.103-6.42 15.652-1.694 6.554-2.74 14.848-3.136 24.874h53.75c-.4-10.026-1.446-18.32-3.134-24.874-1.696-6.55-3.837-11.768-6.42-15.652-2.59-3.882-5.377-6.59-8.363-8.127-2.987-1.536-5.973-2.305-8.96-2.305zm255.32 1.215c-4.18 0-8.212.932-12.094 2.79-3.883 1.86-7.37 4.894-10.452 9.1-3.09 4.206-5.575 9.79-7.467 16.742-1.892 6.96-2.834 15.616-2.834 25.967 0 10.354.944 19.01 2.836 25.963 1.892 6.957 4.28 12.582 7.168 16.863 2.883 4.29 6.072 7.324 9.558 9.102 3.48 1.78 6.915 2.667 10.3 2.667 4.78 0 9.01-1.13 12.694-3.396 3.68-2.266 6.817-4.77 9.406-7.524 2.986-3.07 5.572-6.71 7.763-10.92v-72.8c-1.993-2.75-4.282-5.175-6.868-7.28-2.192-1.778-4.926-3.435-8.212-4.974-3.284-1.534-7.217-2.303-11.794-2.303zm149.312 50.958c-17.322 0-30.115 3.117-38.375 9.34-8.262 6.23-12.392 14.846-12.392 25.846 0 7.274 2.188 12.944 6.57 16.98 4.377 4.048 9.154 6.068 14.334 6.068 4.778 0 9.005-1.13 12.692-3.395 3.68-2.266 6.815-4.77 9.404-7.523 2.988-3.07 5.57-6.713 7.765-10.923V110.41z" fill="#FFF" fill-rule="evenodd"/></svg>