
<svg width="961px" height="303px" viewBox="0 0 961 303" version="1.1" xmlns="http://www.w3.org/2000/svg" xmlns:xlink="http://www.w3.org/1999/xlink">
    <defs>
        <path d="M1374.37542,97.5666132 L1374.37542,127.129251 C1341.75054,117.290522 1310.20263,121.18018 1288.53317,163.155037 L1288.53317,288.169132 L1316.8223,288.667726 L1316.8223,296.642144 L1218.54533,296.642144 L1218.54533,288.667726 L1246.84066,288.169132 L1246.84066,110.186323 L1218.54533,109.687728 L1218.54533,101.707117 L1288.53317,101.707117 L1288.53317,152.560675 C1293.04222,142.108768 1298.43328,132.641664 1304.68468,124.168651 C1310.23976,116.822896 1317.01418,110.186323 1325.01102,104.24964 C1332.99858,98.3160536 1342.55208,95.3492605 1353.67462,95.3492605 C1357.49355,95.3492605 1361.14535,95.562944 1364.62076,95.9841171 C1368.08998,96.4052902 1371.21568,96.9038849 1373.99786,97.4706105 C1374.14022,97.5077728 1374.23616,97.5294508 1374.37542,97.5666132 Z M329.375168,97.5666132 L329.375168,127.129251 C296.747189,117.290522 265.199278,121.18018 243.529818,163.155037 L243.529818,288.169132 L271.822049,288.667726 L271.822049,296.642144 L173.545076,296.642144 L173.545076,288.667726 L201.840402,288.169132 L201.840402,110.186323 L173.545076,109.687728 L173.545076,101.707117 L243.529818,101.707117 L243.529818,152.560675 C248.038873,142.108768 253.429932,132.641664 259.681333,124.168651 C265.239509,116.822896 272.010829,110.186323 280.00767,104.24964 C287.995227,98.3160536 297.54873,95.3492605 308.671271,95.3492605 C312.490196,95.3492605 316.142005,95.562944 319.617412,95.9841171 C323.08663,96.4052902 326.212331,96.9038849 328.994514,97.4706105 C329.136872,97.5077728 329.23281,97.5294508 329.375168,97.5666132 Z M379.142818,199.177417 C379.142818,217.25999 380.786131,232.37577 384.091328,244.518563 C387.390334,256.667549 391.732272,266.490793 397.120237,273.966616 C402.505107,281.457924 408.586297,286.756653 415.360711,289.862805 C422.135125,292.972054 429.172593,294.520484 436.466925,294.520484 C445.497414,294.520484 454.007985,293.114509 462.004826,290.283978 C469.992383,287.462738 477.116504,283.653598 483.371,278.844173 C489.625496,274.040941 494.747312,268.24981 498.745732,261.470781 C502.734869,254.688655 505.430399,247.3429 506.823037,239.43042 L514.637288,239.43042 C513.247744,248.476351 510.208697,256.878136 505.520146,264.648161 C500.831596,272.418186 494.837059,279.129084 487.539632,284.777759 C480.242205,290.432627 471.818287,294.87972 462.264785,298.122134 C452.705094,301.370741 442.368619,302.99969 431.255361,302.99969 C418.050051,302.99969 405.54106,300.664657 393.734578,296.006978 C381.918811,291.340008 371.405935,284.560979 362.205235,275.666793 C352.995251,266.763317 345.697823,255.896431 340.316048,243.032069 C334.928083,230.180095 332.238743,215.56291 332.238743,199.177417 C332.238743,182.225199 334.844525,167.251875 340.056089,154.251252 C345.267653,141.263016 352.12253,130.458067 360.63929,121.836405 C369.149861,113.220937 379.049975,106.652494 390.345823,102.131077 C401.632387,97.6127564 413.534806,95.3489508 426.043798,95.3489508 C438.552789,95.3489508 450.449019,97.6127564 461.741772,102.131077 C473.028336,106.652494 482.92845,113.220937 491.448305,121.836405 C499.955781,130.458067 506.823037,141.263016 512.034601,154.251252 C517.246165,167.251875 519.851947,182.225199 519.851947,199.177417 L379.142818,199.177417 Z M558.933724,288.168822 L558.933724,110.186013 L530.638399,109.687418 L530.638399,101.706807 L600.62314,101.706807 L600.62314,127.132038 C604.092358,121.489557 608.780909,116.262055 614.694982,111.452629 C619.556838,107.497937 625.808239,103.828157 633.455374,100.437094 C641.093224,97.0491277 650.132997,95.3489508 660.55303,95.3489508 C670.976158,95.3489508 680.616313,96.9035752 689.479685,100.015921 C698.336868,103.125169 706.064466,107.429807 712.668668,112.936026 C719.263587,118.445342 724.394687,125.088109 728.043401,132.855037 C731.692114,140.628159 733.518019,149.314855 733.518019,158.918221 L733.518019,288.168822 L761.807155,288.667417 L761.807155,296.641834 L666.139059,296.641834 L666.139059,288.667417 L691.822413,288.168822 L691.822413,158.918221 C691.822413,138.862948 687.916835,124.660742 680.099489,116.327089 C672.279049,107.996532 663.161907,103.828157 652.738779,103.828157 C644.048713,103.828157 636.581074,105.807051 630.329673,109.755549 C624.075178,113.716435 618.684118,118.098493 614.171968,122.895532 C608.963499,128.5504 604.442065,134.905159 600.62314,141.966003 L600.62314,288.168822 L626.309589,288.667417 L626.309589,296.641834 L530.638399,296.641834 L530.638399,288.667417 L558.933724,288.168822 Z M960.213619,288.169132 L988.508944,288.667726 L988.508944,296.642144 L918.521108,296.642144 L918.521108,271.216913 C914.695993,277.144306 909.837231,282.520457 903.929348,287.317495 C899.058207,291.27838 892.896554,294.88003 885.428915,298.122444 C877.955087,301.371051 869.014346,303 858.591218,303 C847.465582,303 836.442072,300.664967 825.499026,296.007287 C814.55598,291.340317 804.822982,284.561288 796.312411,275.667103 C787.795651,266.763627 780.851026,255.896741 775.469251,243.032379 C770.075096,230.180405 767.388851,215.56322 767.388851,199.177727 C767.388851,182.792234 770.075096,168.175049 775.469251,155.313785 C780.851026,142.464907 788.055611,131.582537 797.095384,122.682158 C806.125873,113.787972 816.378789,107.005846 827.841754,102.341973 C839.310908,97.681197 851.293791,95.3492605 863.802782,95.3492605 C873.526496,95.3492605 881.86376,96.4796149 888.81767,98.7403236 C895.762295,101.004129 901.496872,103.404197 906.015212,105.943623 C911.226775,109.059065 915.398502,112.58639 918.521108,116.537985 L918.521108,8.47920606 L890.231972,7.98680512 L890.231972,0 L960.213619,0 L960.213619,288.169132 Z M1015.04119,148.620848 C1014.92049,145.89561 1014.93287,144.790031 1014.93287,141.965693 C1014.93287,136.032107 1016.66903,130.309108 1020.14444,124.802888 C1023.61365,119.293572 1028.74166,114.354079 1035.52226,109.968923 C1042.29358,105.593058 1050.45135,102.065733 1060.01104,99.3745608 C1069.56455,96.6926789 1080.59734,95.3486412 1093.10324,95.3486412 C1118.11812,95.3486412 1137.83479,101.145965 1152.25325,112.72513 C1166.66861,124.310487 1173.88248,139.708081 1173.88248,158.917912 L1173.88248,288.168512 L1202.17471,288.667107 L1202.17471,296.641525 L1132.19306,296.641525 L1132.19306,271.216294 C1128.36485,277.143686 1123.4999,282.519837 1117.5982,287.316875 C1112.73016,291.277761 1106.56851,294.87941 1099.10087,298.121824 C1091.62704,301.370432 1082.6832,302.999381 1072.26008,302.999381 C1047.24519,302.999381 1028.39505,298.189955 1015.71275,288.592782 C1003.03045,278.986319 996.695494,266.131248 996.695494,250.024472 C996.695494,242.124379 999.38174,234.205705 1004.7697,226.293225 C1010.15148,218.393132 1018.32163,211.326094 1029.26467,205.107597 C1040.20772,198.89839 1054.18981,193.878378 1071.21714,190.063045 C1088.23519,186.250809 1108.55843,184.343142 1132.19306,184.343142 L1132.19306,158.917912 C1132.19306,137.729187 1128.28129,122.895222 1120.46704,114.42221 C1112.6497,105.943003 1103.52636,101.706497 1093.10324,101.706497 C1082.6832,101.706497 1073.99314,104.605159 1067.04851,110.39629 C1060.09151,116.18742 1056.83892,123.892411 1056.62538,133.486487 C1056.48921,139.57182 1056.70585,148.419552 1056.70585,148.419552 L1015.04119,148.620848 Z M1424.02145,288.168822 L1424.02145,110.186013 L1395.72612,109.687418 L1395.72612,101.706807 L1465.71396,101.706807 L1465.71396,288.168822 L1494,288.667417 L1494,296.641834 L1395.72612,296.641834 L1395.72612,288.667417 L1424.02145,288.168822 Z M1466.25987,46.3278053 C1466.25987,59.591662 1455.51489,70.3439642 1442.26006,70.3439642 C1429.00524,70.3439642 1418.25716,59.591662 1418.25716,46.3278053 C1418.25716,33.0639487 1429.00524,22.3116464 1442.26006,22.3116464 C1455.51489,22.3116464 1466.25987,33.0639487 1466.25987,46.3278053 Z M1.36424205e-12,114.422519 L29.5703638,114.422519 C41.3799408,114.422519 52.322987,116.262055 62.4025971,119.925642 C72.4760177,123.601616 81.2465474,129.114029 88.7203756,136.456687 C96.1911091,143.808635 102.092803,152.845277 106.440931,163.578998 C110.782869,174.318912 112.955385,186.885975 112.955385,201.292574 C112.955385,215.699172 110.782869,228.275526 106.440931,239.009247 C102.092803,249.752258 96.1911091,258.788899 88.7203756,266.131557 C81.2465474,273.483506 72.4760177,278.986628 62.4025971,282.659506 C52.322987,286.332383 41.3799408,288.168822 29.5703638,288.168822 L1.36424205e-12,288.168822 L1.36424205e-12,114.422519 Z M1.36424205e-12,105.943313 L1.36424205e-12,8.47889637 L29.5703638,8.47889637 C45.2050553,8.47889637 57.7945101,12.5791406 67.3542017,20.7641449 C76.9077039,28.9646334 81.6890971,41.1074263 81.6890971,57.2111048 C81.6890971,73.31788 76.9077039,85.3894451 67.3542017,93.4474781 C57.7945101,101.49622 45.2050553,105.667692 29.5703638,105.943313 L1.36424205e-12,105.943313 Z M426.043798,101.706807 C420.832234,101.706807 415.62067,103.050845 410.412201,105.732727 C405.197542,108.417705 400.329496,113.146612 395.817346,119.925642 C391.299007,126.707768 387.560546,135.82183 384.614341,147.258539 C381.658852,158.704538 379.832948,173.188558 379.142818,190.698211 L472.947872,190.698211 C472.245363,173.188558 470.422554,158.704538 467.476349,147.258539 C464.517765,135.82183 460.782399,126.707768 456.273344,119.925642 C451.75191,113.146612 446.890053,108.417705 441.678489,105.732727 C436.466925,103.050845 431.255361,101.706807 426.043798,101.706807 Z M871.620128,103.828467 C864.322701,103.828467 857.288327,105.457416 850.513913,108.699829 C843.736405,111.951534 837.65212,117.247166 832.27344,124.592921 C826.88238,131.938676 822.543537,141.687595 819.241435,153.830388 C815.939334,165.985568 814.29602,181.101348 814.29602,199.177727 C814.29602,217.2603 815.939334,232.37608 819.241435,244.518872 C822.543537,256.667859 826.709074,266.491103 831.750427,273.966926 C836.782495,281.458233 842.34686,286.756963 848.431145,289.863115 C854.50305,292.972363 860.497586,294.520794 866.405469,294.520794 C874.745828,294.520794 882.126814,292.548093 888.557711,288.593402 C894.982417,284.635613 900.453941,280.262845 904.97228,275.453419 C910.183844,270.092753 914.695993,263.7318 918.521108,256.379851 L918.521108,129.2506 C915.042606,124.450466 911.04728,120.213959 906.53513,116.537985 C902.710015,113.431833 897.937906,110.539365 892.203329,107.851289 C886.471847,105.172504 879.607685,103.828467 871.620128,103.828467 Z M1132.19306,192.819252 C1101.96351,192.819252 1079.63797,198.263534 1065.22261,209.13042 C1050.80415,220.009693 1043.59647,235.057342 1043.59647,254.267172 C1043.59647,266.973594 1047.4154,276.874259 1055.06253,283.925812 C1062.70038,290.99285 1071.03765,294.520175 1080.07742,294.520175 C1088.41469,294.520175 1095.79258,292.547474 1102.22657,288.592782 C1108.65127,284.634994 1114.1228,280.262225 1118.64114,275.455897 C1123.8558,270.092133 1128.36485,263.73118 1132.19306,256.379232 L1132.19306,192.819252 Z" id="path-1"></path>
        <path d="M271.96893,511.269156 C274.658151,511.269156 289.502688,556.085441 314.629402,600.157133 C320.487021,610.431266 319.871529,634.762594 314.629402,652.782108 C296.669191,714.519304 308.450144,699.483611 335.748676,719.80611 C363.047207,740.12861 475.888056,814.701523 475.888056,760.796456 C475.888056,736.212688 495.995759,737.138323 492.903296,712.857403 C489.810833,688.576484 497.686004,678.618365 503.758061,678.702733 C532.759083,679.105688 555.620606,678.747455 567.940203,666.341014 C571.490918,662.765269 578.445617,651.968177 576.194973,637.321528 C574.218624,624.459917 570.167747,626.387051 570.56013,616.190141 C570.778766,610.50844 577.212669,599.574712 578.233757,592.990632 C578.788887,589.411099 575.296609,586.541811 570.56013,583.54309 C569.200221,582.682115 573.649907,581.510545 576.687379,579.328267 C578.869128,577.760785 579.528412,574.845652 580.4844,575.001911 C582.253908,575.291143 585.237202,565.351053 582.538715,557.262171 C581.618616,554.504117 582.227848,550.231303 580.4844,548.024368 C577.087579,543.724519 571.136757,542.551307 572.217639,542.667484 C574.793669,542.944367 573.511021,538.911545 575.875255,539.020664 C590.129504,539.678559 598.375746,539.428743 601.906071,532.99652 C612.711162,513.30973 590.555901,500.523101 574.401208,471.84539 C572.183405,467.90836 574.077314,458.587213 575.875255,457.864757 C580.749754,455.906067 583.963311,447.613772 582.538715,433.580577 C581.115545,419.561426 568.256139,406.913922 559.345858,384.40556 C555.042596,373.535042 541.839408,351.702054 534.633578,343.418355 C521.573416,328.404616 504.802996,313.597324 498.826073,314.882071 C475.871028,319.816284 384.161266,319.442319 377.06323,319.442319 C359.047404,319.442319 335.748676,378.765169 335.748676,399.605011 C335.748676,420.444853 253.953104,511.269156 271.96893,511.269156 Z" id="path-3"></path>
        <path d="M406.328082,763.422317 C410.345842,763.422317 432.523936,830.341575 470.063846,896.149014 C478.815269,911.490252 477.895711,947.821563 470.063846,974.728133 C443.230863,1066.91354 460.831887,1044.46238 501.616546,1074.80775 C542.401205,1105.15311 710.98813,1216.50469 710.98813,1136.01415 C710.98813,1099.30589 741.029519,1100.68804 736.409305,1064.432 C731.789092,1028.17596 743.554785,1013.30659 752.626584,1013.43257 C795.954804,1014.03426 830.110465,1013.49935 848.516239,994.974164 C853.821091,989.634896 864.211577,973.512779 860.849062,951.64254 C857.896349,932.437702 851.844242,935.315281 852.430472,920.089351 C852.757119,911.605488 862.369523,895.279347 863.895054,885.448061 C864.724431,880.103135 859.506884,875.818742 852.430472,871.341079 C850.398735,870.055479 857.046673,868.306102 861.584729,865.047545 C864.844313,862.706996 865.829299,858.354147 867.257569,858.587472 C869.901255,859.01935 874.358369,844.1769 870.326764,832.098657 C868.952115,827.980358 869.862321,821.600232 867.257569,818.304857 C862.182637,811.884361 853.291967,810.132532 854.90683,810.306008 C858.75548,810.719446 856.839174,804.697674 860.371395,804.86061 C881.667584,805.842972 893.987667,805.469949 899.262056,795.865414 C915.40512,766.469284 882.304632,747.376409 858.169134,704.55512 C854.855684,698.676384 857.685228,684.758133 860.371395,683.679369 C867.654013,680.754672 872.455144,668.372694 870.326764,647.418459 C868.200514,626.485194 848.988255,607.60006 835.676081,573.990784 C829.246905,557.759029 809.521027,525.158215 798.755344,512.789073 C779.24315,490.370698 754.187742,468.260589 745.258076,470.178961 C710.96269,477.546681 573.946114,476.98828 563.341478,476.98828 C536.425403,476.98828 501.616546,565.568604 501.616546,596.686462 C501.616546,627.804319 379.412008,763.422317 406.328082,763.422317 Z" id="path-5"></path>
        <path d="M538.680193,561.601294 C541.947953,561.601294 520.466221,617.263772 550.998508,673.412974 C558.116291,686.502653 556.341214,741.002254 546.320505,761.317002 C536.299796,781.631751 523.600963,798.892634 514.688952,804.831207 C495.935913,817.327411 528.582203,833.432775 553.832598,853.141849 C587.003931,879.033573 724.120516,974.04262 724.120516,905.365284 C724.120516,874.044523 734.885944,879.213364 737.712363,843.983391 C740.538783,808.753417 761.212753,804.723718 768.591106,804.831207 C803.831191,805.344589 817.874334,803.364969 832.844277,787.558638 C837.158866,783.002988 860.973565,773.55532 858.238735,754.894869 C855.837208,738.508632 854.700991,746.196638 855.177788,733.205344 C855.443459,725.966616 856.997977,716.717019 858.238735,708.328623 C858.913291,703.768146 857.077082,679.337912 858.238735,679.536994 C860.388921,679.905487 871.553186,674.387499 868.274167,664.08192 C867.156125,660.568044 864.542648,648.854283 862.424128,646.042554 C858.296541,640.564364 842.311429,633.883237 843.624843,634.031252 C846.755061,634.384012 862.354578,625.424574 868.274167,620.083762 C883.497808,606.348584 855.640998,588.297842 848.484105,573.472378 C845.956823,568.237127 851.614521,553.985677 848.484105,548.159173 C845.78918,543.143231 876.545003,519.812437 877.249103,516.55038 C880.90504,499.612623 868.357434,489.937255 858.238735,465.169009 C851.965834,449.814392 857.432224,451.118387 846.605051,422.441781 C841.376018,408.592281 823.833495,388.091345 815.077457,377.537561 C807.031987,367.840238 747.281017,320.100198 696.924049,313.85325 C647.951025,307.777985 608.287697,343.061433 604.035256,343.061433 C582.14364,343.061433 553.832598,418.641255 553.832598,445.192096 C553.832598,471.742937 516.788577,561.601294 538.680193,561.601294 Z" id="path-7"></path>
    </defs>
    <g id="Page-1" stroke="none" stroke-width="1" fill="none" fill-rule="evenodd">
        <g id="-About" transform="translate(-959.000000, -1242.000000)">
            <g id="Mask-+-Group-8-Copy-3-Mask-Copy" transform="translate(959.000000, 1242.000000)">
                <mask id="mask-2" fill="white">
                    <use xlink:href="#path-1"></use>
                </mask>
                <use id="Mask" fill="#141414" xlink:href="#path-1"></use>
                <g id="Group-8-Copy-2" mask="url(#mask-2)">
                    <g transform="translate(-3.000000, -196.000000)">
                        <g id="Oval-6-+-Oval-6-Copy-Mask" stroke-width="1" fill="none">
                            <mask id="mask-4" fill="white">
                                <use xlink:href="#path-3"></use>
                            </mask>
                            <use id="Mask" fill="#FFF300" xlink:href="#path-3"></use>
                            <path d="M513.594362,605.208168 C519.459605,608.943706 527.136373,612.531796 535.46576,615.504868 C534.616333,613.712508 534.161311,611.818956 534.161311,609.860966 C534.161311,598.596187 549.222421,589.464278 567.801241,589.464278 C586.380062,589.464278 601.441171,598.596187 601.441171,609.860966 C601.441171,616.923418 595.52116,623.14751 586.525809,626.808451 C604.149513,639.248036 581.886818,679.139118 542.015778,679.713577 C461.200762,680.877954 424.094056,654.90575 381.075207,625.003557 C350.163812,603.517196 375.664798,587.07825 373.629667,551.661641 C372.09416,524.939801 365.185392,509.736979 366.323935,497.287002 C366.885456,491.146761 380.503648,488.646818 381.075207,492.658104 C383.291313,508.211064 406.467749,539.3139 424.094056,546.385733 C440.469452,552.95569 457.325485,556.023697 471.033351,563.771148 C481.28749,569.566612 489.514694,578.191964 498.497673,589.644313 C501.037473,585.427578 504.819627,581.748751 508.050967,574.569331 C508.98621,572.491399 517.942565,564.27139 520.67851,562.46485 C538.846514,550.468542 541.067286,542.575983 559.646107,542.575983 C578.224927,542.575983 593.286037,553.723473 593.286037,564.988253 C593.286037,576.253033 576.250309,569.76314 557.671489,569.76314 C549.159742,569.76314 503.942164,579.119552 513.594362,605.208168 Z" id="Combined-Shape" fill="#00DDED" mask="url(#mask-4)"></path>
                            <path d="M647.536928,553.971983 C695.95446,553.971983 721.729405,523.891527 721.729405,510.93703 C721.729405,503.127391 619.700559,521.996355 587.622038,485.886683 C565.932769,461.471828 551.607713,433.868908 552.197054,453.939916 C553.49781,498.239429 528.1179,510.640101 532.858724,529.364246 C533.937113,533.623404 537.935757,537.334542 544.21005,539.555052 C548.621324,541.116227 559.861907,536.000098 565.940085,537.189795 C589.508202,541.802843 617.876128,553.971983 647.536928,553.971983 Z" id="Oval-2" fill="#D100FF" mask="url(#mask-4)"></path>
                        </g>
                        <path d="M438.88414,336.259916 C465.876298,331.790624 487.769268,334.758459 509.53896,334.531888 C516.567736,334.458734 530.982993,345.161824 535.787441,344.250046 C538.543612,343.726986 540.854267,343.04391 542.628183,342.175554 C546.152867,340.450174 541.660011,325.140846 540.637898,322.640757 C534.711784,308.145476 519.904669,293.024061 487.814702,284.330404 C461.90416,277.310847 424.939355,279.434623 413.873077,279.434623 C403.734849,279.434623 369.44179,280.698102 336.467007,294.144043 C333.051687,295.536689 331.641143,301.831122 328.282409,303.497274 C325.307912,304.972821 320.37607,301.789279 317.487809,303.497274 C312.891656,306.215245 308.429582,309.238202 304.180803,312.600101 C272.09928,337.985004 255.656326,391.937479 255.656326,400.575477 C255.656326,402.324242 250.394738,445.841769 253.536687,481.341317 C255.581445,504.444169 269.952536,532.80956 273.238487,542.962254 C275.283224,549.279934 288.993502,575.25862 300.67957,594.381325 C307.773352,605.989361 314.568165,633.705892 320.434412,631.304076 C323.980465,629.852216 320.484414,619.579808 321.847871,605.225874 C322.852966,594.644637 311.328111,579.49657 312.380429,565.711485 C313.551176,550.374995 296.871956,513.546389 300.67957,498.803159 C306.483034,476.331917 330.048792,465.232608 346.615767,465.232608 C360.251068,465.232608 364.708697,516.860668 368.909276,506.27178 C372.42563,497.407698 383.584865,499.885603 383.584865,496.857702 C383.584865,465.232608 386.412978,453.192085 394.118707,421.696503 C398.965229,401.887343 426.206335,398.882988 434.212867,388.776886 C442.219399,378.670784 378.349386,361.544783 383.584865,358.10546 C400.244288,347.161451 424.542093,338.634636 438.88414,336.259916 Z" id="Oval-3" fill="#FF0000"></path>
                        <path d="M520.981627,439.452034 C536.745474,439.452034 548.43167,442.135371 548.43167,433.123547 C548.43167,424.111724 526.88647,412.013094 511.122623,412.013094 C495.358775,412.013094 468.920235,424.111724 468.920235,433.123547 C468.920235,442.135371 505.217779,439.452034 520.981627,439.452034 Z" id="Oval-10" fill="#FF0000"></path>
                        <path d="M582.731145,427.70558 C572.872141,419.150361 561.262158,430.280372 561.262158,439.292196 C561.262158,444.311606 572.899484,450.523969 579.807174,446.720487 C585.301517,443.695217 587.098876,431.495709 582.731145,427.70558 Z" id="Oval-10-Copy" fill="#FF0000"></path>
                        <path d="M514.792867,497.679183 C521.82496,497.679183 533.595582,498.645767 539.120909,495.031498 C549.078241,488.518133 553.376219,464.967152 553.376219,451.926699 C553.376219,450.6824 553.330882,449.49461 553.239636,448.360141 C553.180009,447.618788 552.292165,445.842142 556.098964,447.46688 C557.547916,448.08529 566.375327,458.433491 574.488215,471.238936 C582.879218,484.48336 590.949463,499.897775 596.763526,502.618396 C602.002486,505.069904 603.970141,466.732132 603.946501,466.612408 C603.752044,465.627586 606.07863,452.316606 601.848004,445.807693 C599.146836,441.651886 596.763526,439.374237 587.865742,439.374237 C584.96782,439.374237 577.230446,440.435912 571.520361,441.413906 C568.113131,441.997478 566.240019,444.17923 563.625672,443.770743 C554.896324,442.406799 550.523824,438.15468 550.159132,437.527159 C544.994959,428.641214 533.49358,425.18053 514.792867,422.322217 C508.357577,421.338615 493.003608,419.106061 487.267,421.739799 C486.890941,421.912452 319.891712,463.619799 319.603533,463.835999 C317.736245,465.236892 304.789042,472.270359 327.192375,469.356252 C339.835535,467.711696 481.635805,435.960393 481.523578,437.527159 C480.914204,446.034426 484.033185,452.259584 484.033185,460.965145 C484.033185,472.960897 484.983894,484.166592 492.224276,490.866347 C497.222422,495.49129 506.745533,497.679183 514.792867,497.679183 Z" id="Oval-9" fill="#2B00FF"></path>
                        <path d="M342.572979,571.702229 C383.66461,570.005234 357.048363,547.147724 360.362878,537.566158 C364.982933,524.210552 345.397391,518.531074 345.397391,501.582607 C345.397391,472.29418 325.274706,462.315242 310.636848,462.315242 C295.998989,462.315242 279.791264,481.226728 292.489701,517.008736 C305.188137,552.790744 327.158741,572.338803 342.572979,571.702229 Z" id="Oval-4" fill="#3A71FF"></path>
                        <path d="M302.060408,509.40975 C300.538744,530.746474 294.418514,509.091511 293.61269,493.864811 C292.806867,478.63811 309.712893,473.203158 315.342838,473.203158 C320.972784,473.203158 337.472325,483.872863 330.317955,492.093145 C323.163584,500.313427 303.582071,488.073027 302.060408,509.40975 Z M352.727963,541.866943 C352.004316,552.013909 344.738983,537.818072 335.488711,534.984909 C325.2878,531.860585 316.476192,528.163628 316.053589,520.17819 C315.247765,504.95149 326.202144,499.718852 331.832089,499.718852 C337.462035,499.718852 347.902423,515.49701 340.748053,523.717292 C333.593682,531.937573 354.249627,520.530219 352.727963,541.866943 Z M314.271112,532.460393 C317.013598,546.934522 343.421816,570.374481 307.819151,537.516444 C300.908658,531.138684 299.774421,517.215654 305.404367,517.215654 C311.034312,517.215654 311.528626,517.986265 314.271112,532.460393 Z" id="Combined-Shape" fill="#2300FF"></path>
                    </g>
                </g>
                <g id="Group-8-Copy-4" mask="url(#mask-2)">
                    <g transform="translate(86.000000, -655.000000)">
                        <g id="Oval-6-+-Oval-6-Copy-Mask" stroke-width="1" fill="none">
                            <mask id="mask-6" fill="white">
                                <use xlink:href="#path-5"></use>
                            </mask>
                            <use id="Mask" fill="#FFF300" xlink:href="#path-5"></use>
                            <path d="M767.322252,903.691172 C776.085066,909.269042 787.554341,914.626743 799.998644,919.066107 C798.72958,916.389771 798.049767,913.562338 798.049767,910.638686 C798.049767,893.818222 820.551424,880.182543 848.308626,880.182543 C876.065827,880.182543 898.567485,893.818222 898.567485,910.638686 C898.567485,921.184272 889.722847,930.478028 876.283578,935.944511 C902.613813,954.519184 869.352815,1014.08417 809.784527,1014.94195 C689.044962,1016.68059 633.606657,977.899135 569.335468,933.24946 C523.153105,901.166228 561.252188,876.619747 558.211653,823.735998 C555.917569,783.835196 545.595705,761.134485 547.296714,742.544297 C548.13564,733.375745 568.481545,729.642855 569.335468,735.632469 C572.646383,758.856003 607.272533,805.298466 633.606657,815.858062 C658.07189,825.66826 683.255206,830.249379 703.735085,841.817801 C719.055013,850.471534 731.346654,863.350829 744.767438,880.451369 C748.561961,874.15498 754.212589,868.66179 759.040288,857.941547 C760.437564,854.838797 773.818572,842.564758 777.906139,839.867249 C805.049571,821.954475 808.367458,810.169378 836.12466,810.169378 C863.881862,810.169378 886.383519,826.814707 886.383519,843.635171 C886.383519,860.455634 860.931736,850.764987 833.174534,850.764987 C820.45778,850.764987 752.901639,864.735893 767.322252,903.691172 Z" id="Combined-Shape" fill="#00DDED" mask="url(#mask-6)"></path>
                            <path d="M852.417109,867.736272 C883.417594,873.545535 946.698777,884.838323 944.214435,873.086456 C935.651043,832.578416 899.643962,855.630575 860.733431,851.505313 C853.672546,850.756724 849.293427,843.635171 842.704675,843.635171 C818.950663,843.635171 817.493841,853.438485 804.799106,858.321683 C794.568354,862.257078 771.814883,860.929609 770.706026,865.947766 C769.989706,869.189491 774.83375,870.882373 781.711964,871.627691 C787.430466,872.247344 800.191732,865.947766 809.081538,865.947766 C822.084822,865.947766 830.722422,863.670847 852.417109,867.736272 Z" id="Oval-6" fill="#BF002D" mask="url(#mask-6)"></path>
                            <path d="M967.435648,827.18578 C1039.7726,827.18578 1078.28098,782.269924 1078.28098,762.926391 C1078.28098,751.265111 925.847447,779.440072 877.92137,725.521446 C845.517083,689.065413 824.115108,647.848992 824.995597,677.818833 C826.938958,743.966451 789.020766,762.483019 796.10367,790.441737 C797.714809,796.801471 803.688879,802.342909 813.062823,805.658552 C819.653372,807.989685 836.447071,800.350328 845.528014,802.126773 C880.739344,809.014934 923.121704,827.18578 967.435648,827.18578 Z" id="Oval-2" fill="#D100FF" mask="url(#mask-6)"></path>
                            <path d="M852.417109,867.736272 C883.417594,873.545535 946.698777,884.838323 944.214435,873.086456 C935.651043,832.578416 907.947457,890.722515 869.036926,886.597253 C861.976041,885.848663 847.612829,886.597253 841.024077,886.597253 C817.270064,886.597253 820.78335,876.544463 806.626477,876.356041 C780.371719,876.006602 770.517964,870.938427 770.706026,865.947766 C770.991214,858.379651 774.83375,870.882373 781.711964,871.627691 C787.430466,872.247344 800.191732,865.947766 809.081538,865.947766 C822.084822,865.947766 830.722422,863.670847 852.417109,867.736272 Z" id="Oval-6-Copy" fill="#FF0000" mask="url(#mask-6)"></path>
                        </g>
                        <path d="M656.252573,501.464873 C696.669239,494.788777 729.450646,499.222041 762.047461,498.883595 C772.571988,498.774321 794.15665,514.762278 801.350583,513.400291 C805.477532,512.618959 808.937387,511.598601 811.593558,510.301477 C816.871239,507.724155 810.143867,484.855536 808.613408,481.120979 C799.73995,459.468358 777.568539,436.880439 729.518676,423.894113 C690.721565,413.408508 635.37237,416.580941 618.802296,416.580941 C603.621835,416.580941 552.273175,418.468288 502.898434,438.553434 C497.78451,440.633727 495.672434,450.036164 490.643239,452.525013 C486.18938,454.72914 478.804694,449.97366 474.47996,452.525013 C467.597918,456.585037 460.916638,461.10064 454.554735,466.122545 C406.517515,504.041758 381.896683,584.634359 381.896683,597.537544 C381.896683,600.149798 374.018252,665.154984 378.722845,718.183154 C381.78456,752.693506 403.303092,795.064883 408.223305,810.230676 C411.284988,819.667838 431.814053,858.474026 449.312169,887.038954 C459.934033,904.378693 470.108236,945.780822 478.892051,942.193061 C484.201729,940.024316 478.966922,924.679698 481.008493,903.238219 C482.513471,887.432281 465.256746,864.80455 466.832432,844.2128 C468.58545,821.303608 443.610844,766.290132 449.312169,744.267132 C458.001978,710.70026 493.28813,694.120443 518.094664,694.120443 C538.511462,694.120443 545.186086,771.240903 551.475816,755.423537 C556.741023,742.182634 573.450286,745.884055 573.450286,741.361068 C573.450286,694.120443 577.684958,676.134667 589.22312,629.087505 C596.480052,599.49717 637.26948,595.009354 649.258049,579.913159 C661.246617,564.816965 565.610951,539.234654 573.450286,534.097097 C598.395248,517.749261 634.77753,505.012159 656.252573,501.464873 Z" id="Oval-3" fill="#FF0000"></path>
                        <path d="M778.869865,656.284437 C802.316956,656.284437 819.698962,660.220484 819.698962,647.001514 C819.698962,633.782545 787.652709,616.035703 764.205618,616.035703 C740.758528,616.035703 701.433938,633.782545 701.433938,647.001514 C701.433938,660.220484 755.422775,656.284437 778.869865,656.284437 Z" id="Oval-10" fill="#FF0000"></path>
                        <path d="M871.001993,638.966569 C855.869953,626.210272 838.050431,642.805724 838.050431,656.242844 C838.050431,663.727058 855.911919,672.990029 866.514152,667.318831 C874.947116,662.807988 877.705782,644.617858 871.001993,638.966569 Z" id="Oval-10-Copy" fill="#FF0000"></path>
                        <path d="M769.183711,743.146748 C779.707345,743.146748 797.322258,744.585399 805.590993,739.205968 C820.492293,729.511558 826.924282,694.458579 826.924282,675.049336 C826.924282,673.197336 826.856433,671.429444 826.719883,669.740916 C826.63065,668.637495 825.301978,665.993158 830.998911,668.411397 C833.167289,669.331832 846.377643,684.733961 858.518703,703.793422 C871.075965,723.506254 883.153209,746.448871 891.854043,750.498209 C899.694226,754.147003 902.638852,697.085553 902.603474,696.907356 C902.312466,695.44156 905.794238,675.629667 899.463041,665.941885 C895.420702,659.756435 891.854043,656.366411 878.538374,656.366411 C874.201591,656.366411 862.622493,657.946595 854.077265,659.402228 C848.978294,660.27081 846.175153,663.518102 842.262742,662.910115 C829.199142,660.880038 822.655628,654.551239 822.109862,653.617244 C814.381599,640.391517 797.169611,635.240679 769.183711,630.986403 C759.553201,629.522421 736.575755,626.199517 727.990834,630.119539 C727.428056,630.376513 477.51118,692.453196 477.079916,692.774985 C474.285491,694.860057 454.909807,705.328579 488.436734,700.991259 C507.357413,698.543523 719.563665,651.285289 719.395715,653.617244 C718.483778,666.279351 723.15138,675.544797 723.15138,688.502043 C723.15138,706.356367 724.574131,723.03478 735.409472,733.006609 C742.889274,739.890315 757.140754,743.146748 769.183711,743.146748 Z" id="Oval-9" fill="#2B00FF"></path>
                        <path d="M511.79541,852.636206 C573.10145,850.104903 533.39174,816.009773 538.336781,801.717546 C545.229603,781.795816 516.009248,773.324092 516.009248,748.043115 C516.009248,704.355385 485.987511,689.470423 464.148778,689.470423 C442.310046,689.470423 418.129174,717.679512 437.074415,771.053314 C456.019657,824.427116 488.798368,853.585744 511.79541,852.636206 Z" id="Oval-4" fill="#3A71FF"></path>
                        <path d="M450.944106,759.605404 C448.691315,791.319529 439.630444,759.132385 438.437439,736.499974 C437.244434,713.867564 462.273448,705.789249 470.608463,705.789249 C478.943478,705.789249 503.3707,721.648309 492.778806,733.866635 C482.186912,746.084961 453.196896,727.891279 450.944106,759.605404 Z M525.95635,807.848587 C524.885005,822.930667 514.128833,801.830494 500.434001,797.619384 C485.331769,792.975503 472.28637,787.480481 471.660714,775.611219 C470.46771,752.978808 486.685435,745.201207 495.02045,745.201207 C503.355465,745.201207 518.81224,768.653283 508.220346,780.871609 C497.628452,793.089936 528.209141,776.134462 525.95635,807.848587 Z M469.021795,793.867036 C473.081988,815.380851 512.178796,850.221148 459.469804,801.382165 C449.238964,791.902496 447.559751,771.207813 455.894766,771.207813 C464.229781,771.207813 464.961602,772.353221 469.021795,793.867036 Z" id="Combined-Shape" fill="#2300FF"></path>
                        <path d="M843.22273,799.009128 C851.487535,799.009128 862.541033,799.702473 864.390442,797.207099 C866.239852,794.711725 852.444147,787.660636 840.055961,785.769936 C827.667775,783.879235 821.738014,788.500823 821.738014,795.191593 C821.738014,801.882363 834.957925,799.009128 843.22273,799.009128 Z" id="Oval-11" fill="#2300FF"></path>
                    </g>
                </g>
                <g id="Group-8-Copy-3" mask="url(#mask-2)">
                    <g transform="translate(-599.000000, -375.000000)">
                        <g id="Oval-6-+-Oval-6-Copy-Mask" stroke-width="1" fill="none">
                            <mask id="mask-8" fill="white">
                                <use xlink:href="#path-7"></use>
                            </mask>
                            <use id="Mask" fill="#E9034E" xlink:href="#path-7"></use>
                            <path d="M853.727451,560.091046 C867.409711,560.091046 878.501374,554.101827 878.501374,545.270775 C878.501374,536.439723 867.409711,532.983 853.727451,532.983 C844.605945,532.983 834.939626,538.174867 824.728494,548.558602 C834.939626,556.246898 844.605945,560.091046 853.727451,560.091046 Z" id="Oval-12-Copy" fill="#FFFFFF" mask="url(#mask-8)" transform="translate(851.614934, 546.537023) rotate(7.000000) translate(-851.614934, -546.537023) "></path>
                            <path d="M734.762407,681.926717 C734.888046,681.582905 735.031904,681.230291 735.194728,680.86844 C736.331173,678.342874 755.144038,646.86071 768.133479,644.263004 C796.309537,638.628189 812.741676,632.703698 835.317405,632.703698 C857.893133,632.703698 878.593799,651.728838 878.593799,665.420308 C878.593799,672.488724 880.499666,683.953672 874.025396,686.266823 C877.771958,686.113528 881.238198,686.039575 884.324313,686.085096 C931.035288,686.7741 893.688854,797.225144 836.187522,801.653945 C740.269865,809.041605 695.330157,808.464135 643.056554,772.120328 C642.205742,771.528792 612.230817,743.425841 611.443769,742.842546 C577.484409,717.67467 608.722834,693.572921 606.305895,651.501815 C604.440051,619.023482 594.602276,570.130491 595.985756,554.998506 C596.668079,547.535516 620.035,550.123098 620.72952,554.998506 C623.422382,573.901927 641.740273,613.912329 660.350107,638.572183 C678.959942,663.232037 699.333556,672.5838 715.990429,682.000229 C720.798536,684.718337 727.462812,683.8172 734.762407,681.926717 Z M777.999106,681.46764 C778.138292,681.640859 778.275653,681.818363 778.411156,682.000229 C785.450721,691.448398 816.112266,690.049394 844.772431,688.106786 C841.604499,681.224595 838.173061,671.223815 835.317405,671.223815 C827.936418,671.223815 793.162512,670.511369 777.999106,681.46764 Z" id="Combined-Shape" fill="#2300FF" mask="url(#mask-8)"></path>
                            <path d="M842.610862,679.632426 C823.93652,683.527355 819.41751,673.781373 809.092518,677.756184 C800.771553,680.959504 776.334964,679.44269 775.433099,683.527355 C774.850495,686.166044 801.774206,690.873671 807.368455,691.480343 C812.019477,691.984726 827.351083,696.135673 838.424555,695.802909 C848.935199,695.487058 846.87189,678.743699 842.610862,679.632426 Z" id="Oval-6" fill="#FF0000" mask="url(#mask-8)"></path>
                            <path d="M842.610862,679.632426 C823.93652,683.527355 819.41751,673.781373 809.092518,677.756184 C800.771553,680.959504 776.334964,679.44269 775.433099,683.527355 C774.850495,686.166044 807.568111,665.932682 817.648051,665.932682 C827.727992,665.932682 830.815179,672.972667 842.610862,667.199239 C847.453786,664.828857 846.87189,678.743699 842.610862,679.632426 Z" id="Oval-6-Copy-2" fill="#A00025" mask="url(#mask-8)"></path>
                            <path d="M901.720883,646.867719 C945.405169,646.867719 968.660383,619.721413 968.660383,608.030542 C968.660383,600.982682 883.865533,615.639787 854.922974,583.052375 C849.763284,577.242905 847.963728,566.766906 844.126409,560.021266 C833.41008,541.182985 825.242694,527.429625 825.634222,540.766978 C826.548871,571.924381 807.510435,590.903031 795.073438,604.622639 C791.552395,608.506802 790.882659,617.599416 795.073438,622.65608 C799.264216,627.712743 802.834206,631.853151 808.495131,633.857064 C812.475164,635.265957 828.92804,630.667156 834.412021,631.740806 C855.676144,635.903882 874.959691,646.867719 901.720883,646.867719 Z" id="Oval-2" fill="#B200FE" mask="url(#mask-8)"></path>
                        </g>
                        <path d="M718.519676,346.763583 C751.400649,341.322148 754.352668,365.830881 780.871803,365.555027 C789.43403,365.465962 803.604734,380.676671 809.457357,379.566567 C812.814836,378.929733 822.617011,389.827388 824.777939,388.77015 C829.071595,386.669472 820.000628,354.121284 818.755523,351.077387 C815.649987,343.485306 803.529735,338.452611 795.605161,331.2621 C789.398487,325.630359 781.643027,324.113133 773.593049,318.703866 C768.029115,314.965123 763.511464,306.898866 754.408014,304.433923 C753.603061,304.215966 741.235117,298.676936 740.413395,298.473232 C709.014172,290.689392 677.993008,294.867025 664.856217,294.867025 C652.506155,294.867025 636.839014,292.900077 596.6702,309.270723 C592.509767,310.966292 576.530889,314.198316 572.439389,316.226884 C568.815952,318.023385 555.750973,331.916574 552.232586,333.996086 C546.633702,337.305259 539.306752,344.81669 534.131027,348.909856 C495.050352,379.816378 493.018206,421.082274 493.018206,431.599174 C493.018206,433.728324 486.862531,441.134172 490.689952,484.355437 C491.31915,491.460677 496.65234,497.223388 496.671029,510.402936 C496.685029,520.276031 500.500457,525.877328 499.915337,537.344204 C499.318749,549.035812 503.670717,553.242194 506.141432,563.189285 C510.81841,582.018786 515.805953,603.33093 517.267898,607.845528 C519.75873,615.537404 516.554267,614.645063 530.789858,637.92726 C534.551913,644.080071 544.302777,660.183047 546.946635,674.390717 C552.921614,706.499289 557.827962,707.739443 557.32287,691.448934 C556.369729,660.707675 547.691047,662.863964 541.951081,645.343151 C536.211115,627.822339 521.807734,583.508027 526.446046,565.557909 C533.515639,538.198815 545.114539,532.131881 565.295892,532.131881 C593.963535,532.131881 594.323307,572.402755 599.440317,559.510616 C603.723825,548.718454 620.355194,559.623912 620.355194,555.937395 C620.355194,517.433341 638.559397,516.10541 635.362759,472.404591 C633.528203,447.324601 646.074779,439.792404 655.828078,427.488065 C665.581376,415.183725 630.945894,400.95115 651.411212,365.555027 C664.724009,342.529663 701.048657,349.654842 718.519676,346.763583 Z" id="Oval-3" fill="#00EDC8"></path>
                        <path d="M780.772818,511.912704 C761.575832,511.912704 713.760887,517.739796 713.760887,506.739007 C713.760887,501.096871 725.913917,498.423993 736.833779,493.938446 C747.204988,489.678269 749.709717,483.45918 759.060865,483.45918 C778.257851,483.45918 817.650025,492.713155 817.650025,503.713945 C817.650025,507.189701 817.599211,510.730075 814.645561,511.912704 C808.250891,514.473104 793.904418,511.912704 780.772818,511.912704 Z M874.218837,494.540795 C880.120114,491.026521 880.90977,516.639423 874.218837,520.332389 C865.806751,524.975323 850.697184,520.319718 850.697184,514.192493 C850.697184,503.191703 869.509959,497.344983 874.218837,494.540795 Z" id="Combined-Shape" fill="#A900F5"></path>
                        <path d="M756.790483,554.856106 C771.319535,554.856106 783.097658,548.997061 783.097658,540.357951 C783.097658,531.71884 771.319535,528.337248 756.790483,528.337248 C747.104449,528.337248 736.839884,533.416271 725.996788,543.574317 C736.839884,551.09551 747.104449,554.856106 756.790483,554.856106 Z" id="Oval-12" fill="#FFFFFF"></path>
                        <path d="M783.478926,606.360111 C791.65671,606.360111 814.786834,590.113063 817.849612,574.043506 C817.988202,573.31636 824.100409,559.298704 824.100409,558.61667 C824.100409,557.113386 821.468641,536.132505 826.095978,538.09541 C827.857244,538.842535 852.474351,530.913577 847.464026,545.607015 C843.453992,557.366967 847.178224,574.181645 851.723021,579.640309 C874.652471,607.180406 872.544146,610.17423 872.792482,613.80732 C872.913819,615.582448 893.215914,606.162048 900.603224,575.278064 C907.990533,544.39408 899.077915,537.25686 893.935397,529.393204 C890.652005,524.372422 883.114492,522.183351 873.574576,523.792729 C862.793409,525.611506 858.8744,531.221528 856.354505,536.076745 C854.314284,540.007748 844.616061,532.060178 841.438204,531.56667 C830.827288,529.918839 823.02335,532.324802 822.580051,531.56667 C816.302766,520.831235 819.978466,513.622422 797.246904,510.16919 C789.424519,508.980864 775.583666,513.414474 765.753887,521.202228 C765.724208,521.225741 760.35154,527.790006 756.950335,527.61832 C726.268797,526.069574 574.824137,511.719513 574.508799,511.954646 C572.908835,513.14767 539.590296,536.314102 542.657635,537.06645 C543.139713,537.184693 546.36516,536.902001 551.538823,533.407259 C560.146213,527.59308 572.861816,517.191428 577.881089,516.542527 C593.24942,514.555679 754.205372,536.202542 754.068955,538.09541 C753.328234,548.373351 750.31105,564.760557 750.31105,575.278064 C750.31105,589.770571 773.697029,606.360111 783.478926,606.360111 Z" id="Oval-9" fill="#121212"></path>
                        <path d="M851.511947,549.590609 C847.570644,561.28622 847.045047,574.420857 851.511947,579.849655 C870.0351,602.361564 871.933831,608.381905 872.158194,611.818438 C872.206805,612.563009 873.914859,610.351958 873.958325,610.995399 C874.077582,612.760814 886.615148,605.837957 893.875841,575.122947 C901.136533,544.407938 895.353057,543.112794 890.298681,535.292163 C887.071566,530.298851 883.334728,527.156903 873.958325,528.757476 C863.361945,530.566301 862.509907,535.965701 860.19149,538.6555 C857.873073,541.3453 856.436396,534.977563 851.511947,549.590609 Z" id="Oval-9" fill="#FFF200"></path>
                        <path d="M785.003023,601.774085 C792.009315,601.774085 811.825982,587.331699 814.450008,573.047088 C814.568745,572.400711 819.805361,559.940084 819.805361,559.333808 C819.805361,557.997503 818.882594,535.962343 818.502799,535.288422 C813.124753,525.745439 816.273898,519.337354 796.798698,516.267694 C790.096892,515.211363 778.238781,519.152504 769.817146,526.075223 C769.791719,526.096124 763.839607,528.452279 762.274729,531.778639 C759.648519,537.361005 759.92299,539.409358 759.806115,541.091973 C759.171504,550.228279 756.58654,564.795255 756.58654,574.144516 C756.58654,587.02725 776.62241,601.774085 785.003023,601.774085 Z" id="Oval-9" fill="#FFF200"></path>
                        <path d="M579.135193,646.629025 C600.002166,645.618931 603.524328,629.950804 595.79373,622.596923 C588.063133,615.243042 577.291662,594.61512 580.867304,581.346725 C585.170221,565.379581 571.552582,577.510254 571.552582,557.590522 C571.552582,523.16749 550.817772,524.261329 536.140158,524.261329 C526.488749,524.261329 516.293151,533.266053 514.06237,551.390244 C512.900636,560.82886 518.55612,570.562937 522.091559,585.454295 C532.675935,630.035958 563.67909,647.377198 579.135193,646.629025 Z" id="Oval-4" fill="#BC00FF"></path>
                        <path d="M825.751717,628.375333 C831.144275,628.375333 836.828295,625.999867 838.034984,624.357202 C839.241673,622.714537 831.451919,622.173207 823.600049,622.173207 C815.748179,622.173207 811.648094,623.970906 811.648094,628.375333 C811.648094,632.779759 820.35916,628.375333 825.751717,628.375333 Z" id="Oval-11" fill="#7800A3"></path>
                    </g>
                </g>
                <g id="Group-8-Copy-5" mask="url(#mask-2)">
                    <g transform="translate(454.000000, -375.000000)" id="Oval-6-+-Oval-6-Copy-Mask">
                        <g></g>
                    </g>
                </g>
            </g>
        </g>
    </g>
</svg>