<svg width="173px" height="129px" viewBox="0 0 173 129" version="1.1" 
  xmlns="http://www.w3.org/2000/svg" 
  xmlns:xlink="http://www.w3.org/1999/xlink">
  <g id="4_0" stroke="none" stroke-width="1" fill="none" fill-rule="evenodd">
    <g id="Menu-default" transform="translate(-438.000000, -445.000000)" stroke="#727272">
      <g id="Bitmap">
        <g id="full-screen" transform="translate(438.000000, 445.000000)">
          <path d="M6,0.5 C2.96243388,0.5 0.5,2.96243388 0.5,6 L0.5,99 C0.5,102.037566 2.96243388,104.5 6,104.5 L167,104.5 C170.037566,104.5 172.5,102.037566 172.5,99 L172.5,6 C172.5,2.96243388 170.037566,0.5 167,0.5 L6,0.5 Z" id="Rectangle-3" fill="#000000"></path>
          <path d="M99,4.5 L166,4.5 C167.380712,4.5 168.5,5.61928813 168.5,7 L168.5,98 C168.5,99.3807119 167.380712,100.5 166,100.5 L99,100.5 C97.6192881,100.5 96.5,99.3807119 96.5,98 L96.5,7 C96.5,5.61928813 97.6192881,4.5 99,4.5 Z" id="Rectangle-3-Copy-5"></path>
          <g id="Group-2" transform="translate(106.000000, 20.000000)">
            <path d="M1,0.5 C0.723857625,0.5 0.5,0.723857625 0.5,1 C0.5,1.27614237 0.723857625,1.5 1,1.5 L27,1.5 C27.2761424,1.5 27.5,1.27614237 27.5,1 C27.5,0.723857625 27.2761424,0.5 27,0.5 L1,0.5 Z" id="Rectangle-3"></path>
            <path d="M1,10.5 C0.723857625,10.5 0.5,10.7238576 0.5,11 C0.5,11.2761424 0.723857625,11.5 1,11.5 L43,11.5 C43.2761424,11.5 43.5,11.2761424 43.5,11 C43.5,10.7238576 43.2761424,10.5 43,10.5 L1,10.5 Z" id="Rectangle-3-Copy-3"></path>
            <path d="M1,20.5 C0.723857625,20.5 0.5,20.7238576 0.5,21 C0.5,21.2761424 0.723857625,21.5 1,21.5 L33,21.5 C33.2761424,21.5 33.5,21.2761424 33.5,21 C33.5,20.7238576 33.2761424,20.5 33,20.5 L1,20.5 Z" id="Rectangle-3-Copy-4"></path>
            <path d="M1,30.5 C0.723857625,30.5 0.5,30.7238576 0.5,31 C0.5,31.2761424 0.723857625,31.5 1,31.5 L21,31.5 C21.2761424,31.5 21.5,31.2761424 21.5,31 C21.5,30.7238576 21.2761424,30.5 21,30.5 L1,30.5 Z" id="Rectangle-3-Copy-5"></path>
            <path d="M0.5,44.5 L19.5,44.5 L0.5,44.5 Z" id="Rectangle-3-Copy-6"></path>
            <path d="M0.5,51.5 L19.5,51.5 L0.5,51.5 Z" id="Rectangle-3-Copy-7"></path>
            <path d="M0.5,58.5 L19.5,58.5 L0.5,58.5 Z" id="Rectangle-3-Copy-8"></path>
          </g>
          <rect id="Rectangle-3-Copy" x="76.5" y="107.5" width="20" height="14"></rect>
          <path d="M64.5,124.5 C63.3954305,124.5 62.5,125.395431 62.5,126.5 C62.5,127.604569 63.3954305,128.5 64.5,128.5 L108.5,128.5 C109.604569,128.5 110.5,127.604569 110.5,126.5 C110.5,125.395431 109.604569,124.5 108.5,124.5 L64.5,124.5 Z" id="Rectangle-3-Copy-2"></path>
          <path d="M105.885212,65.5753283 C105.295342,67.9567757 104.511449,70.8116889 103.533438,74.1407164 L103.427951,74.4997811 L103.053712,74.4997811 C102.492173,74.4997811 102.492173,74.4997811 102.13483,74.4997811 C92.8006315,74.4997811 92.8006315,74.4997811 78.1326051,74.4997811 L77.8155804,74.4997811 L77.6803647,74.2130383 C77.4691374,73.7651025 76.522936,71.7272874 76.3389802,71.334046 C76.2868684,71.2226906 76.2868684,71.2226906 76.2347266,71.1114602 C75.4862588,69.5155381 74.9641238,68.4510736 74.6296391,67.8629554 C73.6895883,66.2119515 72.7561244,64.7254074 70.3853976,61.04391 C67.0031649,55.7937865 65.3867179,53.1922596 63.533117,49.8760741 C62.1733533,47.4404756 62.3070358,45.6140811 63.4858897,44.4124081 C64.1770296,43.7067247 65.1180241,43.3119273 66.1362206,43.2999381 L66.1609104,43.2999463 C67.1366628,43.3055256 68.06433,43.6838247 68.7857912,44.3800096 L68.8918637,44.4929457 L76.5441606,53.4095959 C76.5724174,53.4426801 76.6259986,53.4565062 76.6641909,53.4419279 C76.7083301,53.425063 76.741591,53.3761463 76.741591,53.3223837 L76.741591,24.1062051 C76.741591,21.9754689 78.4274737,20.2368181 80.5084667,20.2368181 C82.5896683,20.2368181 84.2757204,21.9755142 84.2755185,24.1062051 L84.2755185,42.9740904 C84.2755185,43.0452896 84.3295252,43.1003358 84.3903024,43.1003358 C84.4509727,43.1003358 84.5052623,43.045045 84.5052623,42.9740904 L84.5052623,36.4207512 C84.5052623,34.2904953 86.1908485,32.5520816 88.2714338,32.5520816 C90.352333,32.5520816 92.0381335,34.2904575 92.0381335,36.4207512 L92.0381335,45.6096296 C92.0381335,45.6810142 92.0919689,45.735875 92.1527413,45.735875 C92.2135831,45.735875 92.2675252,45.6809489 92.2675252,45.6096296 L92.2675252,39.0579044 C92.2675252,36.927364 93.9532102,35.1883381 96.0338728,35.1883381 C98.114899,35.1883381 99.8011006,36.9273793 99.8011006,39.0579044 L99.8011006,48.2476795 C99.8011006,48.3192435 99.854936,48.3741043 99.9158845,48.3741043 C99.9767402,48.3741043 100.030668,48.3191599 100.030668,48.2476795 L100.030668,42.3672134 C100.030668,40.2362948 101.716372,38.4969298 103.79684,38.4969298 C105.877741,38.4969298 107.56354,40.2361983 107.56354,42.3672134 L107.56354,56.1580631 C107.56354,57.9976861 106.9463,61.2914647 105.885212,65.5753283 Z" id="Path" fill="#000000" transform="translate(85.063540, 47.368300) rotate(60.000000) translate(-85.063540, -47.368300) "></path>
        </g>
      </g>
    </g>
  </g>
</svg>